G04 #@! TF.GenerationSoftware,KiCad,Pcbnew,5.0.2-bee76a0~70~ubuntu18.04.1*
G04 #@! TF.CreationDate,2019-09-23T19:43:07+01:00*
G04 #@! TF.ProjectId,charliewatch-norf-routed,63686172-6c69-4657-9761-7463682d6e6f,rev?*
G04 #@! TF.SameCoordinates,Original*
G04 #@! TF.FileFunction,Soldermask,Top*
G04 #@! TF.FilePolarity,Negative*
%FSLAX46Y46*%
G04 Gerber Fmt 4.6, Leading zero omitted, Abs format (unit mm)*
G04 Created by KiCad (PCBNEW 5.0.2-bee76a0~70~ubuntu18.04.1) date Mon 23 Sep 2019 19:43:07 BST*
%MOMM*%
%LPD*%
G01*
G04 APERTURE LIST*
%ADD10C,0.100000*%
G04 APERTURE END LIST*
D10*
G36*
X149002700Y-118955200D02*
X147999500Y-118955200D01*
X147999500Y-117952000D01*
X149002700Y-117952000D01*
X149002700Y-118955200D01*
X149002700Y-118955200D01*
G37*
G36*
X147645569Y-117934489D02*
X147540706Y-118932194D01*
X146543001Y-118827331D01*
X146647864Y-117829626D01*
X147645569Y-117934489D01*
X147645569Y-117934489D01*
G37*
G36*
X150459198Y-118827331D02*
X149461493Y-118932194D01*
X149356630Y-117934489D01*
X150354335Y-117829626D01*
X150459198Y-118827331D01*
X150459198Y-118827331D01*
G37*
G36*
X146298494Y-117774001D02*
X146089917Y-118755280D01*
X145108638Y-118546703D01*
X145317215Y-117565424D01*
X146298494Y-117774001D01*
X146298494Y-117774001D01*
G37*
G36*
X151893562Y-118546703D02*
X150912283Y-118755280D01*
X150703706Y-117774001D01*
X151684985Y-117565424D01*
X151893562Y-118546703D01*
X151893562Y-118546703D01*
G37*
G36*
X144977090Y-117472545D02*
X144667084Y-118426645D01*
X143712984Y-118116639D01*
X144022990Y-117162539D01*
X144977090Y-117472545D01*
X144977090Y-117472545D01*
G37*
G36*
X153289216Y-118116639D02*
X152335116Y-118426645D01*
X152025110Y-117472545D01*
X152979210Y-117162539D01*
X153289216Y-118116639D01*
X153289216Y-118116639D01*
G37*
G36*
X143691942Y-117037263D02*
X143283903Y-117953732D01*
X142367434Y-117545693D01*
X142775473Y-116629224D01*
X143691942Y-117037263D01*
X143691942Y-117037263D01*
G37*
G36*
X154634765Y-117545693D02*
X153718296Y-117953732D01*
X153310257Y-117037263D01*
X154226726Y-116629224D01*
X154634765Y-117545693D01*
X154634765Y-117545693D01*
G37*
G36*
X149002700Y-93054997D02*
X149005102Y-93079383D01*
X149012215Y-93102832D01*
X149023766Y-93124443D01*
X149039312Y-93143385D01*
X149058254Y-93158931D01*
X149079865Y-93170482D01*
X149103314Y-93177595D01*
X149127700Y-93179997D01*
X149152086Y-93177595D01*
X149175535Y-93170482D01*
X149197146Y-93158931D01*
X149216088Y-93143385D01*
X149231634Y-93124443D01*
X149243185Y-93102832D01*
X149252015Y-93068063D01*
X149304701Y-92566789D01*
X150302406Y-92671652D01*
X150250350Y-93166935D01*
X150250189Y-93191439D01*
X150254813Y-93215503D01*
X150264042Y-93238203D01*
X150277522Y-93258666D01*
X150294735Y-93276106D01*
X150315020Y-93289853D01*
X150337597Y-93299379D01*
X150361599Y-93304316D01*
X150386103Y-93304477D01*
X150410167Y-93299853D01*
X150432867Y-93290624D01*
X150453330Y-93277144D01*
X150470770Y-93259931D01*
X150484517Y-93239646D01*
X150496933Y-93205990D01*
X150600415Y-92719143D01*
X151581694Y-92927720D01*
X151480383Y-93404349D01*
X151477662Y-93428702D01*
X151479744Y-93453117D01*
X151486550Y-93476658D01*
X151497817Y-93498418D01*
X151513113Y-93517562D01*
X151531850Y-93533354D01*
X151553308Y-93545187D01*
X151576662Y-93552606D01*
X151601015Y-93555327D01*
X151625430Y-93553245D01*
X151648971Y-93546439D01*
X151670731Y-93535172D01*
X151689875Y-93519876D01*
X151705667Y-93501139D01*
X151721533Y-93468965D01*
X151871590Y-93007139D01*
X152825690Y-93317145D01*
X152757016Y-93528503D01*
X152671553Y-93791529D01*
X152666301Y-93815464D01*
X152665820Y-93839963D01*
X152670128Y-93864086D01*
X152679059Y-93886905D01*
X152692270Y-93907543D01*
X152709254Y-93925207D01*
X152729357Y-93939218D01*
X152751808Y-93949038D01*
X152775743Y-93954290D01*
X152800242Y-93954771D01*
X152824365Y-93950463D01*
X152847184Y-93941532D01*
X152867822Y-93928321D01*
X152885486Y-93911337D01*
X152904628Y-93880998D01*
X153108192Y-93423787D01*
X154024661Y-93831826D01*
X153823920Y-94282697D01*
X153816195Y-94305952D01*
X153813156Y-94330267D01*
X153814918Y-94354708D01*
X153821415Y-94378335D01*
X153832397Y-94400241D01*
X153847441Y-94419583D01*
X153865970Y-94435619D01*
X153887271Y-94447732D01*
X153910526Y-94455457D01*
X153934841Y-94458496D01*
X153959282Y-94456734D01*
X153982909Y-94450237D01*
X154004815Y-94439255D01*
X154024157Y-94424211D01*
X154046366Y-94396039D01*
X154292501Y-93969720D01*
X155161299Y-94471320D01*
X154913199Y-94901043D01*
X154903086Y-94923363D01*
X154897521Y-94947227D01*
X154896720Y-94971718D01*
X154900711Y-94995895D01*
X154909343Y-95018829D01*
X154922283Y-95039638D01*
X154939034Y-95057523D01*
X154958952Y-95071796D01*
X154981272Y-95081909D01*
X155005136Y-95087474D01*
X155029627Y-95088275D01*
X155053804Y-95084284D01*
X155076738Y-95075652D01*
X155097547Y-95062712D01*
X155122579Y-95037016D01*
X155135793Y-95018829D01*
X155414350Y-94635427D01*
X156225956Y-95225093D01*
X155935334Y-95625100D01*
X155922943Y-95646241D01*
X155914915Y-95669392D01*
X155911557Y-95693666D01*
X155913000Y-95718127D01*
X155919187Y-95741838D01*
X155929881Y-95763885D01*
X155944671Y-95783423D01*
X155962988Y-95799700D01*
X155984129Y-95812091D01*
X156007280Y-95820119D01*
X156031554Y-95823477D01*
X156056015Y-95822034D01*
X156079726Y-95815847D01*
X156101773Y-95805153D01*
X156129354Y-95782214D01*
X156460967Y-95413921D01*
X157206490Y-96085194D01*
X156876667Y-96451499D01*
X156862134Y-96471228D01*
X156851730Y-96493414D01*
X156845854Y-96517203D01*
X156844731Y-96541682D01*
X156848406Y-96565909D01*
X156856737Y-96588954D01*
X156869403Y-96609931D01*
X156885919Y-96628033D01*
X156905648Y-96642566D01*
X156927834Y-96652970D01*
X156951623Y-96658846D01*
X156976102Y-96659969D01*
X157000329Y-96656294D01*
X157023374Y-96647963D01*
X157053201Y-96628033D01*
X157419506Y-96298210D01*
X158090779Y-97043733D01*
X157722486Y-97375346D01*
X157705970Y-97393448D01*
X157693304Y-97414425D01*
X157684973Y-97437470D01*
X157681298Y-97461697D01*
X157682421Y-97486176D01*
X157688297Y-97509965D01*
X157698701Y-97532151D01*
X157713234Y-97551880D01*
X157731336Y-97568396D01*
X157752313Y-97581062D01*
X157775358Y-97589393D01*
X157799585Y-97593068D01*
X157824064Y-97591945D01*
X157847853Y-97586069D01*
X157879600Y-97569366D01*
X157879606Y-97569362D01*
X158279607Y-97278744D01*
X158869273Y-98090350D01*
X158520977Y-98343402D01*
X158467684Y-98382121D01*
X158449367Y-98398398D01*
X158434577Y-98417936D01*
X158423883Y-98439983D01*
X158417696Y-98463694D01*
X158416253Y-98488155D01*
X158419611Y-98512429D01*
X158427639Y-98535580D01*
X158440030Y-98556721D01*
X158456307Y-98575038D01*
X158475845Y-98589828D01*
X158497892Y-98600522D01*
X158521603Y-98606709D01*
X158546064Y-98608152D01*
X158570338Y-98604794D01*
X158603657Y-98591501D01*
X159033380Y-98343401D01*
X159534980Y-99212199D01*
X159108661Y-99458334D01*
X159088743Y-99472607D01*
X159071992Y-99490492D01*
X159059052Y-99511301D01*
X159050420Y-99534235D01*
X159046429Y-99558412D01*
X159047230Y-99582903D01*
X159052795Y-99606767D01*
X159062908Y-99629087D01*
X159077181Y-99649005D01*
X159095066Y-99665756D01*
X159115875Y-99678696D01*
X159138809Y-99687328D01*
X159162986Y-99691319D01*
X159187477Y-99690518D01*
X159222003Y-99680780D01*
X159672874Y-99480039D01*
X160080913Y-100396508D01*
X159623702Y-100600072D01*
X159602401Y-100612185D01*
X159583872Y-100628221D01*
X159568828Y-100647563D01*
X159557846Y-100669469D01*
X159551349Y-100693096D01*
X159549587Y-100717537D01*
X159552626Y-100741852D01*
X159560351Y-100765107D01*
X159572464Y-100786408D01*
X159588500Y-100804937D01*
X159607842Y-100819981D01*
X159629748Y-100830963D01*
X159653375Y-100837460D01*
X159677816Y-100839222D01*
X159713169Y-100833147D01*
X160187555Y-100679010D01*
X160497561Y-101633110D01*
X160035735Y-101783167D01*
X160013284Y-101792987D01*
X159993181Y-101806998D01*
X159976197Y-101824662D01*
X159962986Y-101845300D01*
X159954055Y-101868119D01*
X159949747Y-101892242D01*
X159950228Y-101916741D01*
X159955480Y-101940676D01*
X159965300Y-101963127D01*
X159979311Y-101983230D01*
X159996975Y-102000214D01*
X160017613Y-102013425D01*
X160040432Y-102022356D01*
X160064555Y-102026664D01*
X160100351Y-102024317D01*
X160576980Y-101923006D01*
X160785557Y-102904285D01*
X160298710Y-103007767D01*
X160275356Y-103015186D01*
X160253898Y-103027019D01*
X160235161Y-103042811D01*
X160219865Y-103061955D01*
X160208598Y-103083715D01*
X160201792Y-103107255D01*
X160199710Y-103131671D01*
X160202431Y-103156024D01*
X160209850Y-103179378D01*
X160221683Y-103200836D01*
X160237475Y-103219573D01*
X160256619Y-103234869D01*
X160278379Y-103246136D01*
X160301919Y-103252942D01*
X160337765Y-103254350D01*
X160833048Y-103202294D01*
X160937911Y-104199999D01*
X160436637Y-104252685D01*
X160412635Y-104257623D01*
X160390058Y-104267148D01*
X160369773Y-104280895D01*
X160352560Y-104298335D01*
X160339080Y-104318798D01*
X160329851Y-104341498D01*
X160325227Y-104365562D01*
X160325388Y-104390066D01*
X160330326Y-104414068D01*
X160339851Y-104436645D01*
X160353598Y-104456930D01*
X160371038Y-104474143D01*
X160391501Y-104487623D01*
X160414201Y-104496852D01*
X160449703Y-104502000D01*
X160952700Y-104502000D01*
X160952700Y-105505200D01*
X160449694Y-105505200D01*
X160425308Y-105507602D01*
X160401859Y-105514715D01*
X160380248Y-105526266D01*
X160361306Y-105541812D01*
X160345760Y-105560754D01*
X160334209Y-105582365D01*
X160327096Y-105605814D01*
X160324694Y-105630200D01*
X160327096Y-105654586D01*
X160334209Y-105678035D01*
X160345760Y-105699646D01*
X160361306Y-105718588D01*
X160380248Y-105734134D01*
X160401859Y-105745685D01*
X160436628Y-105754515D01*
X160937911Y-105807202D01*
X160833048Y-106804907D01*
X160337775Y-106752852D01*
X160313271Y-106752691D01*
X160289207Y-106757315D01*
X160266507Y-106766544D01*
X160246044Y-106780024D01*
X160228604Y-106797237D01*
X160214857Y-106817522D01*
X160205331Y-106840099D01*
X160200394Y-106864101D01*
X160200233Y-106888605D01*
X160204857Y-106912669D01*
X160214086Y-106935369D01*
X160227566Y-106955832D01*
X160244779Y-106973272D01*
X160265064Y-106987019D01*
X160298720Y-106999435D01*
X160785557Y-107102915D01*
X160576980Y-108084194D01*
X160100351Y-107982883D01*
X160075998Y-107980162D01*
X160051583Y-107982244D01*
X160028042Y-107989050D01*
X160006282Y-108000317D01*
X159987138Y-108015613D01*
X159971346Y-108034350D01*
X159959513Y-108055808D01*
X159952094Y-108079162D01*
X159949373Y-108103515D01*
X159951455Y-108127930D01*
X159958261Y-108151471D01*
X159969528Y-108173231D01*
X159984824Y-108192375D01*
X160003561Y-108208167D01*
X160035735Y-108224033D01*
X160497561Y-108374090D01*
X160187555Y-109328190D01*
X159713163Y-109174051D01*
X159689228Y-109168799D01*
X159664729Y-109168318D01*
X159640606Y-109172626D01*
X159617787Y-109181557D01*
X159597149Y-109194768D01*
X159579485Y-109211752D01*
X159565474Y-109231855D01*
X159555654Y-109254306D01*
X159550402Y-109278241D01*
X159549921Y-109302740D01*
X159554229Y-109326863D01*
X159563160Y-109349682D01*
X159576371Y-109370320D01*
X159593355Y-109387984D01*
X159623692Y-109407125D01*
X160080913Y-109610693D01*
X159672874Y-110527162D01*
X159255750Y-110341446D01*
X159222009Y-110326424D01*
X159198755Y-110318699D01*
X159174440Y-110315660D01*
X159149999Y-110317422D01*
X159126372Y-110323919D01*
X159104466Y-110334901D01*
X159085124Y-110349945D01*
X159069088Y-110368474D01*
X159056975Y-110389775D01*
X159049250Y-110413030D01*
X159046211Y-110437345D01*
X159047973Y-110461786D01*
X159054470Y-110485413D01*
X159065452Y-110507319D01*
X159080496Y-110526661D01*
X159108668Y-110548870D01*
X159534980Y-110795001D01*
X159033380Y-111663799D01*
X158603651Y-111415695D01*
X158581331Y-111405582D01*
X158557467Y-111400017D01*
X158532976Y-111399216D01*
X158508799Y-111403207D01*
X158485865Y-111411839D01*
X158465056Y-111424779D01*
X158447171Y-111441530D01*
X158432898Y-111461448D01*
X158422785Y-111483768D01*
X158417220Y-111507632D01*
X158416419Y-111532123D01*
X158420410Y-111556300D01*
X158429042Y-111579234D01*
X158441982Y-111600043D01*
X158467678Y-111625075D01*
X158520977Y-111663799D01*
X158869273Y-111916851D01*
X158279607Y-112728457D01*
X158027799Y-112545508D01*
X157879600Y-112437835D01*
X157858459Y-112425444D01*
X157835308Y-112417416D01*
X157811034Y-112414058D01*
X157786573Y-112415501D01*
X157762862Y-112421688D01*
X157740815Y-112432382D01*
X157721277Y-112447172D01*
X157705000Y-112465489D01*
X157692609Y-112486630D01*
X157684581Y-112509781D01*
X157681223Y-112534055D01*
X157682666Y-112558516D01*
X157688853Y-112582227D01*
X157699547Y-112604274D01*
X157722486Y-112631855D01*
X158090779Y-112963468D01*
X157419506Y-113708991D01*
X157053201Y-113379168D01*
X157033472Y-113364635D01*
X157011286Y-113354231D01*
X156987497Y-113348355D01*
X156963018Y-113347232D01*
X156938791Y-113350907D01*
X156915746Y-113359238D01*
X156894769Y-113371904D01*
X156876667Y-113388420D01*
X156862134Y-113408149D01*
X156851730Y-113430335D01*
X156845854Y-113454124D01*
X156844731Y-113478603D01*
X156848406Y-113502830D01*
X156856737Y-113525875D01*
X156876667Y-113555702D01*
X157206490Y-113922007D01*
X156460967Y-114593280D01*
X156129358Y-114224992D01*
X156111255Y-114208476D01*
X156090279Y-114195810D01*
X156067234Y-114187479D01*
X156043007Y-114183804D01*
X156018528Y-114184927D01*
X155994739Y-114190803D01*
X155972553Y-114201207D01*
X155952824Y-114215740D01*
X155936308Y-114233843D01*
X155923642Y-114254819D01*
X155915311Y-114277864D01*
X155911636Y-114302091D01*
X155912759Y-114326570D01*
X155918635Y-114350359D01*
X155935337Y-114382104D01*
X156225956Y-114782107D01*
X155414350Y-115371773D01*
X155221369Y-115106157D01*
X155122574Y-114970178D01*
X155106302Y-114951867D01*
X155086764Y-114937077D01*
X155064717Y-114926383D01*
X155041006Y-114920196D01*
X155016545Y-114918753D01*
X154992271Y-114922111D01*
X154969120Y-114930139D01*
X154947979Y-114942530D01*
X154929662Y-114958807D01*
X154914872Y-114978345D01*
X154904178Y-115000392D01*
X154897991Y-115024103D01*
X154896548Y-115048564D01*
X154899906Y-115072838D01*
X154913199Y-115106157D01*
X155161299Y-115535880D01*
X154292501Y-116037480D01*
X154046364Y-115611157D01*
X154032091Y-115591239D01*
X154014206Y-115574488D01*
X153993397Y-115561548D01*
X153970463Y-115552916D01*
X153946286Y-115548925D01*
X153921795Y-115549726D01*
X153897931Y-115555291D01*
X153875611Y-115565404D01*
X153855693Y-115579677D01*
X153838942Y-115597562D01*
X153826002Y-115618371D01*
X153817370Y-115641305D01*
X153813379Y-115665482D01*
X153814180Y-115689973D01*
X153823918Y-115724499D01*
X153974564Y-116062855D01*
X154024661Y-116175375D01*
X153108192Y-116583414D01*
X153065409Y-116487322D01*
X152904628Y-116126202D01*
X152892517Y-116104905D01*
X152876481Y-116086376D01*
X152857139Y-116071332D01*
X152835233Y-116060350D01*
X152811606Y-116053853D01*
X152787165Y-116052091D01*
X152762850Y-116055130D01*
X152739595Y-116062855D01*
X152718294Y-116074968D01*
X152699765Y-116091004D01*
X152684721Y-116110346D01*
X152673739Y-116132252D01*
X152667242Y-116155879D01*
X152665480Y-116180320D01*
X152671555Y-116215675D01*
X152776360Y-116538233D01*
X152825690Y-116690055D01*
X151871590Y-117000061D01*
X151833473Y-116882749D01*
X151721533Y-116538232D01*
X151711713Y-116515782D01*
X151697702Y-116495679D01*
X151680038Y-116478695D01*
X151659400Y-116465484D01*
X151636581Y-116456553D01*
X151612458Y-116452245D01*
X151587959Y-116452726D01*
X151564024Y-116457978D01*
X151541573Y-116467798D01*
X151521470Y-116481809D01*
X151504486Y-116499473D01*
X151491275Y-116520111D01*
X151482344Y-116542930D01*
X151478036Y-116567053D01*
X151480383Y-116602849D01*
X151581694Y-117079481D01*
X150600415Y-117288058D01*
X150496933Y-116801211D01*
X150489514Y-116777857D01*
X150477681Y-116756399D01*
X150461889Y-116737662D01*
X150442745Y-116722366D01*
X150420985Y-116711099D01*
X150397445Y-116704293D01*
X150373029Y-116702211D01*
X150348676Y-116704932D01*
X150325322Y-116712351D01*
X150303864Y-116724184D01*
X150285127Y-116739976D01*
X150269831Y-116759120D01*
X150258564Y-116780880D01*
X150251758Y-116804420D01*
X150250350Y-116840266D01*
X150302406Y-117335549D01*
X149304701Y-117440412D01*
X149252015Y-116939138D01*
X149247077Y-116915136D01*
X149237552Y-116892559D01*
X149223805Y-116872274D01*
X149206365Y-116855061D01*
X149185902Y-116841581D01*
X149163202Y-116832352D01*
X149139138Y-116827728D01*
X149114634Y-116827889D01*
X149090632Y-116832827D01*
X149068055Y-116842352D01*
X149047770Y-116856099D01*
X149030557Y-116873539D01*
X149017077Y-116894002D01*
X149007848Y-116916702D01*
X149002700Y-116952204D01*
X149002700Y-117455200D01*
X147999500Y-117455200D01*
X147999500Y-116952195D01*
X147997098Y-116927809D01*
X147989985Y-116904360D01*
X147978434Y-116882749D01*
X147962888Y-116863807D01*
X147943946Y-116848261D01*
X147922335Y-116836710D01*
X147898886Y-116829597D01*
X147874500Y-116827195D01*
X147850114Y-116829597D01*
X147826665Y-116836710D01*
X147805054Y-116848261D01*
X147786112Y-116863807D01*
X147770566Y-116882749D01*
X147759015Y-116904360D01*
X147750185Y-116939129D01*
X147697498Y-117440412D01*
X146699793Y-117335549D01*
X146751848Y-116840276D01*
X146752009Y-116815772D01*
X146747385Y-116791708D01*
X146738156Y-116769008D01*
X146724676Y-116748545D01*
X146707463Y-116731105D01*
X146687178Y-116717358D01*
X146664601Y-116707832D01*
X146640599Y-116702895D01*
X146616095Y-116702734D01*
X146592031Y-116707358D01*
X146569331Y-116716587D01*
X146548868Y-116730067D01*
X146531428Y-116747280D01*
X146517681Y-116767565D01*
X146505265Y-116801221D01*
X146401785Y-117288058D01*
X145420506Y-117079481D01*
X145521817Y-116602849D01*
X145524538Y-116578496D01*
X145522456Y-116554081D01*
X145515650Y-116530540D01*
X145504383Y-116508780D01*
X145489087Y-116489636D01*
X145470350Y-116473844D01*
X145448892Y-116462011D01*
X145425538Y-116454592D01*
X145401185Y-116451871D01*
X145376770Y-116453953D01*
X145353229Y-116460759D01*
X145331469Y-116472026D01*
X145312325Y-116487322D01*
X145296533Y-116506059D01*
X145280667Y-116538233D01*
X145130610Y-117000061D01*
X144176510Y-116690055D01*
X144330648Y-116215667D01*
X144335900Y-116191732D01*
X144336381Y-116167233D01*
X144332073Y-116143110D01*
X144323142Y-116120291D01*
X144309931Y-116099653D01*
X144292947Y-116081989D01*
X144272844Y-116067978D01*
X144250393Y-116058158D01*
X144226458Y-116052906D01*
X144201959Y-116052425D01*
X144177836Y-116056733D01*
X144155017Y-116065664D01*
X144134379Y-116078875D01*
X144116715Y-116095859D01*
X144097573Y-116126198D01*
X143894007Y-116583414D01*
X142977538Y-116175375D01*
X143178281Y-115724499D01*
X143186003Y-115701252D01*
X143189042Y-115676937D01*
X143187280Y-115652496D01*
X143180783Y-115628869D01*
X143169801Y-115606963D01*
X143154757Y-115587621D01*
X143136228Y-115571585D01*
X143114927Y-115559472D01*
X143091672Y-115551747D01*
X143067357Y-115548708D01*
X143042916Y-115550470D01*
X143019289Y-115556967D01*
X142997383Y-115567949D01*
X142978041Y-115582993D01*
X142955832Y-115611165D01*
X142709699Y-116037480D01*
X141840901Y-115535880D01*
X142089005Y-115106151D01*
X142099118Y-115083831D01*
X142104683Y-115059967D01*
X142105484Y-115035476D01*
X142101493Y-115011299D01*
X142092861Y-114988365D01*
X142079921Y-114967556D01*
X142063170Y-114949671D01*
X142043252Y-114935398D01*
X142020932Y-114925285D01*
X141997068Y-114919720D01*
X141972577Y-114918919D01*
X141948400Y-114922910D01*
X141925466Y-114931542D01*
X141904657Y-114944482D01*
X141879625Y-114970178D01*
X141697685Y-115220597D01*
X141587849Y-115371773D01*
X140776243Y-114782107D01*
X140893855Y-114620228D01*
X141066863Y-114382103D01*
X141079252Y-114360965D01*
X141087280Y-114337814D01*
X141090638Y-114313541D01*
X141089195Y-114289079D01*
X141083008Y-114265368D01*
X141072314Y-114243321D01*
X141057524Y-114223783D01*
X141039207Y-114207506D01*
X141018066Y-114195115D01*
X140994915Y-114187087D01*
X140970642Y-114183729D01*
X140946180Y-114185172D01*
X140922469Y-114191359D01*
X140900422Y-114202053D01*
X140872841Y-114224992D01*
X140541232Y-114593280D01*
X139795709Y-113922007D01*
X140125532Y-113555702D01*
X140140065Y-113535973D01*
X140150469Y-113513787D01*
X140156345Y-113489998D01*
X140157468Y-113465519D01*
X140153793Y-113441292D01*
X140145462Y-113418247D01*
X140132796Y-113397270D01*
X140116280Y-113379168D01*
X140096551Y-113364635D01*
X140074365Y-113354231D01*
X140050576Y-113348355D01*
X140026097Y-113347232D01*
X140001870Y-113350907D01*
X139978825Y-113359238D01*
X139948998Y-113379168D01*
X139582693Y-113708991D01*
X138911420Y-112963468D01*
X139279708Y-112631859D01*
X139296224Y-112613756D01*
X139308890Y-112592780D01*
X139317221Y-112569735D01*
X139320896Y-112545508D01*
X139319773Y-112521029D01*
X139313897Y-112497240D01*
X139303493Y-112475054D01*
X139288960Y-112455325D01*
X139270857Y-112438809D01*
X139249881Y-112426143D01*
X139226836Y-112417812D01*
X139202609Y-112414137D01*
X139178130Y-112415260D01*
X139154341Y-112421136D01*
X139122596Y-112437838D01*
X138722593Y-112728457D01*
X138132927Y-111916851D01*
X138481223Y-111663799D01*
X138534522Y-111625075D01*
X138552839Y-111608798D01*
X138567629Y-111589260D01*
X138578323Y-111567213D01*
X138584510Y-111543502D01*
X138585953Y-111519041D01*
X138582595Y-111494767D01*
X138574567Y-111471616D01*
X138562176Y-111450475D01*
X138545899Y-111432158D01*
X138526361Y-111417368D01*
X138504314Y-111406674D01*
X138480603Y-111400487D01*
X138456142Y-111399044D01*
X138431868Y-111402402D01*
X138398549Y-111415695D01*
X137968820Y-111663799D01*
X137467220Y-110795001D01*
X137893535Y-110548868D01*
X137913453Y-110534595D01*
X137930204Y-110516710D01*
X137943144Y-110495901D01*
X137951776Y-110472967D01*
X137955767Y-110448790D01*
X137954966Y-110424299D01*
X137949401Y-110400435D01*
X137939288Y-110378115D01*
X137925015Y-110358197D01*
X137907130Y-110341446D01*
X137886321Y-110328506D01*
X137863387Y-110319874D01*
X137839210Y-110315883D01*
X137814719Y-110316684D01*
X137780195Y-110326422D01*
X137329325Y-110527162D01*
X136921286Y-109610693D01*
X137378502Y-109407127D01*
X137399803Y-109395014D01*
X137418332Y-109378978D01*
X137433376Y-109359636D01*
X137444358Y-109337730D01*
X137450855Y-109314103D01*
X137452617Y-109289662D01*
X137449578Y-109265347D01*
X137441853Y-109242092D01*
X137429740Y-109220791D01*
X137413704Y-109202262D01*
X137394362Y-109187218D01*
X137372456Y-109176236D01*
X137348829Y-109169739D01*
X137324388Y-109167977D01*
X137289033Y-109174052D01*
X137008056Y-109265347D01*
X136814645Y-109328190D01*
X136504639Y-108374090D01*
X136966467Y-108224033D01*
X136988918Y-108214213D01*
X137009021Y-108200202D01*
X137026005Y-108182538D01*
X137039216Y-108161900D01*
X137048147Y-108139081D01*
X137052455Y-108114958D01*
X137051974Y-108090459D01*
X137046722Y-108066524D01*
X137036902Y-108044073D01*
X137022891Y-108023970D01*
X137005227Y-108006986D01*
X136984589Y-107993775D01*
X136961770Y-107984844D01*
X136937647Y-107980536D01*
X136901851Y-107982883D01*
X136425219Y-108084194D01*
X136216642Y-107102915D01*
X136703479Y-106999435D01*
X136726833Y-106992016D01*
X136748291Y-106980183D01*
X136767028Y-106964391D01*
X136782324Y-106945247D01*
X136793591Y-106923487D01*
X136800397Y-106899946D01*
X136802479Y-106875531D01*
X136799758Y-106851178D01*
X136792339Y-106827824D01*
X136780506Y-106806366D01*
X136764714Y-106787629D01*
X136745570Y-106772333D01*
X136723810Y-106761066D01*
X136700269Y-106754260D01*
X136664424Y-106752852D01*
X136169151Y-106804907D01*
X136064288Y-105807202D01*
X136565571Y-105754515D01*
X136589573Y-105749577D01*
X136612150Y-105740052D01*
X136632435Y-105726305D01*
X136649648Y-105708865D01*
X136663128Y-105688402D01*
X136672357Y-105665702D01*
X136676981Y-105641638D01*
X136676820Y-105617134D01*
X136671882Y-105593132D01*
X136662357Y-105570555D01*
X136648610Y-105550270D01*
X136631170Y-105533057D01*
X136610707Y-105519577D01*
X136588007Y-105510348D01*
X136552505Y-105505200D01*
X136049500Y-105505200D01*
X136049500Y-104502000D01*
X136552496Y-104502000D01*
X136576882Y-104499598D01*
X136600331Y-104492485D01*
X136621942Y-104480934D01*
X136640884Y-104465388D01*
X136656430Y-104446446D01*
X136667981Y-104424835D01*
X136675094Y-104401386D01*
X136675247Y-104399828D01*
X137052700Y-104399828D01*
X137052700Y-105607373D01*
X137053385Y-105620439D01*
X137061993Y-105702339D01*
X137146062Y-106502200D01*
X137176181Y-106788769D01*
X137178228Y-106801692D01*
X137422153Y-107949265D01*
X137425539Y-107961903D01*
X137557845Y-108369101D01*
X137753317Y-108970701D01*
X137802157Y-109121017D01*
X137806846Y-109133232D01*
X137837755Y-109202654D01*
X137920269Y-109387984D01*
X138278161Y-110191820D01*
X138284101Y-110203478D01*
X138884474Y-111243356D01*
X138891600Y-111254329D01*
X139594625Y-112221960D01*
X139602859Y-112232128D01*
X140389579Y-113105869D01*
X140398831Y-113115121D01*
X141272572Y-113901841D01*
X141282740Y-113910075D01*
X142250371Y-114613100D01*
X142261344Y-114620226D01*
X143301222Y-115220599D01*
X143312880Y-115226539D01*
X143385577Y-115258906D01*
X144302046Y-115666945D01*
X144371468Y-115697854D01*
X144383683Y-115702543D01*
X144486516Y-115735955D01*
X144883870Y-115865063D01*
X145542797Y-116079161D01*
X145555435Y-116082547D01*
X146703008Y-116326472D01*
X146715931Y-116328519D01*
X146804656Y-116337844D01*
X147783273Y-116440701D01*
X147884261Y-116451315D01*
X147897327Y-116452000D01*
X149104872Y-116452000D01*
X149117938Y-116451315D01*
X150286270Y-116328518D01*
X150299193Y-116326471D01*
X151446765Y-116082547D01*
X151459403Y-116079161D01*
X152361441Y-115786072D01*
X152515684Y-115735955D01*
X152618513Y-115702544D01*
X152630728Y-115697855D01*
X153689323Y-115226537D01*
X153700981Y-115220597D01*
X154740852Y-114620228D01*
X154751825Y-114613102D01*
X155719459Y-113910075D01*
X155729627Y-113901841D01*
X156603368Y-113115121D01*
X156612620Y-113105869D01*
X157399345Y-112232123D01*
X157407579Y-112221955D01*
X157813104Y-111663798D01*
X158057667Y-111327185D01*
X158110600Y-111254329D01*
X158117726Y-111243356D01*
X158718095Y-110203485D01*
X158724035Y-110191827D01*
X159195356Y-109133224D01*
X159200045Y-109121009D01*
X159444356Y-108369099D01*
X159543461Y-108064084D01*
X159576659Y-107961912D01*
X159580045Y-107949274D01*
X159823971Y-106801692D01*
X159826018Y-106788769D01*
X159856138Y-106502200D01*
X159940206Y-105702339D01*
X159948815Y-105620430D01*
X159949500Y-105607364D01*
X159949500Y-104399837D01*
X159948815Y-104386771D01*
X159826017Y-103218430D01*
X159823970Y-103205507D01*
X159580045Y-102057926D01*
X159576659Y-102045288D01*
X159543461Y-101943116D01*
X159233455Y-100989016D01*
X159233456Y-100989016D01*
X159200047Y-100886195D01*
X159195358Y-100873980D01*
X159146885Y-100765107D01*
X158756405Y-99888078D01*
X158724033Y-99815369D01*
X158718093Y-99803711D01*
X158117728Y-98763848D01*
X158110602Y-98752875D01*
X157548260Y-97978877D01*
X157468001Y-97868410D01*
X157407579Y-97785246D01*
X157399345Y-97775078D01*
X156612620Y-96901332D01*
X156603368Y-96892080D01*
X155729622Y-96105355D01*
X155719454Y-96097121D01*
X155327144Y-95812091D01*
X154824684Y-95447033D01*
X154751825Y-95394098D01*
X154740852Y-95386972D01*
X153700989Y-94786607D01*
X153689331Y-94780667D01*
X153616622Y-94748295D01*
X152700153Y-94340256D01*
X152630720Y-94309342D01*
X152618505Y-94304653D01*
X152515684Y-94271244D01*
X152515684Y-94271245D01*
X151561584Y-93961239D01*
X151459412Y-93928041D01*
X151446774Y-93924655D01*
X150299193Y-93680730D01*
X150286270Y-93678683D01*
X149117929Y-93555885D01*
X149104863Y-93555200D01*
X147897336Y-93555200D01*
X147884270Y-93555885D01*
X147802361Y-93564494D01*
X146804656Y-93669357D01*
X146715931Y-93678682D01*
X146703008Y-93680729D01*
X145555426Y-93924655D01*
X145542788Y-93928041D01*
X145440616Y-93961239D01*
X144486516Y-94271245D01*
X144383691Y-94304655D01*
X144371476Y-94309344D01*
X143312873Y-94780665D01*
X143301215Y-94786605D01*
X142261344Y-95386974D01*
X142250371Y-95394100D01*
X142177515Y-95447033D01*
X141365909Y-96036699D01*
X141282745Y-96097121D01*
X141272577Y-96105355D01*
X140398831Y-96892080D01*
X140389579Y-96901332D01*
X139602859Y-97775073D01*
X139594625Y-97785241D01*
X138999770Y-98603989D01*
X138944533Y-98680016D01*
X138891598Y-98752875D01*
X138884472Y-98763848D01*
X138284103Y-99803719D01*
X138278163Y-99815377D01*
X137871411Y-100728955D01*
X137837755Y-100804547D01*
X137806845Y-100873972D01*
X137802156Y-100886187D01*
X137425539Y-102045297D01*
X137422153Y-102057935D01*
X137178229Y-103205507D01*
X137176182Y-103218430D01*
X137076487Y-104166958D01*
X137061993Y-104304862D01*
X137053385Y-104386762D01*
X137052700Y-104399828D01*
X136675247Y-104399828D01*
X136677496Y-104377000D01*
X136675094Y-104352614D01*
X136667981Y-104329165D01*
X136656430Y-104307554D01*
X136640884Y-104288612D01*
X136621942Y-104273066D01*
X136600331Y-104261515D01*
X136565562Y-104252685D01*
X136064288Y-104199999D01*
X136169151Y-103202294D01*
X136664434Y-103254350D01*
X136688938Y-103254511D01*
X136713002Y-103249887D01*
X136735702Y-103240658D01*
X136756165Y-103227178D01*
X136773605Y-103209965D01*
X136787352Y-103189680D01*
X136796878Y-103167103D01*
X136801815Y-103143101D01*
X136801976Y-103118597D01*
X136797352Y-103094533D01*
X136788123Y-103071833D01*
X136774643Y-103051370D01*
X136757430Y-103033930D01*
X136737145Y-103020183D01*
X136703489Y-103007767D01*
X136216642Y-102904285D01*
X136425219Y-101923006D01*
X136901851Y-102024317D01*
X136926204Y-102027038D01*
X136950619Y-102024956D01*
X136974160Y-102018150D01*
X136995920Y-102006883D01*
X137015064Y-101991587D01*
X137030856Y-101972850D01*
X137042689Y-101951392D01*
X137050108Y-101928038D01*
X137052829Y-101903685D01*
X137050747Y-101879270D01*
X137043941Y-101855729D01*
X137032674Y-101833969D01*
X137017378Y-101814825D01*
X136998641Y-101799033D01*
X136966467Y-101783167D01*
X136504639Y-101633110D01*
X136814645Y-100679010D01*
X137289025Y-100833145D01*
X137312960Y-100838397D01*
X137337459Y-100838878D01*
X137361582Y-100834570D01*
X137384401Y-100825639D01*
X137405039Y-100812428D01*
X137422703Y-100795444D01*
X137436714Y-100775341D01*
X137446534Y-100752890D01*
X137451786Y-100728955D01*
X137452267Y-100704456D01*
X137447959Y-100680333D01*
X137439028Y-100657514D01*
X137425817Y-100636876D01*
X137408833Y-100619212D01*
X137378497Y-100600072D01*
X136921286Y-100396508D01*
X137329325Y-99480039D01*
X137780201Y-99680782D01*
X137803456Y-99688507D01*
X137827771Y-99691546D01*
X137852212Y-99689784D01*
X137875839Y-99683287D01*
X137897745Y-99672305D01*
X137917087Y-99657261D01*
X137933123Y-99638732D01*
X137945236Y-99617431D01*
X137952961Y-99594176D01*
X137956000Y-99569861D01*
X137954238Y-99545420D01*
X137947741Y-99521793D01*
X137936759Y-99499887D01*
X137921715Y-99480545D01*
X137893543Y-99458336D01*
X137467220Y-99212199D01*
X137968820Y-98343401D01*
X138398543Y-98591501D01*
X138420863Y-98601614D01*
X138444727Y-98607179D01*
X138469218Y-98607980D01*
X138493395Y-98603989D01*
X138516329Y-98595357D01*
X138537138Y-98582417D01*
X138555023Y-98565666D01*
X138569296Y-98545748D01*
X138579409Y-98523428D01*
X138584974Y-98499564D01*
X138585775Y-98475073D01*
X138581784Y-98450896D01*
X138573152Y-98427962D01*
X138560212Y-98407153D01*
X138534516Y-98382121D01*
X138481224Y-98343402D01*
X138132927Y-98090350D01*
X138722593Y-97278744D01*
X139122597Y-97569364D01*
X139143735Y-97581753D01*
X139166886Y-97589781D01*
X139191159Y-97593139D01*
X139215621Y-97591696D01*
X139239332Y-97585509D01*
X139261379Y-97574815D01*
X139280917Y-97560025D01*
X139297194Y-97541708D01*
X139309585Y-97520567D01*
X139317613Y-97497416D01*
X139320971Y-97473143D01*
X139319528Y-97448681D01*
X139313341Y-97424970D01*
X139302647Y-97402923D01*
X139279708Y-97375342D01*
X138911420Y-97043733D01*
X139582693Y-96298210D01*
X139948998Y-96628033D01*
X139968727Y-96642566D01*
X139990913Y-96652970D01*
X140014702Y-96658846D01*
X140039181Y-96659969D01*
X140063408Y-96656294D01*
X140086453Y-96647963D01*
X140107430Y-96635297D01*
X140125532Y-96618781D01*
X140140065Y-96599052D01*
X140150469Y-96576866D01*
X140156345Y-96553077D01*
X140157468Y-96528598D01*
X140153793Y-96504371D01*
X140145462Y-96481326D01*
X140125532Y-96451499D01*
X139795709Y-96085194D01*
X140541232Y-95413921D01*
X140872845Y-95782214D01*
X140890947Y-95798730D01*
X140911924Y-95811396D01*
X140934969Y-95819727D01*
X140959196Y-95823402D01*
X140983675Y-95822279D01*
X141007464Y-95816403D01*
X141029650Y-95805999D01*
X141049379Y-95791466D01*
X141065895Y-95773364D01*
X141078561Y-95752387D01*
X141086892Y-95729342D01*
X141090567Y-95705115D01*
X141089444Y-95680636D01*
X141083568Y-95656847D01*
X141066865Y-95625100D01*
X140776243Y-95225093D01*
X141587849Y-94635427D01*
X141879625Y-95037022D01*
X141895902Y-95055339D01*
X141915440Y-95070129D01*
X141937487Y-95080823D01*
X141961198Y-95087010D01*
X141985659Y-95088453D01*
X142009933Y-95085095D01*
X142033084Y-95077067D01*
X142054225Y-95064676D01*
X142072542Y-95048399D01*
X142087332Y-95028861D01*
X142098026Y-95006814D01*
X142104213Y-94983103D01*
X142105656Y-94958642D01*
X142102298Y-94934368D01*
X142089005Y-94901049D01*
X141840901Y-94471320D01*
X142709699Y-93969720D01*
X142955830Y-94396032D01*
X142970103Y-94415950D01*
X142987988Y-94432701D01*
X143008797Y-94445641D01*
X143031731Y-94454273D01*
X143055908Y-94458264D01*
X143080399Y-94457463D01*
X143104263Y-94451898D01*
X143126583Y-94441785D01*
X143146501Y-94427512D01*
X143163252Y-94409627D01*
X143176192Y-94388818D01*
X143184824Y-94365884D01*
X143188815Y-94341707D01*
X143188014Y-94317216D01*
X143178276Y-94282690D01*
X142977538Y-93831826D01*
X143894007Y-93423787D01*
X144097571Y-93880998D01*
X144097574Y-93881006D01*
X144109687Y-93902307D01*
X144125723Y-93920836D01*
X144145065Y-93935880D01*
X144166971Y-93946862D01*
X144190598Y-93953359D01*
X144215039Y-93955121D01*
X144239354Y-93952082D01*
X144262609Y-93944357D01*
X144283910Y-93932244D01*
X144302439Y-93916208D01*
X144317483Y-93896866D01*
X144328465Y-93874960D01*
X144334962Y-93851333D01*
X144336724Y-93826892D01*
X144330649Y-93791537D01*
X144176510Y-93317145D01*
X145130610Y-93007139D01*
X145280667Y-93468965D01*
X145290487Y-93491416D01*
X145304498Y-93511519D01*
X145322162Y-93528503D01*
X145342800Y-93541714D01*
X145365619Y-93550645D01*
X145389742Y-93554953D01*
X145414241Y-93554472D01*
X145438176Y-93549220D01*
X145460627Y-93539400D01*
X145480730Y-93525389D01*
X145497714Y-93507725D01*
X145510925Y-93487087D01*
X145519856Y-93464268D01*
X145524164Y-93440145D01*
X145521817Y-93404349D01*
X145420506Y-92927720D01*
X146401785Y-92719143D01*
X146505265Y-93205980D01*
X146512684Y-93229334D01*
X146524517Y-93250792D01*
X146540309Y-93269529D01*
X146559453Y-93284825D01*
X146581213Y-93296092D01*
X146604754Y-93302898D01*
X146629169Y-93304980D01*
X146653522Y-93302259D01*
X146676876Y-93294840D01*
X146698334Y-93283007D01*
X146717071Y-93267215D01*
X146732367Y-93248071D01*
X146743634Y-93226311D01*
X146750440Y-93202770D01*
X146751848Y-93166925D01*
X146699793Y-92671652D01*
X147697498Y-92566789D01*
X147750185Y-93068072D01*
X147755123Y-93092074D01*
X147764648Y-93114651D01*
X147778395Y-93134936D01*
X147795835Y-93152149D01*
X147816298Y-93165629D01*
X147838998Y-93174858D01*
X147863062Y-93179482D01*
X147887566Y-93179321D01*
X147911568Y-93174383D01*
X147934145Y-93164858D01*
X147954430Y-93151111D01*
X147971643Y-93133671D01*
X147985123Y-93113208D01*
X147994352Y-93090508D01*
X147999500Y-93055006D01*
X147999500Y-92552000D01*
X149002700Y-92552000D01*
X149002700Y-93054997D01*
X149002700Y-93054997D01*
G37*
G36*
X149002700Y-116006260D02*
X147999500Y-116006260D01*
X147999500Y-115003060D01*
X149002700Y-115003060D01*
X149002700Y-116006260D01*
X149002700Y-116006260D01*
G37*
G36*
X154435558Y-114279678D02*
X153566760Y-114781278D01*
X153065160Y-113912480D01*
X153933958Y-113410880D01*
X154435558Y-114279678D01*
X154435558Y-114279678D01*
G37*
G36*
X143937039Y-113912480D02*
X143435439Y-114781278D01*
X142566641Y-114279678D01*
X143068241Y-113410880D01*
X143937039Y-113912480D01*
X143937039Y-113912480D01*
G37*
G36*
X149002700Y-114506260D02*
X147999500Y-114506260D01*
X147999500Y-113503060D01*
X149002700Y-113503060D01*
X149002700Y-114506260D01*
X149002700Y-114506260D01*
G37*
G36*
X153685558Y-112980640D02*
X152816760Y-113482240D01*
X152315160Y-112613442D01*
X153183958Y-112111842D01*
X153685558Y-112980640D01*
X153685558Y-112980640D01*
G37*
G36*
X143828919Y-112113088D02*
X143854807Y-112132953D01*
X144687039Y-112613442D01*
X144185439Y-113482240D01*
X143316641Y-112980640D01*
X143822228Y-112104936D01*
X143828919Y-112113088D01*
X143828919Y-112113088D01*
G37*
G36*
X144094200Y-111899700D02*
X143917307Y-111899700D01*
X143892921Y-111902102D01*
X143869472Y-111909215D01*
X143847861Y-111920766D01*
X143828919Y-111936312D01*
X143820957Y-111946014D01*
X143806633Y-111930720D01*
X143786715Y-111916447D01*
X143764395Y-111906334D01*
X143740531Y-111900769D01*
X143724215Y-111899700D01*
X142113000Y-111899700D01*
X142113000Y-109918500D01*
X144094200Y-109918500D01*
X144094200Y-111899700D01*
X144094200Y-111899700D01*
G37*
G36*
X140093820Y-110436459D02*
X139225022Y-110938059D01*
X138723422Y-110069261D01*
X139592220Y-109567661D01*
X140093820Y-110436459D01*
X140093820Y-110436459D01*
G37*
G36*
X158278777Y-110069261D02*
X157777177Y-110938059D01*
X156908379Y-110436459D01*
X157409979Y-109567661D01*
X158278777Y-110069261D01*
X158278777Y-110069261D01*
G37*
G36*
X141392858Y-109686459D02*
X140524060Y-110188059D01*
X140022460Y-109319261D01*
X140891258Y-108817661D01*
X141392858Y-109686459D01*
X141392858Y-109686459D01*
G37*
G36*
X156979739Y-109319261D02*
X156478139Y-110188059D01*
X155609341Y-109686459D01*
X156110941Y-108817661D01*
X156979739Y-109319261D01*
X156979739Y-109319261D01*
G37*
G36*
X142503547Y-107416568D02*
X142683824Y-107491241D01*
X142846074Y-107599653D01*
X142984047Y-107737626D01*
X143092459Y-107899876D01*
X143167132Y-108080153D01*
X143205200Y-108271533D01*
X143205200Y-108466667D01*
X143167132Y-108658047D01*
X143092459Y-108838324D01*
X142984047Y-109000574D01*
X142846074Y-109138547D01*
X142683824Y-109246959D01*
X142503547Y-109321632D01*
X142312167Y-109359700D01*
X142117033Y-109359700D01*
X141925653Y-109321632D01*
X141745376Y-109246959D01*
X141583126Y-109138547D01*
X141445153Y-109000574D01*
X141336741Y-108838324D01*
X141262068Y-108658047D01*
X141224000Y-108466667D01*
X141224000Y-108271533D01*
X141262068Y-108080153D01*
X141336741Y-107899876D01*
X141445153Y-107737626D01*
X141583126Y-107599653D01*
X141745376Y-107491241D01*
X141925653Y-107416568D01*
X142117033Y-107378500D01*
X142312167Y-107378500D01*
X142503547Y-107416568D01*
X142503547Y-107416568D01*
G37*
G36*
X151498300Y-101881400D02*
X151500702Y-101905786D01*
X151507815Y-101929235D01*
X151519366Y-101950846D01*
X151534912Y-101969788D01*
X151553854Y-101985334D01*
X151575465Y-101996885D01*
X151598914Y-102003998D01*
X151623300Y-102006400D01*
X152488900Y-102006400D01*
X152488900Y-108000800D01*
X151623300Y-108000800D01*
X151598914Y-108003202D01*
X151575465Y-108010315D01*
X151553854Y-108021866D01*
X151534912Y-108037412D01*
X151519366Y-108056354D01*
X151507815Y-108077965D01*
X151500702Y-108101414D01*
X151498300Y-108125800D01*
X151498300Y-108991400D01*
X145503900Y-108991400D01*
X145503900Y-108125800D01*
X145501498Y-108101414D01*
X145494385Y-108077965D01*
X145482834Y-108056354D01*
X145467288Y-108037412D01*
X145448346Y-108021866D01*
X145426735Y-108010315D01*
X145403286Y-108003202D01*
X145378900Y-108000800D01*
X144513300Y-108000800D01*
X144513300Y-102006400D01*
X145378900Y-102006400D01*
X145403286Y-102003998D01*
X145426735Y-101996885D01*
X145448346Y-101985334D01*
X145467288Y-101969788D01*
X145482834Y-101950846D01*
X145494385Y-101929235D01*
X145501498Y-101905786D01*
X145503900Y-101881400D01*
X145503900Y-101015800D01*
X151498300Y-101015800D01*
X151498300Y-101881400D01*
X151498300Y-101881400D01*
G37*
G36*
X143392547Y-104876568D02*
X143572824Y-104951241D01*
X143735074Y-105059653D01*
X143873047Y-105197626D01*
X143981459Y-105359876D01*
X144056132Y-105540153D01*
X144094200Y-105731533D01*
X144094200Y-105926667D01*
X144056132Y-106118047D01*
X143981459Y-106298324D01*
X143873047Y-106460574D01*
X143735074Y-106598547D01*
X143572824Y-106706959D01*
X143392547Y-106781632D01*
X143201167Y-106819700D01*
X143006033Y-106819700D01*
X142814653Y-106781632D01*
X142634376Y-106706959D01*
X142472126Y-106598547D01*
X142334153Y-106460574D01*
X142225741Y-106298324D01*
X142151068Y-106118047D01*
X142113000Y-105926667D01*
X142113000Y-105731533D01*
X142151068Y-105540153D01*
X142225741Y-105359876D01*
X142334153Y-105197626D01*
X142472126Y-105059653D01*
X142634376Y-104951241D01*
X142814653Y-104876568D01*
X143006033Y-104838500D01*
X143201167Y-104838500D01*
X143392547Y-104876568D01*
X143392547Y-104876568D01*
G37*
G36*
X138501640Y-105505200D02*
X137498440Y-105505200D01*
X137498440Y-104502000D01*
X138501640Y-104502000D01*
X138501640Y-105505200D01*
X138501640Y-105505200D01*
G37*
G36*
X158003759Y-105505200D02*
X157000559Y-105505200D01*
X157000559Y-104502000D01*
X158003759Y-104502000D01*
X158003759Y-105505200D01*
X158003759Y-105505200D01*
G37*
G36*
X159503759Y-105505200D02*
X158500559Y-105505200D01*
X158500559Y-104502000D01*
X159503759Y-104502000D01*
X159503759Y-105505200D01*
X159503759Y-105505200D01*
G37*
G36*
X140001640Y-105505200D02*
X138998440Y-105505200D01*
X138998440Y-104502000D01*
X140001640Y-104502000D01*
X140001640Y-105505200D01*
X140001640Y-105505200D01*
G37*
G36*
X142503547Y-102336568D02*
X142683824Y-102411241D01*
X142846074Y-102519653D01*
X142984047Y-102657626D01*
X143092459Y-102819876D01*
X143167132Y-103000153D01*
X143205200Y-103191533D01*
X143205200Y-103386667D01*
X143167132Y-103578047D01*
X143092459Y-103758324D01*
X142984047Y-103920574D01*
X142846074Y-104058547D01*
X142683824Y-104166959D01*
X142503547Y-104241632D01*
X142312167Y-104279700D01*
X142117033Y-104279700D01*
X141925653Y-104241632D01*
X141745376Y-104166959D01*
X141583126Y-104058547D01*
X141445153Y-103920574D01*
X141336741Y-103758324D01*
X141262068Y-103578047D01*
X141224000Y-103386667D01*
X141224000Y-103191533D01*
X141262068Y-103000153D01*
X141336741Y-102819876D01*
X141445153Y-102657626D01*
X141583126Y-102519653D01*
X141745376Y-102411241D01*
X141925653Y-102336568D01*
X142117033Y-102298500D01*
X142312167Y-102298500D01*
X142503547Y-102336568D01*
X142503547Y-102336568D01*
G37*
G36*
X143392547Y-99796568D02*
X143572824Y-99871241D01*
X143735074Y-99979653D01*
X143873047Y-100117626D01*
X143981459Y-100279876D01*
X144056132Y-100460153D01*
X144094200Y-100651533D01*
X144094200Y-100846667D01*
X144056132Y-101038047D01*
X143981459Y-101218324D01*
X143873047Y-101380574D01*
X143735074Y-101518547D01*
X143572824Y-101626959D01*
X143392547Y-101701632D01*
X143201167Y-101739700D01*
X143006033Y-101739700D01*
X142814653Y-101701632D01*
X142634376Y-101626959D01*
X142472126Y-101518547D01*
X142334153Y-101380574D01*
X142225741Y-101218324D01*
X142151068Y-101038047D01*
X142113000Y-100846667D01*
X142113000Y-100651533D01*
X142151068Y-100460153D01*
X142225741Y-100279876D01*
X142334153Y-100117626D01*
X142472126Y-99979653D01*
X142634376Y-99871241D01*
X142814653Y-99796568D01*
X143006033Y-99758500D01*
X143201167Y-99758500D01*
X143392547Y-99796568D01*
X143392547Y-99796568D01*
G37*
G36*
X154677200Y-101248200D02*
X153374000Y-101248200D01*
X153374000Y-100045000D01*
X154677200Y-100045000D01*
X154677200Y-101248200D01*
X154677200Y-101248200D01*
G37*
G36*
X156979739Y-100687940D02*
X156110941Y-101189540D01*
X155609341Y-100320742D01*
X156478139Y-99819142D01*
X156979739Y-100687940D01*
X156979739Y-100687940D01*
G37*
G36*
X141392858Y-100320742D02*
X140891258Y-101189540D01*
X140022460Y-100687940D01*
X140524060Y-99819142D01*
X141392858Y-100320742D01*
X141392858Y-100320742D01*
G37*
G36*
X140093820Y-99570742D02*
X139592220Y-100439540D01*
X138723422Y-99937940D01*
X139225022Y-99069142D01*
X140093820Y-99570742D01*
X140093820Y-99570742D01*
G37*
G36*
X158278777Y-99937940D02*
X157409979Y-100439540D01*
X156908379Y-99570742D01*
X157777177Y-99069142D01*
X158278777Y-99937940D01*
X158278777Y-99937940D01*
G37*
G36*
X147250200Y-99940200D02*
X146447000Y-99940200D01*
X146447000Y-98637000D01*
X147250200Y-98637000D01*
X147250200Y-99940200D01*
X147250200Y-99940200D01*
G37*
G36*
X148650200Y-99940200D02*
X147847000Y-99940200D01*
X147847000Y-98637000D01*
X148650200Y-98637000D01*
X148650200Y-99940200D01*
X148650200Y-99940200D01*
G37*
G36*
X152142700Y-99903700D02*
X151239500Y-99903700D01*
X151239500Y-98800500D01*
X152142700Y-98800500D01*
X152142700Y-99903700D01*
X152142700Y-99903700D01*
G37*
G36*
X150842700Y-99903700D02*
X149939500Y-99903700D01*
X149939500Y-98800500D01*
X150842700Y-98800500D01*
X150842700Y-99903700D01*
X150842700Y-99903700D01*
G37*
G36*
X154677200Y-99548200D02*
X153374000Y-99548200D01*
X153374000Y-98345000D01*
X154677200Y-98345000D01*
X154677200Y-99548200D01*
X154677200Y-99548200D01*
G37*
G36*
X142503547Y-97256568D02*
X142683824Y-97331241D01*
X142846074Y-97439653D01*
X142984047Y-97577626D01*
X143092459Y-97739876D01*
X143167132Y-97920153D01*
X143205200Y-98111533D01*
X143205200Y-98306667D01*
X143167132Y-98498047D01*
X143092459Y-98678324D01*
X142984047Y-98840574D01*
X142846074Y-98978547D01*
X142683824Y-99086959D01*
X142503547Y-99161632D01*
X142312167Y-99199700D01*
X142117033Y-99199700D01*
X141925653Y-99161632D01*
X141745376Y-99086959D01*
X141583126Y-98978547D01*
X141445153Y-98840574D01*
X141336741Y-98678324D01*
X141262068Y-98498047D01*
X141224000Y-98306667D01*
X141224000Y-98111533D01*
X141262068Y-97920153D01*
X141336741Y-97739876D01*
X141445153Y-97577626D01*
X141583126Y-97439653D01*
X141745376Y-97331241D01*
X141925653Y-97256568D01*
X142117033Y-97218500D01*
X142312167Y-97218500D01*
X142503547Y-97256568D01*
X142503547Y-97256568D01*
G37*
G36*
X153685558Y-97026561D02*
X153183958Y-97895359D01*
X152315160Y-97393759D01*
X152816760Y-96524961D01*
X153685558Y-97026561D01*
X153685558Y-97026561D01*
G37*
G36*
X144687039Y-97393759D02*
X143818241Y-97895359D01*
X143316641Y-97026561D01*
X144185439Y-96524961D01*
X144687039Y-97393759D01*
X144687039Y-97393759D01*
G37*
G36*
X154435558Y-95727523D02*
X153933958Y-96596321D01*
X153065160Y-96094721D01*
X153566760Y-95225923D01*
X154435558Y-95727523D01*
X154435558Y-95727523D01*
G37*
G36*
X143937039Y-96094721D02*
X143068241Y-96596321D01*
X142566641Y-95727523D01*
X143435439Y-95225923D01*
X143937039Y-96094721D01*
X143937039Y-96094721D01*
G37*
G36*
X149002700Y-96504141D02*
X147999500Y-96504141D01*
X147999500Y-95500941D01*
X149002700Y-95500941D01*
X149002700Y-96504141D01*
X149002700Y-96504141D01*
G37*
G36*
X149002700Y-95004141D02*
X147999500Y-95004141D01*
X147999500Y-94000941D01*
X149002700Y-94000941D01*
X149002700Y-95004141D01*
X149002700Y-95004141D01*
G37*
G36*
X155911299Y-116834918D02*
X155042501Y-117336518D01*
X154540901Y-116467720D01*
X155409699Y-115966120D01*
X155911299Y-116834918D01*
X155911299Y-116834918D01*
G37*
G36*
X142461299Y-116467720D02*
X141959699Y-117336518D01*
X141090901Y-116834918D01*
X141592501Y-115966120D01*
X142461299Y-116467720D01*
X142461299Y-116467720D01*
G37*
G36*
X141295837Y-115773693D02*
X140706171Y-116585299D01*
X139894565Y-115995633D01*
X140484231Y-115184027D01*
X141295837Y-115773693D01*
X141295837Y-115773693D01*
G37*
G36*
X157107634Y-115995633D02*
X156296028Y-116585299D01*
X155706362Y-115773693D01*
X156517968Y-115184027D01*
X157107634Y-115995633D01*
X157107634Y-115995633D01*
G37*
G36*
X140208809Y-114962475D02*
X139669400Y-115561548D01*
X139565504Y-115676937D01*
X139537536Y-115707998D01*
X138817826Y-115059967D01*
X138792014Y-115036726D01*
X138792013Y-115036725D01*
X139463286Y-114291202D01*
X140208809Y-114962475D01*
X140208809Y-114962475D01*
G37*
G36*
X158210186Y-115036725D02*
X158210185Y-115036726D01*
X158184373Y-115059967D01*
X157464663Y-115707998D01*
X157436696Y-115676937D01*
X157332799Y-115561548D01*
X156793390Y-114962475D01*
X157538913Y-114291202D01*
X158210186Y-115036725D01*
X158210186Y-115036725D01*
G37*
G36*
X159205497Y-113967164D02*
X158534224Y-114712687D01*
X157788701Y-114041414D01*
X158459974Y-113295891D01*
X159205497Y-113967164D01*
X159205497Y-113967164D01*
G37*
G36*
X139213498Y-114041414D02*
X138467975Y-114712687D01*
X137796702Y-113967164D01*
X138542225Y-113295891D01*
X139213498Y-114041414D01*
X139213498Y-114041414D01*
G37*
G36*
X160082799Y-112798529D02*
X159493133Y-113610135D01*
X158681527Y-113020469D01*
X159271193Y-112208863D01*
X160082799Y-112798529D01*
X160082799Y-112798529D01*
G37*
G36*
X138320673Y-113020469D02*
X137509067Y-113610135D01*
X136919401Y-112798529D01*
X137731007Y-112208863D01*
X138320673Y-113020469D01*
X138320673Y-113020469D01*
G37*
G36*
X137538580Y-111912199D02*
X136669782Y-112413799D01*
X136168182Y-111545001D01*
X137036980Y-111043401D01*
X137538580Y-111912199D01*
X137538580Y-111912199D01*
G37*
G36*
X160834018Y-111545001D02*
X160332418Y-112413799D01*
X159463620Y-111912199D01*
X159965220Y-111043401D01*
X160834018Y-111545001D01*
X160834018Y-111545001D01*
G37*
G36*
X161451231Y-110220797D02*
X161043192Y-111137266D01*
X160126723Y-110729227D01*
X160534762Y-109812758D01*
X161451231Y-110220797D01*
X161451231Y-110220797D01*
G37*
G36*
X136875476Y-110729227D02*
X135959007Y-111137266D01*
X135550968Y-110220797D01*
X136467437Y-109812758D01*
X136875476Y-110729227D01*
X136875476Y-110729227D01*
G37*
G36*
X161924145Y-108837616D02*
X161614139Y-109791716D01*
X160660039Y-109481710D01*
X160970045Y-108527610D01*
X161924145Y-108837616D01*
X161924145Y-108837616D01*
G37*
G36*
X136342161Y-109481710D02*
X135388061Y-109791716D01*
X135078055Y-108837616D01*
X136032155Y-108527610D01*
X136342161Y-109481710D01*
X136342161Y-109481710D01*
G37*
G36*
X135939276Y-108187485D02*
X134957997Y-108396062D01*
X134749420Y-107414783D01*
X135730699Y-107206206D01*
X135939276Y-108187485D01*
X135939276Y-108187485D01*
G37*
G36*
X162252779Y-107414783D02*
X162044202Y-108396062D01*
X161062923Y-108187485D01*
X161271500Y-107206206D01*
X162252779Y-107414783D01*
X162252779Y-107414783D01*
G37*
G36*
X162429693Y-105963994D02*
X162324830Y-106961699D01*
X161327125Y-106856836D01*
X161431988Y-105859131D01*
X162429693Y-105963994D01*
X162429693Y-105963994D01*
G37*
G36*
X135675074Y-106856836D02*
X134677369Y-106961699D01*
X134572506Y-105963994D01*
X135570211Y-105859131D01*
X135675074Y-106856836D01*
X135675074Y-106856836D01*
G37*
G36*
X135552700Y-105505200D02*
X134549500Y-105505200D01*
X134549500Y-104502000D01*
X135552700Y-104502000D01*
X135552700Y-105505200D01*
X135552700Y-105505200D01*
G37*
G36*
X162452700Y-105505200D02*
X161449500Y-105505200D01*
X161449500Y-104502000D01*
X162452700Y-104502000D01*
X162452700Y-105505200D01*
X162452700Y-105505200D01*
G37*
G36*
X135675074Y-103150365D02*
X135570211Y-104148070D01*
X134572506Y-104043207D01*
X134677369Y-103045502D01*
X135675074Y-103150365D01*
X135675074Y-103150365D01*
G37*
G36*
X162429693Y-104043207D02*
X161431988Y-104148070D01*
X161327125Y-103150365D01*
X162324830Y-103045502D01*
X162429693Y-104043207D01*
X162429693Y-104043207D01*
G37*
G36*
X135939276Y-101819715D02*
X135730699Y-102800994D01*
X134749420Y-102592417D01*
X134957997Y-101611138D01*
X135939276Y-101819715D01*
X135939276Y-101819715D01*
G37*
G36*
X162252779Y-102592417D02*
X161271500Y-102800994D01*
X161062923Y-101819715D01*
X162044202Y-101611138D01*
X162252779Y-102592417D01*
X162252779Y-102592417D01*
G37*
G36*
X161924145Y-101169584D02*
X160970045Y-101479590D01*
X160660039Y-100525490D01*
X161614139Y-100215484D01*
X161924145Y-101169584D01*
X161924145Y-101169584D01*
G37*
G36*
X136342161Y-100525490D02*
X136032155Y-101479590D01*
X135078055Y-101169584D01*
X135388061Y-100215484D01*
X136342161Y-100525490D01*
X136342161Y-100525490D01*
G37*
G36*
X136875476Y-99277974D02*
X136467437Y-100194443D01*
X135550968Y-99786404D01*
X135959007Y-98869935D01*
X136875476Y-99277974D01*
X136875476Y-99277974D01*
G37*
G36*
X161451231Y-99786404D02*
X160534762Y-100194443D01*
X160126723Y-99277974D01*
X161043192Y-98869935D01*
X161451231Y-99786404D01*
X161451231Y-99786404D01*
G37*
G36*
X160834018Y-98462199D02*
X159965220Y-98963799D01*
X159463620Y-98095001D01*
X160332418Y-97593401D01*
X160834018Y-98462199D01*
X160834018Y-98462199D01*
G37*
G36*
X137538580Y-98095001D02*
X137036980Y-98963799D01*
X136168182Y-98462199D01*
X136669782Y-97593401D01*
X137538580Y-98095001D01*
X137538580Y-98095001D01*
G37*
G36*
X138320673Y-96986732D02*
X137731007Y-97798338D01*
X136919401Y-97208672D01*
X137509067Y-96397066D01*
X138320673Y-96986732D01*
X138320673Y-96986732D01*
G37*
G36*
X160082799Y-97208672D02*
X159271193Y-97798338D01*
X158681527Y-96986732D01*
X159493133Y-96397066D01*
X160082799Y-97208672D01*
X160082799Y-97208672D01*
G37*
G36*
X139213498Y-95965787D02*
X138542225Y-96711310D01*
X137796702Y-96040037D01*
X138467975Y-95294514D01*
X139213498Y-95965787D01*
X139213498Y-95965787D01*
G37*
G36*
X159205497Y-96040037D02*
X158459974Y-96711310D01*
X157788701Y-95965787D01*
X158534224Y-95294514D01*
X159205497Y-96040037D01*
X159205497Y-96040037D01*
G37*
G36*
X140208809Y-95044726D02*
X139463286Y-95715999D01*
X138792013Y-94970476D01*
X139537536Y-94299203D01*
X140208809Y-95044726D01*
X140208809Y-95044726D01*
G37*
G36*
X158210186Y-94970476D02*
X157538913Y-95715999D01*
X156793390Y-95044726D01*
X157464663Y-94299203D01*
X158210186Y-94970476D01*
X158210186Y-94970476D01*
G37*
G36*
X157107634Y-94011567D02*
X156517968Y-94823173D01*
X155706362Y-94233507D01*
X156296028Y-93421901D01*
X157107634Y-94011567D01*
X157107634Y-94011567D01*
G37*
G36*
X141295837Y-94233507D02*
X140484231Y-94823173D01*
X139894565Y-94011567D01*
X140706171Y-93421901D01*
X141295837Y-94233507D01*
X141295837Y-94233507D01*
G37*
G36*
X155911299Y-93172282D02*
X155409699Y-94041080D01*
X154540901Y-93539480D01*
X155042501Y-92670682D01*
X155911299Y-93172282D01*
X155911299Y-93172282D01*
G37*
G36*
X142461299Y-93539480D02*
X141592501Y-94041080D01*
X141090901Y-93172282D01*
X141959699Y-92670682D01*
X142461299Y-93539480D01*
X142461299Y-93539480D01*
G37*
G36*
X143691942Y-92969938D02*
X142775473Y-93377977D01*
X142367434Y-92461508D01*
X143283903Y-92053469D01*
X143691942Y-92969938D01*
X143691942Y-92969938D01*
G37*
G36*
X154634765Y-92461508D02*
X154226726Y-93377977D01*
X153310257Y-92969938D01*
X153718296Y-92053469D01*
X154634765Y-92461508D01*
X154634765Y-92461508D01*
G37*
G36*
X153289216Y-91890561D02*
X152979210Y-92844661D01*
X152025110Y-92534655D01*
X152335116Y-91580555D01*
X153289216Y-91890561D01*
X153289216Y-91890561D01*
G37*
G36*
X144977090Y-92534655D02*
X144022990Y-92844661D01*
X143712984Y-91890561D01*
X144667084Y-91580555D01*
X144977090Y-92534655D01*
X144977090Y-92534655D01*
G37*
G36*
X146298494Y-92233200D02*
X145317215Y-92441777D01*
X145108638Y-91460498D01*
X146089917Y-91251921D01*
X146298494Y-92233200D01*
X146298494Y-92233200D01*
G37*
G36*
X151893562Y-91460498D02*
X151684985Y-92441777D01*
X150703706Y-92233200D01*
X150912283Y-91251921D01*
X151893562Y-91460498D01*
X151893562Y-91460498D01*
G37*
G36*
X147645569Y-92072712D02*
X146647864Y-92177575D01*
X146543001Y-91179870D01*
X147540706Y-91075007D01*
X147645569Y-92072712D01*
X147645569Y-92072712D01*
G37*
G36*
X150459198Y-91179870D02*
X150354335Y-92177575D01*
X149356630Y-92072712D01*
X149461493Y-91075007D01*
X150459198Y-91179870D01*
X150459198Y-91179870D01*
G37*
G36*
X149002700Y-92055200D02*
X147999500Y-92055200D01*
X147999500Y-91052000D01*
X149002700Y-91052000D01*
X149002700Y-92055200D01*
X149002700Y-92055200D01*
G37*
M02*
