G04 #@! TF.GenerationSoftware,KiCad,Pcbnew,5.0.2-bee76a0~70~ubuntu18.04.1*
G04 #@! TF.CreationDate,2019-09-23T19:43:07+01:00*
G04 #@! TF.ProjectId,charliewatch-norf-routed,63686172-6c69-4657-9761-7463682d6e6f,rev?*
G04 #@! TF.SameCoordinates,Original*
G04 #@! TF.FileFunction,Copper,L2,Bot*
G04 #@! TF.FilePolarity,Positive*
%FSLAX46Y46*%
G04 Gerber Fmt 4.6, Leading zero omitted, Abs format (unit mm)*
G04 Created by KiCad (PCBNEW 5.0.2-bee76a0~70~ubuntu18.04.1) date Mon 23 Sep 2019 19:43:07 BST*
%MOMM*%
%LPD*%
G01*
G04 APERTURE LIST*
G04 #@! TA.AperFunction,ComponentPad*
%ADD10R,1.778000X1.778000*%
G04 #@! TD*
G04 #@! TA.AperFunction,ComponentPad*
%ADD11C,1.778000*%
G04 #@! TD*
G04 #@! TA.AperFunction,SMDPad,CuDef*
%ADD12C,5.080000*%
G04 #@! TD*
G04 #@! TA.AperFunction,Conductor*
%ADD13C,0.100000*%
G04 #@! TD*
G04 #@! TA.AperFunction,SMDPad,CuDef*
%ADD14C,4.064000*%
G04 #@! TD*
G04 #@! TA.AperFunction,SMDPad,CuDef*
%ADD15R,2.000000X1.100000*%
G04 #@! TD*
G04 #@! TA.AperFunction,ViaPad*
%ADD16C,0.457200*%
G04 #@! TD*
G04 #@! TA.AperFunction,Conductor*
%ADD17C,0.254000*%
G04 #@! TD*
G04 #@! TA.AperFunction,Conductor*
%ADD18C,0.812800*%
G04 #@! TD*
G04 APERTURE END LIST*
D10*
G04 #@! TO.P,JP1,1*
G04 #@! TO.N,GND*
X143103600Y-110909100D03*
D11*
G04 #@! TO.P,JP1,2*
G04 #@! TO.N,BSL_VCC*
X142214600Y-108369100D03*
G04 #@! TO.P,JP1,3*
G04 #@! TO.N,BSL_RX*
X143103600Y-105829100D03*
G04 #@! TO.P,JP1,4*
G04 #@! TO.N,BSL_TX*
X142214600Y-103289100D03*
G04 #@! TO.P,JP1,5*
G04 #@! TO.N,BSL_TEST*
X143103600Y-100749100D03*
G04 #@! TO.P,JP1,6*
G04 #@! TO.N,BSL_RST*
X142214600Y-98209100D03*
G04 #@! TD*
D12*
G04 #@! TO.P,U$1,+$2*
G04 #@! TO.N,N/C*
X139520844Y-113983856D03*
D13*
G04 #@! TD*
G04 #@! TO.N,N/C*
G04 #@! TO.C,U$1*
G36*
X139520844Y-110391754D02*
X143112946Y-113983856D01*
X139520844Y-117575958D01*
X135928742Y-113983856D01*
X139520844Y-110391754D01*
X139520844Y-110391754D01*
G37*
D12*
G04 #@! TO.P,U$1,+$1*
G04 #@! TO.N,VCC*
X157481356Y-96023344D03*
D13*
G04 #@! TD*
G04 #@! TO.N,VCC*
G04 #@! TO.C,U$1*
G36*
X157481356Y-92431242D02*
X161073458Y-96023344D01*
X157481356Y-99615446D01*
X153889254Y-96023344D01*
X157481356Y-92431242D01*
X157481356Y-92431242D01*
G37*
D14*
G04 #@! TO.P,U$1,-*
G04 #@! TO.N,GND*
X148501100Y-105003600D03*
D13*
G04 #@! TD*
G04 #@! TO.N,GND*
G04 #@! TO.C,U$1*
G36*
X148501100Y-102129918D02*
X151374782Y-105003600D01*
X148501100Y-107877282D01*
X145627418Y-105003600D01*
X148501100Y-102129918D01*
X148501100Y-102129918D01*
G37*
D15*
G04 #@! TO.P,S2,2*
G04 #@! TO.N,BUTTON*
X161264600Y-106953600D03*
G04 #@! TO.P,S2,1*
G04 #@! TO.N,GND*
X161264600Y-103053600D03*
G04 #@! TD*
D16*
G04 #@! TO.N,B3*
X154851100Y-117068600D03*
X152768300Y-94945200D03*
X150482300Y-92532200D03*
X140754100Y-97002600D03*
X160743900Y-108381800D03*
X159245300Y-101930200D03*
X148247100Y-109804200D03*
X144157700Y-115316000D03*
X139128500Y-107670600D03*
X143979900Y-109575600D03*
X146265900Y-111861600D03*
G04 #@! TO.N,B2*
X160566100Y-111036100D03*
X158508700Y-110083600D03*
X156806900Y-112344200D03*
X151853900Y-117322600D03*
X151523700Y-96164400D03*
X157492700Y-100736400D03*
X138188700Y-100660200D03*
X139611100Y-100660200D03*
X141820900Y-99568000D03*
X157670500Y-106705400D03*
G04 #@! TO.N,B1*
X160566100Y-98971100D03*
X146748500Y-116103400D03*
X149618700Y-116103400D03*
X150710900Y-110769400D03*
X149567900Y-95529400D03*
X138341100Y-102209600D03*
X140093700Y-102209600D03*
X143497300Y-98577400D03*
X156806900Y-105892600D03*
G04 #@! TO.N,B0*
X151993600Y-91986100D03*
X137274300Y-104419400D03*
X141795500Y-110058200D03*
X147256500Y-109626400D03*
X149745700Y-109245400D03*
X149263100Y-115544600D03*
X155689300Y-98399600D03*
G04 #@! TO.N,B4*
X142468600Y-117068600D03*
X150329900Y-93954600D03*
X146646900Y-93954600D03*
X138137900Y-107365800D03*
X139077700Y-98882200D03*
X140271500Y-98171000D03*
X158762700Y-107594400D03*
X158762700Y-100787200D03*
X151244300Y-115595400D03*
X144818100Y-108483400D03*
G04 #@! TO.N,B8*
X152717500Y-98602800D03*
X156705300Y-104775000D03*
X145478500Y-99085400D03*
X151345900Y-98044000D03*
X146291300Y-112725200D03*
X149364700Y-110921800D03*
G04 #@! TO.N,B7*
X150228300Y-96012000D03*
X151980900Y-97180400D03*
X156222700Y-101422200D03*
X152793700Y-97993200D03*
X157162500Y-106375200D03*
X144894300Y-98983800D03*
X146773900Y-110109000D03*
G04 #@! TO.N,B6*
X138976100Y-95478600D03*
X157899100Y-111125000D03*
X154546300Y-113919000D03*
X142735300Y-93751400D03*
X143421100Y-115011200D03*
X138493500Y-110083600D03*
X144259300Y-102743000D03*
X139890500Y-107061000D03*
X137121900Y-99288600D03*
X150609300Y-94513400D03*
X144614900Y-94513400D03*
G04 #@! TO.N,B5*
X134848600Y-105638600D03*
X138696700Y-97028000D03*
X143954500Y-93218000D03*
X151726900Y-92760800D03*
X143243300Y-102514400D03*
X142760700Y-116255800D03*
X144741900Y-114935000D03*
X153174700Y-114630200D03*
X158153100Y-109601000D03*
X158178500Y-100863400D03*
X158178500Y-107950000D03*
X149847300Y-114198400D03*
X155943300Y-102514400D03*
X158178500Y-102514400D03*
G04 #@! TO.N,GND*
X148501100Y-105003600D03*
X147866100Y-106908600D03*
X150088600Y-105956100D03*
X149136100Y-103098600D03*
X146596100Y-104368600D03*
X152844500Y-96113600D03*
X150863300Y-97510600D03*
X147586700Y-98577400D03*
G04 #@! TO.N,VCC*
X156184600Y-97066100D03*
G04 #@! TO.N,BSL_RST*
X149745700Y-100050600D03*
X144538700Y-100050600D03*
X143827500Y-99085400D03*
G04 #@! TO.N,BSL_TEST*
X150253700Y-100761800D03*
G04 #@! TO.N,BUTTON*
X144259300Y-103759000D03*
X156222700Y-103479600D03*
X159727900Y-104419400D03*
G04 #@! TD*
D17*
G04 #@! TO.N,B3*
X152768300Y-94818200D02*
X152768300Y-94945200D01*
X150482300Y-92532200D02*
X152768300Y-94818200D01*
X145249900Y-92608400D02*
X150380700Y-92608400D01*
X140855700Y-97002600D02*
X145249900Y-92608400D01*
X140754100Y-97002600D02*
X140855700Y-97002600D01*
X150380700Y-92608400D02*
X150482300Y-92532200D01*
X160743900Y-110515400D02*
X160743900Y-108381800D01*
X161048700Y-110820200D02*
X160743900Y-110515400D01*
X161048700Y-111252000D02*
X161048700Y-110820200D01*
X155232100Y-117068600D02*
X161048700Y-111252000D01*
X154851100Y-117068600D02*
X155232100Y-117068600D01*
X159245300Y-106857800D02*
X159245300Y-101930200D01*
X160667700Y-108280200D02*
X159245300Y-106857800D01*
X160667700Y-108280200D02*
X160743900Y-108381800D01*
X148247100Y-110083600D02*
X148247100Y-109804200D01*
X144157700Y-114173000D02*
X146380200Y-111950500D01*
X146380200Y-111950500D02*
X148247100Y-110083600D01*
X144157700Y-115316000D02*
X144157700Y-114173000D01*
X139255500Y-107670600D02*
X139128500Y-107670600D01*
X141160500Y-109575600D02*
X139255500Y-107670600D01*
X143979900Y-109575600D02*
X141160500Y-109575600D01*
X146291300Y-111861600D02*
X146265900Y-111861600D01*
X146291300Y-111861600D02*
X146380200Y-111950500D01*
G04 #@! TO.N,B2*
X159626300Y-110083600D02*
X158508700Y-110083600D01*
X160566100Y-111023400D02*
X159626300Y-110083600D01*
X160566100Y-111023400D02*
X160566100Y-111036100D01*
X157365700Y-112344200D02*
X156806900Y-112344200D01*
X158432500Y-111277400D02*
X157365700Y-112344200D01*
X158432500Y-110185200D02*
X158432500Y-111277400D01*
X158432500Y-110185200D02*
X158508700Y-110083600D01*
X156730700Y-112445800D02*
X151853900Y-117322600D01*
X156730700Y-112445800D02*
X156806900Y-112344200D01*
X151650700Y-96164400D02*
X151523700Y-96164400D01*
X156222700Y-100736400D02*
X152781000Y-97294700D01*
X152781000Y-97294700D02*
X151650700Y-96164400D01*
X157492700Y-100736400D02*
X156222700Y-100736400D01*
X139611100Y-100660200D02*
X138188700Y-100660200D01*
X150507700Y-99568000D02*
X141820900Y-99568000D01*
X152781000Y-97294700D02*
X150507700Y-99568000D01*
X157670500Y-100939600D02*
X157670500Y-106705400D01*
X157568900Y-100838000D02*
X157670500Y-100939600D01*
X157568900Y-100838000D02*
X157492700Y-100736400D01*
G04 #@! TO.N,B1*
X149618700Y-116103400D02*
X146748500Y-116103400D01*
X150710900Y-114985800D02*
X150710900Y-110769400D01*
X149694900Y-116001800D02*
X150710900Y-114985800D01*
X149694900Y-116001800D02*
X149618700Y-116103400D01*
X151574500Y-95529400D02*
X149567900Y-95529400D01*
X156298900Y-100253800D02*
X151574500Y-95529400D01*
X159296100Y-100253800D02*
X156298900Y-100253800D01*
X160566100Y-98983800D02*
X159296100Y-100253800D01*
X160566100Y-98983800D02*
X160566100Y-98971100D01*
X140093700Y-102209600D02*
X138341100Y-102209600D01*
X144614900Y-98577400D02*
X143497300Y-98577400D01*
X147586700Y-95605600D02*
X144614900Y-98577400D01*
X149466300Y-95605600D02*
X147586700Y-95605600D01*
X149466300Y-95605600D02*
X149567900Y-95529400D01*
X152006300Y-110693200D02*
X150812500Y-110693200D01*
X156806900Y-105892600D02*
X152006300Y-110693200D01*
X150812500Y-110693200D02*
X150710900Y-110769400D01*
G04 #@! TO.N,B0*
X137274300Y-107188000D02*
X137274300Y-104419400D01*
X140144500Y-110058200D02*
X137274300Y-107188000D01*
X141795500Y-110058200D02*
X140144500Y-110058200D01*
X147739100Y-109626400D02*
X147256500Y-109626400D01*
X148120100Y-109245400D02*
X147739100Y-109626400D01*
X149745700Y-109245400D02*
X148120100Y-109245400D01*
X149263100Y-115468400D02*
X149263100Y-115544600D01*
X150329900Y-114401600D02*
X149263100Y-115468400D01*
X150329900Y-111074200D02*
X150329900Y-114401600D01*
X149821900Y-110566200D02*
X150329900Y-111074200D01*
X149821900Y-109347000D02*
X149821900Y-110566200D01*
X149821900Y-109347000D02*
X149745700Y-109245400D01*
X152006300Y-92354400D02*
X152006300Y-91998800D01*
X153631900Y-93980000D02*
X152006300Y-92354400D01*
X153631900Y-96342200D02*
X153631900Y-93980000D01*
X155689300Y-98399600D02*
X153631900Y-96342200D01*
X152006300Y-91998800D02*
X151993600Y-91986100D01*
G04 #@! TO.N,B4*
X146646900Y-93954600D02*
X150329900Y-93954600D01*
X138137900Y-102743000D02*
X138137900Y-107365800D01*
X137706100Y-102311200D02*
X138137900Y-102743000D01*
X137706100Y-100253800D02*
X137706100Y-102311200D01*
X139077700Y-98882200D02*
X137706100Y-100253800D01*
X144411700Y-94030800D02*
X146545300Y-94030800D01*
X140271500Y-98171000D02*
X144411700Y-94030800D01*
X146545300Y-94030800D02*
X146646900Y-93954600D01*
X158762700Y-100787200D02*
X158762700Y-107594400D01*
X158686500Y-108153200D02*
X158686500Y-107696000D01*
X151244300Y-115595400D02*
X158686500Y-108153200D01*
X158686500Y-107696000D02*
X158762700Y-107594400D01*
X149745700Y-117068600D02*
X142468600Y-117068600D01*
X151142700Y-115671600D02*
X149745700Y-117068600D01*
X151142700Y-115671600D02*
X151244300Y-115595400D01*
X139331700Y-107188000D02*
X138239500Y-107188000D01*
X139687300Y-107543600D02*
X139331700Y-107188000D01*
X141414500Y-107543600D02*
X139687300Y-107543600D01*
X141744700Y-107213400D02*
X141414500Y-107543600D01*
X143548100Y-107213400D02*
X141744700Y-107213400D01*
X144818100Y-108483400D02*
X143548100Y-107213400D01*
X138239500Y-107188000D02*
X138137900Y-107365800D01*
G04 #@! TO.N,B8*
X156705300Y-102590600D02*
X152717500Y-98602800D01*
X156705300Y-104775000D02*
X156705300Y-102590600D01*
X150304500Y-99085400D02*
X145478500Y-99085400D01*
X151345900Y-98044000D02*
X150304500Y-99085400D01*
X147561300Y-112725200D02*
X146291300Y-112725200D01*
X149364700Y-110921800D02*
X147561300Y-112725200D01*
G04 #@! TO.N,B7*
X151396700Y-97180400D02*
X150228300Y-96012000D01*
X151980900Y-97180400D02*
X151396700Y-97180400D01*
X152793700Y-97993200D02*
X156222700Y-101422200D01*
X157162500Y-106222800D02*
X157162500Y-106375200D01*
X157289500Y-106095800D02*
X157162500Y-106222800D01*
X157289500Y-102514400D02*
X157289500Y-105257600D01*
X157289500Y-105257600D02*
X157289500Y-106095800D01*
X156298900Y-101523800D02*
X157289500Y-102514400D01*
X156298900Y-101523800D02*
X156222700Y-101422200D01*
X147789900Y-96088200D02*
X144894300Y-98983800D01*
X150126700Y-96088200D02*
X147789900Y-96088200D01*
X150126700Y-96088200D02*
X150228300Y-96012000D01*
X146773900Y-109423200D02*
X146773900Y-110109000D01*
X148043900Y-108153200D02*
X146773900Y-109423200D01*
X150609300Y-108153200D02*
X148043900Y-108153200D01*
X154952700Y-103809800D02*
X150609300Y-108153200D01*
X155359100Y-103809800D02*
X154952700Y-103809800D01*
X156222700Y-104673400D02*
X155359100Y-103809800D01*
X156222700Y-104978200D02*
X156222700Y-104673400D01*
X156502100Y-105257600D02*
X156222700Y-104978200D01*
X157289500Y-105257600D02*
X156502100Y-105257600D01*
G04 #@! TO.N,B6*
X157340300Y-111125000D02*
X157899100Y-111125000D01*
X154546300Y-113919000D02*
X157340300Y-111125000D01*
X140703300Y-93751400D02*
X142735300Y-93751400D01*
X138976100Y-95478600D02*
X140703300Y-93751400D01*
X143421100Y-113919000D02*
X143421100Y-115011200D01*
X139585700Y-110083600D02*
X143421100Y-113919000D01*
X138493500Y-110083600D02*
X139585700Y-110083600D01*
X144259300Y-102870000D02*
X144259300Y-102743000D01*
X140068300Y-107061000D02*
X144259300Y-102870000D01*
X139890500Y-107061000D02*
X140068300Y-107061000D01*
X137121900Y-103886000D02*
X137121900Y-99288600D01*
X136791700Y-104216200D02*
X137121900Y-103886000D01*
X136791700Y-108356400D02*
X136791700Y-104216200D01*
X138417300Y-109982000D02*
X136791700Y-108356400D01*
X138417300Y-109982000D02*
X138493500Y-110083600D01*
X144614900Y-94513400D02*
X150609300Y-94513400D01*
X150939500Y-117551200D02*
X154470100Y-114020600D01*
X142252700Y-117551200D02*
X150939500Y-117551200D01*
X141973300Y-117271800D02*
X142252700Y-117551200D01*
X141973300Y-116357400D02*
X141973300Y-117271800D01*
X143319500Y-115011200D02*
X141973300Y-116357400D01*
X154470100Y-114020600D02*
X154546300Y-113919000D01*
X143319500Y-115011200D02*
X143421100Y-115011200D01*
G04 #@! TO.N,B5*
X135242300Y-100482400D02*
X138696700Y-97028000D01*
X135242300Y-105257600D02*
X135242300Y-100482400D01*
X134861300Y-105638600D02*
X135242300Y-105257600D01*
X134861300Y-105638600D02*
X134848600Y-105638600D01*
X140652500Y-96520000D02*
X143954500Y-93218000D01*
X139230100Y-96520000D02*
X139788900Y-96520000D01*
X139788900Y-96520000D02*
X140652500Y-96520000D01*
X138798300Y-96951800D02*
X139230100Y-96520000D01*
X138798300Y-96951800D02*
X138696700Y-97028000D01*
X151396700Y-92760800D02*
X151726900Y-92760800D01*
X150685500Y-92049600D02*
X151396700Y-92760800D01*
X145148300Y-92049600D02*
X150685500Y-92049600D01*
X144056100Y-93141800D02*
X145148300Y-92049600D01*
X144056100Y-93141800D02*
X143954500Y-93218000D01*
X139788900Y-99060000D02*
X143243300Y-102514400D01*
X139788900Y-96520000D02*
X139788900Y-99060000D01*
X143979900Y-116255800D02*
X142760700Y-116255800D01*
X144741900Y-115493800D02*
X143979900Y-116255800D01*
X144741900Y-114935000D02*
X144741900Y-115493800D01*
X153174700Y-114579400D02*
X153174700Y-114630200D01*
X158153100Y-109601000D02*
X153174700Y-114579400D01*
X158178500Y-107950000D02*
X158178500Y-102514400D01*
X158178500Y-102514400D02*
X158178500Y-100863400D01*
X149186900Y-114858800D02*
X144843500Y-114858800D01*
X149847300Y-114198400D02*
X149186900Y-114858800D01*
X144843500Y-114858800D02*
X144741900Y-114935000D01*
X143878300Y-102438200D02*
X143344900Y-102438200D01*
X144843500Y-101473000D02*
X143878300Y-102438200D01*
X154901900Y-101473000D02*
X144843500Y-101473000D01*
X155943300Y-102514400D02*
X154901900Y-101473000D01*
X143344900Y-102438200D02*
X143243300Y-102514400D01*
D18*
G04 #@! TO.N,GND*
X143040100Y-110909100D02*
X143865600Y-110972600D01*
X143865600Y-110972600D02*
X148501100Y-105003600D01*
D17*
X143116300Y-110921800D02*
X143040100Y-110909100D01*
X143116300Y-110921800D02*
X143103600Y-110909100D01*
X161251900Y-99237800D02*
X161251900Y-103047800D01*
X161048700Y-99034600D02*
X161251900Y-99237800D01*
X161048700Y-98755200D02*
X161048700Y-99034600D01*
X160769300Y-98475800D02*
X161048700Y-98755200D01*
X158991300Y-98475800D02*
X160769300Y-98475800D01*
X157594300Y-99872800D02*
X158991300Y-98475800D01*
X156476700Y-99872800D02*
X157594300Y-99872800D01*
X152844500Y-96240600D02*
X156476700Y-99872800D01*
X152844500Y-96113600D02*
X152844500Y-96240600D01*
X148653500Y-97510600D02*
X150863300Y-97510600D01*
X147586700Y-98577400D02*
X148653500Y-97510600D01*
X161251900Y-103047800D02*
X161264600Y-103053600D01*
G04 #@! TO.N,VCC*
X156451300Y-97053400D02*
X156197300Y-97053400D01*
X157467300Y-96037400D02*
X156451300Y-97053400D01*
X156197300Y-97053400D02*
X156184600Y-97066100D01*
X157467300Y-96037400D02*
X157481356Y-96023347D01*
G04 #@! TO.N,BSL_RST*
X144538700Y-100050600D02*
X149745700Y-100050600D01*
X143090900Y-99085400D02*
X143827500Y-99085400D01*
X142214600Y-98209100D02*
X143090900Y-99085400D01*
G04 #@! TO.N,BSL_TEST*
X143116300Y-100761800D02*
X150253700Y-100761800D01*
X143116300Y-100761800D02*
X143103600Y-100749100D01*
G04 #@! TO.N,BUTTON*
X146494500Y-103759000D02*
X144259300Y-103759000D01*
X148399500Y-101854000D02*
X146494500Y-103759000D01*
X154597100Y-101854000D02*
X148399500Y-101854000D01*
X156222700Y-103479600D02*
X154597100Y-101854000D01*
X159727900Y-105410000D02*
X159727900Y-104419400D01*
X161251900Y-106934000D02*
X159727900Y-105410000D01*
X161251900Y-106934000D02*
X161264600Y-106953600D01*
G04 #@! TD*
M02*
