G04 #@! TF.GenerationSoftware,KiCad,Pcbnew,5.0.2-bee76a0~70~ubuntu18.04.1*
G04 #@! TF.CreationDate,2019-09-23T19:43:07+01:00*
G04 #@! TF.ProjectId,charliewatch-norf-routed,63686172-6c69-4657-9761-7463682d6e6f,rev?*
G04 #@! TF.SameCoordinates,Original*
G04 #@! TF.FileFunction,Paste,Top*
G04 #@! TF.FilePolarity,Positive*
%FSLAX46Y46*%
G04 Gerber Fmt 4.6, Leading zero omitted, Abs format (unit mm)*
G04 Created by KiCad (PCBNEW 5.0.2-bee76a0~70~ubuntu18.04.1) date Mon 23 Sep 2019 19:43:07 BST*
%MOMM*%
%LPD*%
G01*
G04 APERTURE LIST*
%ADD10C,0.800000*%
%ADD11C,0.100000*%
%ADD12R,0.800000X0.800000*%
%ADD13R,0.600000X1.100000*%
%ADD14R,5.588000X5.588000*%
%ADD15R,0.304800X0.812800*%
%ADD16R,0.812800X0.304800*%
%ADD17R,0.700000X0.900000*%
%ADD18R,1.100000X1.000000*%
G04 APERTURE END LIST*
D10*
G04 #@! TO.C,LED0*
X147094285Y-91626291D03*
D11*
G36*
X147450282Y-91186671D02*
X147533905Y-91982288D01*
X146738288Y-92065911D01*
X146654665Y-91270294D01*
X147450282Y-91186671D01*
X147450282Y-91186671D01*
G37*
D10*
X147251077Y-93118073D03*
D11*
G36*
X147607074Y-92678453D02*
X147690697Y-93474070D01*
X146895080Y-93557693D01*
X146811457Y-92762076D01*
X147607074Y-92678453D01*
X147607074Y-92678453D01*
G37*
G04 #@! TD*
D12*
G04 #@! TO.C,LED1*
X148501100Y-91553600D03*
X148501100Y-93053600D03*
G04 #@! TD*
D10*
G04 #@! TO.C,LED25*
X149907914Y-118380910D03*
D11*
G36*
X149551917Y-118820530D02*
X149468294Y-118024913D01*
X150263911Y-117941290D01*
X150347534Y-118736907D01*
X149551917Y-118820530D01*
X149551917Y-118820530D01*
G37*
D10*
X149751122Y-116889128D03*
D11*
G36*
X149395125Y-117328748D02*
X149311502Y-116533131D01*
X150107119Y-116449508D01*
X150190742Y-117245125D01*
X149395125Y-117328748D01*
X149395125Y-117328748D01*
G37*
G04 #@! TD*
D10*
G04 #@! TO.C,LED26*
X151298634Y-118160352D03*
D11*
G36*
X150990540Y-118634776D02*
X150824210Y-117852258D01*
X151606728Y-117685928D01*
X151773058Y-118468446D01*
X150990540Y-118634776D01*
X150990540Y-118634776D01*
G37*
D10*
X150986766Y-116693130D03*
D11*
G36*
X150678672Y-117167554D02*
X150512342Y-116385036D01*
X151294860Y-116218706D01*
X151461190Y-117001224D01*
X150678672Y-117167554D01*
X150678672Y-117167554D01*
G37*
G04 #@! TD*
D10*
G04 #@! TO.C,LED3*
X151298634Y-91846849D03*
D11*
G36*
X151773058Y-91538755D02*
X151606728Y-92321273D01*
X150824210Y-92154943D01*
X150990540Y-91372425D01*
X151773058Y-91538755D01*
X151773058Y-91538755D01*
G37*
D10*
X150986766Y-93314071D03*
D11*
G36*
X151461190Y-93005977D02*
X151294860Y-93788495D01*
X150512342Y-93622165D01*
X150678672Y-92839647D01*
X151461190Y-93005977D01*
X151461190Y-93005977D01*
G37*
G04 #@! TD*
D10*
G04 #@! TO.C,LED11*
X160788977Y-99532189D03*
D11*
G36*
X161317090Y-99734913D02*
X160586253Y-100060302D01*
X160260864Y-99329465D01*
X160991701Y-99004076D01*
X161317090Y-99734913D01*
X161317090Y-99734913D01*
G37*
D10*
X159418659Y-100142293D03*
D11*
G36*
X159946772Y-100345017D02*
X159215935Y-100670406D01*
X158890546Y-99939569D01*
X159621383Y-99614180D01*
X159946772Y-100345017D01*
X159946772Y-100345017D01*
G37*
G04 #@! TD*
D10*
G04 #@! TO.C,LED19*
X161292092Y-109159663D03*
D11*
G36*
X161548908Y-109663692D02*
X160788063Y-109416479D01*
X161035276Y-108655634D01*
X161796121Y-108902847D01*
X161548908Y-109663692D01*
X161548908Y-109663692D01*
G37*
D10*
X159865508Y-108696137D03*
D11*
G36*
X160122324Y-109200166D02*
X159361479Y-108952953D01*
X159608692Y-108192108D01*
X160369537Y-108439321D01*
X160122324Y-109200166D01*
X160122324Y-109200166D01*
G37*
G04 #@! TD*
D10*
G04 #@! TO.C,LED27*
X152657163Y-117794592D03*
D11*
G36*
X152400347Y-118298621D02*
X152153134Y-117537776D01*
X152913979Y-117290563D01*
X153161192Y-118051408D01*
X152400347Y-118298621D01*
X152400347Y-118298621D01*
G37*
D10*
X152193637Y-116368008D03*
D11*
G36*
X151936821Y-116872037D02*
X151689608Y-116111192D01*
X152450453Y-115863979D01*
X152697666Y-116624824D01*
X151936821Y-116872037D01*
X151936821Y-116872037D01*
G37*
G04 #@! TD*
D10*
G04 #@! TO.C,LED32*
X147094285Y-118380910D03*
D11*
G36*
X146654665Y-118736907D02*
X146738288Y-117941290D01*
X147533905Y-118024913D01*
X147450282Y-118820530D01*
X146654665Y-118736907D01*
X146654665Y-118736907D01*
G37*
D10*
X147251077Y-116889128D03*
D11*
G36*
X146811457Y-117245125D02*
X146895080Y-116449508D01*
X147690697Y-116533131D01*
X147607074Y-117328748D01*
X146811457Y-117245125D01*
X146811457Y-117245125D01*
G37*
G04 #@! TD*
D10*
G04 #@! TO.C,LED33*
X145703566Y-118160352D03*
D11*
G36*
X145229142Y-118468446D02*
X145395472Y-117685928D01*
X146177990Y-117852258D01*
X146011660Y-118634776D01*
X145229142Y-118468446D01*
X145229142Y-118468446D01*
G37*
D10*
X146015434Y-116693130D03*
D11*
G36*
X145541010Y-117001224D02*
X145707340Y-116218706D01*
X146489858Y-116385036D01*
X146323528Y-117167554D01*
X145541010Y-117001224D01*
X145541010Y-117001224D01*
G37*
G04 #@! TD*
D10*
G04 #@! TO.C,LED34*
X144345037Y-117794592D03*
D11*
G36*
X143841008Y-118051408D02*
X144088221Y-117290563D01*
X144849066Y-117537776D01*
X144601853Y-118298621D01*
X143841008Y-118051408D01*
X143841008Y-118051408D01*
G37*
D10*
X144808563Y-116368008D03*
D11*
G36*
X144304534Y-116624824D02*
X144551747Y-115863979D01*
X145312592Y-116111192D01*
X145065379Y-116872037D01*
X144304534Y-116624824D01*
X144304534Y-116624824D01*
G37*
G04 #@! TD*
D10*
G04 #@! TO.C,LED35*
X143029688Y-117291478D03*
D11*
G36*
X142501575Y-117494202D02*
X142826964Y-116763365D01*
X143557801Y-117088754D01*
X143232412Y-117819591D01*
X142501575Y-117494202D01*
X142501575Y-117494202D01*
G37*
D10*
X143639792Y-115921160D03*
D11*
G36*
X143111679Y-116123884D02*
X143437068Y-115393047D01*
X144167905Y-115718436D01*
X143842516Y-116449273D01*
X143111679Y-116123884D01*
X143111679Y-116123884D01*
G37*
G04 #@! TD*
D10*
G04 #@! TO.C,LED2*
X149907914Y-91626291D03*
D11*
G36*
X150347534Y-91270294D02*
X150263911Y-92065911D01*
X149468294Y-91982288D01*
X149551917Y-91186671D01*
X150347534Y-91270294D01*
X150347534Y-91270294D01*
G37*
D10*
X149751122Y-93118073D03*
D11*
G36*
X150190742Y-92762076D02*
X150107119Y-93557693D01*
X149311502Y-93474070D01*
X149395125Y-92678453D01*
X150190742Y-92762076D01*
X150190742Y-92762076D01*
G37*
G04 #@! TD*
D10*
G04 #@! TO.C,LED48*
X135344348Y-102206066D03*
D11*
G36*
X135036254Y-101731642D02*
X135818772Y-101897972D01*
X135652442Y-102680490D01*
X134869924Y-102514160D01*
X135036254Y-101731642D01*
X135036254Y-101731642D01*
G37*
D10*
X136811570Y-102517934D03*
D11*
G36*
X136503476Y-102043510D02*
X137285994Y-102209840D01*
X137119664Y-102992358D01*
X136337146Y-102826028D01*
X136503476Y-102043510D01*
X136503476Y-102043510D01*
G37*
G04 #@! TD*
D12*
G04 #@! TO.C,LED56*
X148501100Y-114004660D03*
X148501100Y-115504660D03*
G04 #@! TD*
G04 #@! TO.C,LED64*
X157502159Y-105003600D03*
X159002159Y-105003600D03*
G04 #@! TD*
G04 #@! TO.C,LED41*
X135051100Y-105003600D03*
X136551100Y-105003600D03*
G04 #@! TD*
G04 #@! TO.C,LED57*
X148501100Y-96002541D03*
X148501100Y-94502541D03*
G04 #@! TD*
G04 #@! TO.C,LED65*
X139500040Y-105003600D03*
X138000040Y-105003600D03*
G04 #@! TD*
D10*
G04 #@! TO.C,LED42*
X135123790Y-106410415D03*
D11*
G36*
X134684170Y-106054418D02*
X135479787Y-105970795D01*
X135563410Y-106766412D01*
X134767793Y-106850035D01*
X134684170Y-106054418D01*
X134684170Y-106054418D01*
G37*
D10*
X136615572Y-106253623D03*
D11*
G36*
X136175952Y-105897626D02*
X136971569Y-105814003D01*
X137055192Y-106609620D01*
X136259575Y-106693243D01*
X136175952Y-105897626D01*
X136175952Y-105897626D01*
G37*
G04 #@! TD*
D10*
G04 #@! TO.C,LED50*
X136213222Y-99532189D03*
D11*
G36*
X136010498Y-99004076D02*
X136741335Y-99329465D01*
X136415946Y-100060302D01*
X135685109Y-99734913D01*
X136010498Y-99004076D01*
X136010498Y-99004076D01*
G37*
D10*
X137583540Y-100142293D03*
D11*
G36*
X137380816Y-99614180D02*
X138111653Y-99939569D01*
X137786264Y-100670406D01*
X137055427Y-100345017D01*
X137380816Y-99614180D01*
X137380816Y-99614180D01*
G37*
G04 #@! TD*
D10*
G04 #@! TO.C,LED66*
X156294540Y-109502860D03*
D11*
G36*
X156148130Y-108956450D02*
X156840950Y-109356450D01*
X156440950Y-110049270D01*
X155748130Y-109649270D01*
X156148130Y-108956450D01*
X156148130Y-108956450D01*
G37*
D10*
X157593578Y-110252860D03*
D11*
G36*
X157447168Y-109706450D02*
X158139988Y-110106450D01*
X157739988Y-110799270D01*
X157047168Y-110399270D01*
X157447168Y-109706450D01*
X157447168Y-109706450D01*
G37*
G04 #@! TD*
D10*
G04 #@! TO.C,LED43*
X135344348Y-107801134D03*
D11*
G36*
X134869924Y-107493040D02*
X135652442Y-107326710D01*
X135818772Y-108109228D01*
X135036254Y-108275558D01*
X134869924Y-107493040D01*
X134869924Y-107493040D01*
G37*
D10*
X136811570Y-107489266D03*
D11*
G36*
X136337146Y-107181172D02*
X137119664Y-107014842D01*
X137285994Y-107797360D01*
X136503476Y-107963690D01*
X136337146Y-107181172D01*
X136337146Y-107181172D01*
G37*
G04 #@! TD*
D10*
G04 #@! TO.C,LED8*
X161878409Y-103596786D03*
D11*
G36*
X162318029Y-103952783D02*
X161522412Y-104036406D01*
X161438789Y-103240789D01*
X162234406Y-103157166D01*
X162318029Y-103952783D01*
X162318029Y-103952783D01*
G37*
D10*
X160386627Y-103753578D03*
D11*
G36*
X160826247Y-104109575D02*
X160030630Y-104193198D01*
X159947007Y-103397581D01*
X160742624Y-103313958D01*
X160826247Y-104109575D01*
X160826247Y-104109575D01*
G37*
G04 #@! TD*
D10*
G04 #@! TO.C,LED51*
X136853381Y-98278600D03*
D11*
G36*
X136706971Y-97732190D02*
X137399791Y-98132190D01*
X136999791Y-98825010D01*
X136306971Y-98425010D01*
X136706971Y-97732190D01*
X136706971Y-97732190D01*
G37*
D10*
X138152419Y-99028600D03*
D11*
G36*
X138006009Y-98482190D02*
X138698829Y-98882190D01*
X138298829Y-99575010D01*
X137606009Y-99175010D01*
X138006009Y-98482190D01*
X138006009Y-98482190D01*
G37*
G04 #@! TD*
D10*
G04 #@! TO.C,LED59*
X153000359Y-97210160D03*
D11*
G36*
X152453949Y-97356570D02*
X152853949Y-96663750D01*
X153546769Y-97063750D01*
X153146769Y-97756570D01*
X152453949Y-97356570D01*
X152453949Y-97356570D01*
G37*
D10*
X153750359Y-95911122D03*
D11*
G36*
X153203949Y-96057532D02*
X153603949Y-95364712D01*
X154296769Y-95764712D01*
X153896769Y-96457532D01*
X153203949Y-96057532D01*
X153203949Y-96057532D01*
G37*
G04 #@! TD*
D10*
G04 #@! TO.C,LED44*
X135710108Y-109159663D03*
D11*
G36*
X135206079Y-108902847D02*
X135966924Y-108655634D01*
X136214137Y-109416479D01*
X135453292Y-109663692D01*
X135206079Y-108902847D01*
X135206079Y-108902847D01*
G37*
D10*
X137136692Y-108696137D03*
D11*
G36*
X136632663Y-108439321D02*
X137393508Y-108192108D01*
X137640721Y-108952953D01*
X136879876Y-109200166D01*
X136632663Y-108439321D01*
X136632663Y-108439321D01*
G37*
G04 #@! TD*
D10*
G04 #@! TO.C,LED52*
X137620037Y-97097702D03*
D11*
G36*
X137531544Y-96538981D02*
X138178758Y-97009209D01*
X137708530Y-97656423D01*
X137061316Y-97186195D01*
X137531544Y-96538981D01*
X137531544Y-96538981D01*
G37*
D10*
X138833563Y-97979380D03*
D11*
G36*
X138745070Y-97420659D02*
X139392284Y-97890887D01*
X138922056Y-98538101D01*
X138274842Y-98067873D01*
X138745070Y-97420659D01*
X138745070Y-97420659D01*
G37*
G04 #@! TD*
D10*
G04 #@! TO.C,LED60*
X145703566Y-91846849D03*
D11*
G36*
X146011660Y-91372425D02*
X146177990Y-92154943D01*
X145395472Y-92321273D01*
X145229142Y-91538755D01*
X146011660Y-91372425D01*
X146011660Y-91372425D01*
G37*
D10*
X146015434Y-93314071D03*
D11*
G36*
X146323528Y-92839647D02*
X146489858Y-93622165D01*
X145707340Y-93788495D01*
X145541010Y-93005977D01*
X146323528Y-92839647D01*
X146323528Y-92839647D01*
G37*
G04 #@! TD*
D10*
G04 #@! TO.C,LED68*
X144001840Y-97210160D03*
D11*
G36*
X143855430Y-97756570D02*
X143455430Y-97063750D01*
X144148250Y-96663750D01*
X144548250Y-97356570D01*
X143855430Y-97756570D01*
X143855430Y-97756570D01*
G37*
D10*
X143251840Y-95911122D03*
D11*
G36*
X143105430Y-96457532D02*
X142705430Y-95764712D01*
X143398250Y-95364712D01*
X143798250Y-96057532D01*
X143105430Y-96457532D01*
X143105430Y-96457532D01*
G37*
G04 #@! TD*
D10*
G04 #@! TO.C,LED9*
X161657851Y-102206066D03*
D11*
G36*
X162132275Y-102514160D02*
X161349757Y-102680490D01*
X161183427Y-101897972D01*
X161965945Y-101731642D01*
X162132275Y-102514160D01*
X162132275Y-102514160D01*
G37*
D10*
X160190629Y-102517934D03*
D11*
G36*
X160665053Y-102826028D02*
X159882535Y-102992358D01*
X159716205Y-102209840D01*
X160498723Y-102043510D01*
X160665053Y-102826028D01*
X160665053Y-102826028D01*
G37*
G04 #@! TD*
D10*
G04 #@! TO.C,LED12*
X160148819Y-98278600D03*
D11*
G36*
X160695229Y-98425010D02*
X160002409Y-98825010D01*
X159602409Y-98132190D01*
X160295229Y-97732190D01*
X160695229Y-98425010D01*
X160695229Y-98425010D01*
G37*
D10*
X158849781Y-99028600D03*
D11*
G36*
X159396191Y-99175010D02*
X158703371Y-99575010D01*
X158303371Y-98882190D01*
X158996191Y-98482190D01*
X159396191Y-99175010D01*
X159396191Y-99175010D01*
G37*
G04 #@! TD*
D10*
G04 #@! TO.C,LED20*
X160788977Y-110475012D03*
D11*
G36*
X160991701Y-111003125D02*
X160260864Y-110677736D01*
X160586253Y-109946899D01*
X161317090Y-110272288D01*
X160991701Y-111003125D01*
X160991701Y-111003125D01*
G37*
D10*
X159418659Y-109864908D03*
D11*
G36*
X159621383Y-110393021D02*
X158890546Y-110067632D01*
X159215935Y-109336795D01*
X159946772Y-109662184D01*
X159621383Y-110393021D01*
X159621383Y-110393021D01*
G37*
G04 #@! TD*
D10*
G04 #@! TO.C,LED28*
X153972511Y-117291478D03*
D11*
G36*
X153769787Y-117819591D02*
X153444398Y-117088754D01*
X154175235Y-116763365D01*
X154500624Y-117494202D01*
X153769787Y-117819591D01*
X153769787Y-117819591D01*
G37*
D10*
X153362407Y-115921160D03*
D11*
G36*
X153159683Y-116449273D02*
X152834294Y-115718436D01*
X153565131Y-115393047D01*
X153890520Y-116123884D01*
X153159683Y-116449273D01*
X153159683Y-116449273D01*
G37*
G04 #@! TD*
D10*
G04 #@! TO.C,LED5*
X153972511Y-92715723D03*
D11*
G36*
X154500624Y-92512999D02*
X154175235Y-93243836D01*
X153444398Y-92918447D01*
X153769787Y-92187610D01*
X154500624Y-92512999D01*
X154500624Y-92512999D01*
G37*
D10*
X153362407Y-94086041D03*
D11*
G36*
X153890520Y-93883317D02*
X153565131Y-94614154D01*
X152834294Y-94288765D01*
X153159683Y-93557928D01*
X153890520Y-93883317D01*
X153890520Y-93883317D01*
G37*
G04 #@! TD*
D10*
G04 #@! TO.C,LED21*
X160148819Y-111728600D03*
D11*
G36*
X160295229Y-112275010D02*
X159602409Y-111875010D01*
X160002409Y-111182190D01*
X160695229Y-111582190D01*
X160295229Y-112275010D01*
X160295229Y-112275010D01*
G37*
D10*
X158849781Y-110978600D03*
D11*
G36*
X158996191Y-111525010D02*
X158303371Y-111125010D01*
X158703371Y-110432190D01*
X159396191Y-110832190D01*
X158996191Y-111525010D01*
X158996191Y-111525010D01*
G37*
G04 #@! TD*
D10*
G04 #@! TO.C,LED29*
X155226100Y-116651319D03*
D11*
G36*
X155079690Y-117197729D02*
X154679690Y-116504909D01*
X155372510Y-116104909D01*
X155772510Y-116797729D01*
X155079690Y-117197729D01*
X155079690Y-117197729D01*
G37*
D10*
X154476100Y-115352281D03*
D11*
G36*
X154329690Y-115898691D02*
X153929690Y-115205871D01*
X154622510Y-114805871D01*
X155022510Y-115498691D01*
X154329690Y-115898691D01*
X154329690Y-115898691D01*
G37*
G04 #@! TD*
D10*
G04 #@! TO.C,LED6*
X155226100Y-93355881D03*
D11*
G36*
X155772510Y-93209471D02*
X155372510Y-93902291D01*
X154679690Y-93502291D01*
X155079690Y-92809471D01*
X155772510Y-93209471D01*
X155772510Y-93209471D01*
G37*
D10*
X154476100Y-94654919D03*
D11*
G36*
X155022510Y-94508509D02*
X154622510Y-95201329D01*
X153929690Y-94801329D01*
X154329690Y-94108509D01*
X155022510Y-94508509D01*
X155022510Y-94508509D01*
G37*
G04 #@! TD*
D10*
G04 #@! TO.C,LED14*
X158497099Y-96002912D03*
D11*
G36*
X159062009Y-96032518D02*
X158467493Y-96567822D01*
X157932189Y-95973306D01*
X158526705Y-95438002D01*
X159062009Y-96032518D01*
X159062009Y-96032518D01*
G37*
D10*
X157382381Y-97006608D03*
D11*
G36*
X157947291Y-97036214D02*
X157352775Y-97571518D01*
X156817471Y-96977002D01*
X157411987Y-96441698D01*
X157947291Y-97036214D01*
X157947291Y-97036214D01*
G37*
G04 #@! TD*
D10*
G04 #@! TO.C,LED30*
X156406998Y-115884663D03*
D11*
G36*
X156318505Y-116443384D02*
X155848277Y-115796170D01*
X156495491Y-115325942D01*
X156965719Y-115973156D01*
X156318505Y-116443384D01*
X156318505Y-116443384D01*
G37*
D10*
X155525320Y-114671137D03*
D11*
G36*
X155436827Y-115229858D02*
X154966599Y-114582644D01*
X155613813Y-114112416D01*
X156084041Y-114759630D01*
X155436827Y-115229858D01*
X155436827Y-115229858D01*
G37*
G04 #@! TD*
D10*
G04 #@! TO.C,LED7*
X156406998Y-94122537D03*
D11*
G36*
X156965719Y-94034044D02*
X156495491Y-94681258D01*
X155848277Y-94211030D01*
X156318505Y-93563816D01*
X156965719Y-94034044D01*
X156965719Y-94034044D01*
G37*
D10*
X155525320Y-95336063D03*
D11*
G36*
X156084041Y-95247570D02*
X155613813Y-95894784D01*
X154966599Y-95424556D01*
X155436827Y-94777342D01*
X156084041Y-95247570D01*
X156084041Y-95247570D01*
G37*
G04 #@! TD*
D10*
G04 #@! TO.C,LED10*
X161292092Y-100847537D03*
D11*
G36*
X161796121Y-101104353D02*
X161035276Y-101351566D01*
X160788063Y-100590721D01*
X161548908Y-100343508D01*
X161796121Y-101104353D01*
X161796121Y-101104353D01*
G37*
D10*
X159865508Y-101311063D03*
D11*
G36*
X160369537Y-101567879D02*
X159608692Y-101815092D01*
X159361479Y-101054247D01*
X160122324Y-100807034D01*
X160369537Y-101567879D01*
X160369537Y-101567879D01*
G37*
G04 #@! TD*
D10*
G04 #@! TO.C,LED15*
X157501788Y-95007601D03*
D11*
G36*
X158066698Y-94977995D02*
X157531394Y-95572511D01*
X156936878Y-95037207D01*
X157472182Y-94442691D01*
X158066698Y-94977995D01*
X158066698Y-94977995D01*
G37*
D10*
X156498092Y-96122319D03*
D11*
G36*
X157063002Y-96092713D02*
X156527698Y-96687229D01*
X155933182Y-96151925D01*
X156468486Y-95557409D01*
X157063002Y-96092713D01*
X157063002Y-96092713D01*
G37*
G04 #@! TD*
D10*
G04 #@! TO.C,LED23*
X158497099Y-114004289D03*
D11*
G36*
X158526705Y-114569199D02*
X157932189Y-114033895D01*
X158467493Y-113439379D01*
X159062009Y-113974683D01*
X158526705Y-114569199D01*
X158526705Y-114569199D01*
G37*
D10*
X157382381Y-113000593D03*
D11*
G36*
X157411987Y-113565503D02*
X156817471Y-113030199D01*
X157352775Y-112435683D01*
X157947291Y-112970987D01*
X157411987Y-113565503D01*
X157411987Y-113565503D01*
G37*
G04 #@! TD*
D10*
G04 #@! TO.C,LED36*
X141776100Y-116651319D03*
D11*
G36*
X141229690Y-116797729D02*
X141629690Y-116104909D01*
X142322510Y-116504909D01*
X141922510Y-117197729D01*
X141229690Y-116797729D01*
X141229690Y-116797729D01*
G37*
D10*
X142526100Y-115352281D03*
D11*
G36*
X141979690Y-115498691D02*
X142379690Y-114805871D01*
X143072510Y-115205871D01*
X142672510Y-115898691D01*
X141979690Y-115498691D01*
X141979690Y-115498691D01*
G37*
G04 #@! TD*
D10*
G04 #@! TO.C,LED37*
X140595201Y-115884663D03*
D11*
G36*
X140036480Y-115973156D02*
X140506708Y-115325942D01*
X141153922Y-115796170D01*
X140683694Y-116443384D01*
X140036480Y-115973156D01*
X140036480Y-115973156D01*
G37*
D10*
X141476879Y-114671137D03*
D11*
G36*
X140918158Y-114759630D02*
X141388386Y-114112416D01*
X142035600Y-114582644D01*
X141565372Y-115229858D01*
X140918158Y-114759630D01*
X140918158Y-114759630D01*
G37*
G04 #@! TD*
D10*
G04 #@! TO.C,LED38*
X139500411Y-114999600D03*
D11*
G36*
X138935501Y-115029206D02*
X139470805Y-114434690D01*
X140065321Y-114969994D01*
X139530017Y-115564510D01*
X138935501Y-115029206D01*
X138935501Y-115029206D01*
G37*
D10*
X140504107Y-113884882D03*
D11*
G36*
X139939197Y-113914488D02*
X140474501Y-113319972D01*
X141069017Y-113855276D01*
X140533713Y-114449792D01*
X139939197Y-113914488D01*
X139939197Y-113914488D01*
G37*
G04 #@! TD*
D10*
G04 #@! TO.C,LED39*
X138505100Y-114004289D03*
D11*
G36*
X137940190Y-113974683D02*
X138534706Y-113439379D01*
X139070010Y-114033895D01*
X138475494Y-114569199D01*
X137940190Y-113974683D01*
X137940190Y-113974683D01*
G37*
D10*
X139619818Y-113000593D03*
D11*
G36*
X139054908Y-112970987D02*
X139649424Y-112435683D01*
X140184728Y-113030199D01*
X139590212Y-113565503D01*
X139054908Y-112970987D01*
X139054908Y-112970987D01*
G37*
G04 #@! TD*
D12*
G04 #@! TO.C,LED16*
X161951100Y-105003600D03*
X160451100Y-105003600D03*
G04 #@! TD*
D10*
G04 #@! TO.C,LED53*
X138505100Y-96002912D03*
D11*
G36*
X138475494Y-95438002D02*
X139070010Y-95973306D01*
X138534706Y-96567822D01*
X137940190Y-96032518D01*
X138475494Y-95438002D01*
X138475494Y-95438002D01*
G37*
D10*
X139619818Y-97006608D03*
D11*
G36*
X139590212Y-96441698D02*
X140184728Y-96977002D01*
X139649424Y-97571518D01*
X139054908Y-97036214D01*
X139590212Y-96441698D01*
X139590212Y-96441698D01*
G37*
G04 #@! TD*
D10*
G04 #@! TO.C,LED61*
X144345037Y-92212608D03*
D11*
G36*
X144601853Y-91708579D02*
X144849066Y-92469424D01*
X144088221Y-92716637D01*
X143841008Y-91955792D01*
X144601853Y-91708579D01*
X144601853Y-91708579D01*
G37*
D10*
X144808563Y-93639192D03*
D11*
G36*
X145065379Y-93135163D02*
X145312592Y-93896008D01*
X144551747Y-94143221D01*
X144304534Y-93382376D01*
X145065379Y-93135163D01*
X145065379Y-93135163D01*
G37*
G04 #@! TD*
D10*
G04 #@! TO.C,LED69*
X144001840Y-112797041D03*
D11*
G36*
X144548250Y-112650631D02*
X144148250Y-113343451D01*
X143455430Y-112943451D01*
X143855430Y-112250631D01*
X144548250Y-112650631D01*
X144548250Y-112650631D01*
G37*
D10*
X143251840Y-114096079D03*
D11*
G36*
X143798250Y-113949669D02*
X143398250Y-114642489D01*
X142705430Y-114242489D01*
X143105430Y-113549669D01*
X143798250Y-113949669D01*
X143798250Y-113949669D01*
G37*
G04 #@! TD*
D10*
G04 #@! TO.C,LED45*
X136213222Y-110475012D03*
D11*
G36*
X135685109Y-110272288D02*
X136415946Y-109946899D01*
X136741335Y-110677736D01*
X136010498Y-111003125D01*
X135685109Y-110272288D01*
X135685109Y-110272288D01*
G37*
D10*
X137583540Y-109864908D03*
D11*
G36*
X137055427Y-109662184D02*
X137786264Y-109336795D01*
X138111653Y-110067632D01*
X137380816Y-110393021D01*
X137055427Y-109662184D01*
X137055427Y-109662184D01*
G37*
G04 #@! TD*
D10*
G04 #@! TO.C,LED62*
X143029688Y-92715723D03*
D11*
G36*
X143232412Y-92187610D02*
X143557801Y-92918447D01*
X142826964Y-93243836D01*
X142501575Y-92512999D01*
X143232412Y-92187610D01*
X143232412Y-92187610D01*
G37*
D10*
X143639792Y-94086041D03*
D11*
G36*
X143842516Y-93557928D02*
X144167905Y-94288765D01*
X143437068Y-94614154D01*
X143111679Y-93883317D01*
X143842516Y-93557928D01*
X143842516Y-93557928D01*
G37*
G04 #@! TD*
D10*
G04 #@! TO.C,LED70*
X153000359Y-112797041D03*
D11*
G36*
X153146769Y-112250631D02*
X153546769Y-112943451D01*
X152853949Y-113343451D01*
X152453949Y-112650631D01*
X153146769Y-112250631D01*
X153146769Y-112250631D01*
G37*
D10*
X153750359Y-114096079D03*
D11*
G36*
X153896769Y-113549669D02*
X154296769Y-114242489D01*
X153603949Y-114642489D01*
X153203949Y-113949669D01*
X153896769Y-113549669D01*
X153896769Y-113549669D01*
G37*
G04 #@! TD*
D10*
G04 #@! TO.C,LED46*
X136853381Y-111728600D03*
D11*
G36*
X136306971Y-111582190D02*
X136999791Y-111182190D01*
X137399791Y-111875010D01*
X136706971Y-112275010D01*
X136306971Y-111582190D01*
X136306971Y-111582190D01*
G37*
D10*
X138152419Y-110978600D03*
D11*
G36*
X137606009Y-110832190D02*
X138298829Y-110432190D01*
X138698829Y-111125010D01*
X138006009Y-111525010D01*
X137606009Y-110832190D01*
X137606009Y-110832190D01*
G37*
G04 #@! TD*
D10*
G04 #@! TO.C,LED54*
X139500411Y-95007601D03*
D11*
G36*
X139530017Y-94442691D02*
X140065321Y-95037207D01*
X139470805Y-95572511D01*
X138935501Y-94977995D01*
X139530017Y-94442691D01*
X139530017Y-94442691D01*
G37*
D10*
X140504107Y-96122319D03*
D11*
G36*
X140533713Y-95557409D02*
X141069017Y-96151925D01*
X140474501Y-96687229D01*
X139939197Y-96092713D01*
X140533713Y-95557409D01*
X140533713Y-95557409D01*
G37*
G04 #@! TD*
D10*
G04 #@! TO.C,LED71*
X140707659Y-109502860D03*
D11*
G36*
X141254069Y-109649270D02*
X140561249Y-110049270D01*
X140161249Y-109356450D01*
X140854069Y-108956450D01*
X141254069Y-109649270D01*
X141254069Y-109649270D01*
G37*
D10*
X139408621Y-110252860D03*
D11*
G36*
X139955031Y-110399270D02*
X139262211Y-110799270D01*
X138862211Y-110106450D01*
X139555031Y-109706450D01*
X139955031Y-110399270D01*
X139955031Y-110399270D01*
G37*
G04 #@! TD*
D10*
G04 #@! TO.C,LED47*
X137620037Y-112909499D03*
D11*
G36*
X137061316Y-112821006D02*
X137708530Y-112350778D01*
X138178758Y-112997992D01*
X137531544Y-113468220D01*
X137061316Y-112821006D01*
X137061316Y-112821006D01*
G37*
D10*
X138833563Y-112027821D03*
D11*
G36*
X138274842Y-111939328D02*
X138922056Y-111469100D01*
X139392284Y-112116314D01*
X138745070Y-112586542D01*
X138274842Y-111939328D01*
X138274842Y-111939328D01*
G37*
G04 #@! TD*
D10*
G04 #@! TO.C,LED17*
X161878409Y-106410415D03*
D11*
G36*
X162234406Y-106850035D02*
X161438789Y-106766412D01*
X161522412Y-105970795D01*
X162318029Y-106054418D01*
X162234406Y-106850035D01*
X162234406Y-106850035D01*
G37*
D10*
X160386627Y-106253623D03*
D11*
G36*
X160742624Y-106693243D02*
X159947007Y-106609620D01*
X160030630Y-105814003D01*
X160826247Y-105897626D01*
X160742624Y-106693243D01*
X160742624Y-106693243D01*
G37*
G04 #@! TD*
D10*
G04 #@! TO.C,LED55*
X140595201Y-94122537D03*
D11*
G36*
X140683694Y-93563816D02*
X141153922Y-94211030D01*
X140506708Y-94681258D01*
X140036480Y-94034044D01*
X140683694Y-93563816D01*
X140683694Y-93563816D01*
G37*
D10*
X141476879Y-95336063D03*
D11*
G36*
X141565372Y-94777342D02*
X142035600Y-95424556D01*
X141388386Y-95894784D01*
X140918158Y-95247570D01*
X141565372Y-94777342D01*
X141565372Y-94777342D01*
G37*
G04 #@! TD*
D10*
G04 #@! TO.C,LED63*
X141776100Y-93355881D03*
D11*
G36*
X141922510Y-92809471D02*
X142322510Y-93502291D01*
X141629690Y-93902291D01*
X141229690Y-93209471D01*
X141922510Y-92809471D01*
X141922510Y-92809471D01*
G37*
D10*
X142526100Y-94654919D03*
D11*
G36*
X142672510Y-94108509D02*
X143072510Y-94801329D01*
X142379690Y-95201329D01*
X141979690Y-94508509D01*
X142672510Y-94108509D01*
X142672510Y-94108509D01*
G37*
G04 #@! TD*
D10*
G04 #@! TO.C,LED18*
X161657851Y-107801134D03*
D11*
G36*
X161965945Y-108275558D02*
X161183427Y-108109228D01*
X161349757Y-107326710D01*
X162132275Y-107493040D01*
X161965945Y-108275558D01*
X161965945Y-108275558D01*
G37*
D10*
X160190629Y-107489266D03*
D11*
G36*
X160498723Y-107963690D02*
X159716205Y-107797360D01*
X159882535Y-107014842D01*
X160665053Y-107181172D01*
X160498723Y-107963690D01*
X160498723Y-107963690D01*
G37*
G04 #@! TD*
D10*
G04 #@! TO.C,LED4*
X152657163Y-92212608D03*
D11*
G36*
X153161192Y-91955792D02*
X152913979Y-92716637D01*
X152153134Y-92469424D01*
X152400347Y-91708579D01*
X153161192Y-91955792D01*
X153161192Y-91955792D01*
G37*
D10*
X152193637Y-93639192D03*
D11*
G36*
X152697666Y-93382376D02*
X152450453Y-94143221D01*
X151689608Y-93896008D01*
X151936821Y-93135163D01*
X152697666Y-93382376D01*
X152697666Y-93382376D01*
G37*
G04 #@! TD*
D10*
G04 #@! TO.C,LED13*
X159382163Y-97097702D03*
D11*
G36*
X159940884Y-97186195D02*
X159293670Y-97656423D01*
X158823442Y-97009209D01*
X159470656Y-96538981D01*
X159940884Y-97186195D01*
X159940884Y-97186195D01*
G37*
D10*
X158168637Y-97979380D03*
D11*
G36*
X158727358Y-98067873D02*
X158080144Y-98538101D01*
X157609916Y-97890887D01*
X158257130Y-97420659D01*
X158727358Y-98067873D01*
X158727358Y-98067873D01*
G37*
G04 #@! TD*
D10*
G04 #@! TO.C,LED22*
X159382163Y-112909499D03*
D11*
G36*
X159470656Y-113468220D02*
X158823442Y-112997992D01*
X159293670Y-112350778D01*
X159940884Y-112821006D01*
X159470656Y-113468220D01*
X159470656Y-113468220D01*
G37*
D10*
X158168637Y-112027821D03*
D11*
G36*
X158257130Y-112586542D02*
X157609916Y-112116314D01*
X158080144Y-111469100D01*
X158727358Y-111939328D01*
X158257130Y-112586542D01*
X158257130Y-112586542D01*
G37*
G04 #@! TD*
D10*
G04 #@! TO.C,LED31*
X157501788Y-114999600D03*
D11*
G36*
X157472182Y-115564510D02*
X156936878Y-114969994D01*
X157531394Y-114434690D01*
X158066698Y-115029206D01*
X157472182Y-115564510D01*
X157472182Y-115564510D01*
G37*
D10*
X156498092Y-113884882D03*
D11*
G36*
X156468486Y-114449792D02*
X155933182Y-113855276D01*
X156527698Y-113319972D01*
X157063002Y-113914488D01*
X156468486Y-114449792D01*
X156468486Y-114449792D01*
G37*
G04 #@! TD*
D10*
G04 #@! TO.C,LED40*
X135123790Y-103596786D03*
D11*
G36*
X134767793Y-103157166D02*
X135563410Y-103240789D01*
X135479787Y-104036406D01*
X134684170Y-103952783D01*
X134767793Y-103157166D01*
X134767793Y-103157166D01*
G37*
D10*
X136615572Y-103753578D03*
D11*
G36*
X136259575Y-103313958D02*
X137055192Y-103397581D01*
X136971569Y-104193198D01*
X136175952Y-104109575D01*
X136259575Y-103313958D01*
X136259575Y-103313958D01*
G37*
G04 #@! TD*
D10*
G04 #@! TO.C,LED49*
X135710108Y-100847537D03*
D11*
G36*
X135453292Y-100343508D02*
X136214137Y-100590721D01*
X135966924Y-101351566D01*
X135206079Y-101104353D01*
X135453292Y-100343508D01*
X135453292Y-100343508D01*
G37*
D10*
X137136692Y-101311063D03*
D11*
G36*
X136879876Y-100807034D02*
X137640721Y-101054247D01*
X137393508Y-101815092D01*
X136632663Y-101567879D01*
X136879876Y-100807034D01*
X136879876Y-100807034D01*
G37*
G04 #@! TD*
D10*
G04 #@! TO.C,LED58*
X156294540Y-100504341D03*
D11*
G36*
X155748130Y-100357931D02*
X156440950Y-99957931D01*
X156840950Y-100650751D01*
X156148130Y-101050751D01*
X155748130Y-100357931D01*
X155748130Y-100357931D01*
G37*
D10*
X157593578Y-99754341D03*
D11*
G36*
X157047168Y-99607931D02*
X157739988Y-99207931D01*
X158139988Y-99900751D01*
X157447168Y-100300751D01*
X157047168Y-99607931D01*
X157047168Y-99607931D01*
G37*
G04 #@! TD*
D10*
G04 #@! TO.C,LED67*
X140707659Y-100504341D03*
D11*
G36*
X140854069Y-101050751D02*
X140161249Y-100650751D01*
X140561249Y-99957931D01*
X141254069Y-100357931D01*
X140854069Y-101050751D01*
X140854069Y-101050751D01*
G37*
D10*
X139408621Y-99754341D03*
D11*
G36*
X139555031Y-100300751D02*
X138862211Y-99900751D01*
X139262211Y-99207931D01*
X139955031Y-99607931D01*
X139555031Y-100300751D01*
X139555031Y-100300751D01*
G37*
G04 #@! TD*
D12*
G04 #@! TO.C,LED24*
X148501100Y-118453600D03*
X148501100Y-116953600D03*
G04 #@! TD*
D13*
G04 #@! TO.C,X1*
X146848600Y-99288600D03*
X148248600Y-99288600D03*
G04 #@! TD*
D14*
G04 #@! TO.C,U2*
X148501100Y-105003600D03*
D15*
X145757900Y-101523800D03*
X146240500Y-101523800D03*
X146748500Y-101523800D03*
X147256500Y-101523800D03*
X147739100Y-101523800D03*
X148247100Y-101523800D03*
X148755100Y-101523800D03*
X149263100Y-101523800D03*
X149745700Y-101523800D03*
X150253700Y-101523800D03*
X150761700Y-101523800D03*
X151244300Y-101523800D03*
D16*
X151980900Y-102260400D03*
X151980900Y-102743000D03*
X151980900Y-103251000D03*
X151980900Y-103759000D03*
X151980900Y-104241600D03*
X151980900Y-104749600D03*
X151980900Y-105257600D03*
X151980900Y-105765600D03*
X151980900Y-106248200D03*
X151980900Y-106756200D03*
X151980900Y-107264200D03*
X151980900Y-107746800D03*
D15*
X151244300Y-108483400D03*
X150761700Y-108483400D03*
X150253700Y-108483400D03*
X149745700Y-108483400D03*
X149263100Y-108483400D03*
X148755100Y-108483400D03*
X148247100Y-108483400D03*
X147739100Y-108483400D03*
X147256500Y-108483400D03*
X146748500Y-108483400D03*
X146240500Y-108483400D03*
X145757900Y-108483400D03*
D16*
X145021300Y-107746800D03*
X145021300Y-107264200D03*
X145021300Y-106756200D03*
X145021300Y-106248200D03*
X145021300Y-105765600D03*
X145021300Y-105257600D03*
X145021300Y-104749600D03*
X145021300Y-104241600D03*
X145021300Y-103759000D03*
X145021300Y-103251000D03*
X145021300Y-102743000D03*
X145021300Y-102260400D03*
G04 #@! TD*
D17*
G04 #@! TO.C,R1*
X151691100Y-99352100D03*
X150391100Y-99352100D03*
G04 #@! TD*
D18*
G04 #@! TO.C,L1*
X154025600Y-98946600D03*
X154025600Y-100646600D03*
G04 #@! TD*
M02*
