G04 #@! TF.GenerationSoftware,KiCad,Pcbnew,5.0.2-bee76a0~70~ubuntu18.04.1*
G04 #@! TF.CreationDate,2019-09-23T19:43:07+01:00*
G04 #@! TF.ProjectId,charliewatch-norf-routed,63686172-6c69-4657-9761-7463682d6e6f,rev?*
G04 #@! TF.SameCoordinates,Original*
G04 #@! TF.FileFunction,Soldermask,Bot*
G04 #@! TF.FilePolarity,Negative*
%FSLAX46Y46*%
G04 Gerber Fmt 4.6, Leading zero omitted, Abs format (unit mm)*
G04 Created by KiCad (PCBNEW 5.0.2-bee76a0~70~ubuntu18.04.1) date Mon 23 Sep 2019 19:43:07 BST*
%MOMM*%
%LPD*%
G01*
G04 APERTURE LIST*
%ADD10C,0.100000*%
G04 APERTURE END LIST*
D10*
G36*
X143256631Y-113983856D02*
X139520844Y-117719643D01*
X135785057Y-113983856D01*
X139520844Y-110248069D01*
X143256631Y-113983856D01*
X143256631Y-113983856D01*
G37*
G36*
X144094200Y-111899700D02*
X142113000Y-111899700D01*
X142113000Y-109918500D01*
X144094200Y-109918500D01*
X144094200Y-111899700D01*
X144094200Y-111899700D01*
G37*
G36*
X142503547Y-107416568D02*
X142683824Y-107491241D01*
X142846074Y-107599653D01*
X142984047Y-107737626D01*
X143092459Y-107899876D01*
X143167132Y-108080153D01*
X143205200Y-108271533D01*
X143205200Y-108466667D01*
X143167132Y-108658047D01*
X143092459Y-108838324D01*
X142984047Y-109000574D01*
X142846074Y-109138547D01*
X142683824Y-109246959D01*
X142503547Y-109321632D01*
X142312167Y-109359700D01*
X142117033Y-109359700D01*
X141925653Y-109321632D01*
X141745376Y-109246959D01*
X141583126Y-109138547D01*
X141445153Y-109000574D01*
X141336741Y-108838324D01*
X141262068Y-108658047D01*
X141224000Y-108466667D01*
X141224000Y-108271533D01*
X141262068Y-108080153D01*
X141336741Y-107899876D01*
X141445153Y-107737626D01*
X141583126Y-107599653D01*
X141745376Y-107491241D01*
X141925653Y-107416568D01*
X142117033Y-107378500D01*
X142312167Y-107378500D01*
X142503547Y-107416568D01*
X142503547Y-107416568D01*
G37*
G36*
X151518467Y-105003600D02*
X148501100Y-108020967D01*
X145483733Y-105003600D01*
X148501100Y-101986233D01*
X151518467Y-105003600D01*
X151518467Y-105003600D01*
G37*
G36*
X162366200Y-107605200D02*
X160163000Y-107605200D01*
X160163000Y-106302000D01*
X162366200Y-106302000D01*
X162366200Y-107605200D01*
X162366200Y-107605200D01*
G37*
G36*
X143392547Y-104876568D02*
X143572824Y-104951241D01*
X143735074Y-105059653D01*
X143873047Y-105197626D01*
X143981459Y-105359876D01*
X144056132Y-105540153D01*
X144094200Y-105731533D01*
X144094200Y-105926667D01*
X144056132Y-106118047D01*
X143981459Y-106298324D01*
X143873047Y-106460574D01*
X143735074Y-106598547D01*
X143572824Y-106706959D01*
X143392547Y-106781632D01*
X143201167Y-106819700D01*
X143006033Y-106819700D01*
X142814653Y-106781632D01*
X142634376Y-106706959D01*
X142472126Y-106598547D01*
X142334153Y-106460574D01*
X142225741Y-106298324D01*
X142151068Y-106118047D01*
X142113000Y-105926667D01*
X142113000Y-105731533D01*
X142151068Y-105540153D01*
X142225741Y-105359876D01*
X142334153Y-105197626D01*
X142472126Y-105059653D01*
X142634376Y-104951241D01*
X142814653Y-104876568D01*
X143006033Y-104838500D01*
X143201167Y-104838500D01*
X143392547Y-104876568D01*
X143392547Y-104876568D01*
G37*
G36*
X142503547Y-102336568D02*
X142683824Y-102411241D01*
X142846074Y-102519653D01*
X142984047Y-102657626D01*
X143092459Y-102819876D01*
X143167132Y-103000153D01*
X143205200Y-103191533D01*
X143205200Y-103386667D01*
X143167132Y-103578047D01*
X143092459Y-103758324D01*
X142984047Y-103920574D01*
X142846074Y-104058547D01*
X142683824Y-104166959D01*
X142503547Y-104241632D01*
X142312167Y-104279700D01*
X142117033Y-104279700D01*
X141925653Y-104241632D01*
X141745376Y-104166959D01*
X141583126Y-104058547D01*
X141445153Y-103920574D01*
X141336741Y-103758324D01*
X141262068Y-103578047D01*
X141224000Y-103386667D01*
X141224000Y-103191533D01*
X141262068Y-103000153D01*
X141336741Y-102819876D01*
X141445153Y-102657626D01*
X141583126Y-102519653D01*
X141745376Y-102411241D01*
X141925653Y-102336568D01*
X142117033Y-102298500D01*
X142312167Y-102298500D01*
X142503547Y-102336568D01*
X142503547Y-102336568D01*
G37*
G36*
X162366200Y-103705200D02*
X160163000Y-103705200D01*
X160163000Y-102402000D01*
X162366200Y-102402000D01*
X162366200Y-103705200D01*
X162366200Y-103705200D01*
G37*
G36*
X143392547Y-99796568D02*
X143572824Y-99871241D01*
X143735074Y-99979653D01*
X143873047Y-100117626D01*
X143981459Y-100279876D01*
X144056132Y-100460153D01*
X144094200Y-100651533D01*
X144094200Y-100846667D01*
X144056132Y-101038047D01*
X143981459Y-101218324D01*
X143873047Y-101380574D01*
X143735074Y-101518547D01*
X143572824Y-101626959D01*
X143392547Y-101701632D01*
X143201167Y-101739700D01*
X143006033Y-101739700D01*
X142814653Y-101701632D01*
X142634376Y-101626959D01*
X142472126Y-101518547D01*
X142334153Y-101380574D01*
X142225741Y-101218324D01*
X142151068Y-101038047D01*
X142113000Y-100846667D01*
X142113000Y-100651533D01*
X142151068Y-100460153D01*
X142225741Y-100279876D01*
X142334153Y-100117626D01*
X142472126Y-99979653D01*
X142634376Y-99871241D01*
X142814653Y-99796568D01*
X143006033Y-99758500D01*
X143201167Y-99758500D01*
X143392547Y-99796568D01*
X143392547Y-99796568D01*
G37*
G36*
X161217143Y-96023344D02*
X157481356Y-99759131D01*
X153745569Y-96023344D01*
X157481356Y-92287557D01*
X161217143Y-96023344D01*
X161217143Y-96023344D01*
G37*
G36*
X142503547Y-97256568D02*
X142683824Y-97331241D01*
X142846074Y-97439653D01*
X142984047Y-97577626D01*
X143092459Y-97739876D01*
X143167132Y-97920153D01*
X143205200Y-98111533D01*
X143205200Y-98306667D01*
X143167132Y-98498047D01*
X143092459Y-98678324D01*
X142984047Y-98840574D01*
X142846074Y-98978547D01*
X142683824Y-99086959D01*
X142503547Y-99161632D01*
X142312167Y-99199700D01*
X142117033Y-99199700D01*
X141925653Y-99161632D01*
X141745376Y-99086959D01*
X141583126Y-98978547D01*
X141445153Y-98840574D01*
X141336741Y-98678324D01*
X141262068Y-98498047D01*
X141224000Y-98306667D01*
X141224000Y-98111533D01*
X141262068Y-97920153D01*
X141336741Y-97739876D01*
X141445153Y-97577626D01*
X141583126Y-97439653D01*
X141745376Y-97331241D01*
X141925653Y-97256568D01*
X142117033Y-97218500D01*
X142312167Y-97218500D01*
X142503547Y-97256568D01*
X142503547Y-97256568D01*
G37*
M02*
