M48
;DRILL file {KiCad 5.0.2-bee76a0~70~ubuntu18.04.1} date Sun 22 Sep 2019 13:06:57 BST
;FORMAT={-:-/ absolute / inch / decimal}
FMAT,2
INCH,TZ
T1C0.0100
T2C0.0400
%
G90
G05
T1
X5.309Y-4.159
X5.3985Y-3.909
X5.4045Y-4.111
X5.4385Y-4.227
X5.4405Y-3.963
X5.4465Y-4.024
X5.4525Y-4.334
X5.4605Y-3.82
X5.4715Y-3.759
X5.4755Y-3.893
X5.4775Y-4.239
X5.4965Y-3.963
X5.5075Y-4.215
X5.5155Y-4.024
X5.5225Y-3.865
X5.5415Y-3.819
X5.5825Y-4.333
X5.5835Y-3.92
X5.609Y-4.609
X5.6195Y-3.691
X5.6205Y-4.577
X5.6395Y-4.036
X5.6465Y-4.528
X5.6495Y-3.881
X5.6625Y-3.901
X5.6675Y-3.67
X5.6685Y-4.314
X5.6755Y-4.54
X5.6795Y-4.045
X5.6795Y-4.085
X5.6905Y-3.939
X5.6935Y-3.721
X5.6985Y-4.525
X5.7015Y-4.271
X5.7045Y-3.897
X5.7275Y-3.901
X5.7585Y-4.404
X5.7595Y-4.438
X5.7715Y-4.109
X5.7735Y-3.699
X5.7775Y-4.571
X5.7785Y-4.335
X5.7975Y-4.316
X5.8105Y-3.881
X5.8215Y-4.209
X5.8365Y-4.323
X5.8465Y-4.134
X5.8715Y-4.059
X5.8765Y-4.549
X5.8805Y-4.367
X5.8885Y-3.761
X5.8905Y-4.571
X5.8955Y-3.939
X5.8955Y-4.301
X5.8995Y-4.496
X5.909Y-4.1715
X5.9145Y-3.78
X5.9155Y-3.967
X5.9185Y-3.699
X5.9245Y-3.643
X5.9295Y-3.721
X5.9335Y-4.361
X5.9395Y-3.839
X5.9545Y-4.551
X5.9585Y-3.86
X5.9655Y-3.786
X5.9735Y-3.652
X5.9785Y-4.619
X5.9835Y-3.826
X5.984Y-3.6215
X6.0125Y-3.882
X6.0145Y-3.738
X6.0155Y-3.858
X6.0175Y-3.784
X6.0305Y-4.513
X6.0845Y-4.485
X6.0965Y-4.609
X6.1295Y-3.874
X6.1395Y-4.036
X6.149Y-3.8215
X6.1505Y-3.993
X6.1505Y-4.074
X6.1695Y-4.125
X6.1735Y-4.169
X6.1735Y-4.423
X6.1875Y-4.188
X6.2005Y-3.966
X6.2075Y-4.201
X6.2165Y-4.375
X6.2265Y-4.315
X6.2275Y-3.971
X6.2275Y-4.036
X6.2275Y-4.25
X6.2405Y-4.334
X6.2505Y-3.968
X6.2505Y-4.236
X6.2695Y-4.013
X6.2885Y-4.111
X6.3215Y-3.8965
X6.3215Y-4.3715
X6.3285Y-4.267
T2
X5.599Y-3.8665
X5.599Y-4.0665
X5.599Y-4.2665
X5.634Y-3.9665
X5.634Y-4.1665
X5.634Y-4.3665
T0
M30
