G04 #@! TF.GenerationSoftware,KiCad,Pcbnew,5.0.2-bee76a0~70~ubuntu18.04.1*
G04 #@! TF.CreationDate,2019-09-23T19:43:07+01:00*
G04 #@! TF.ProjectId,charliewatch-norf-routed,63686172-6c69-4657-9761-7463682d6e6f,rev?*
G04 #@! TF.SameCoordinates,Original*
G04 #@! TF.FileFunction,Copper,L1,Top*
G04 #@! TF.FilePolarity,Positive*
%FSLAX46Y46*%
G04 Gerber Fmt 4.6, Leading zero omitted, Abs format (unit mm)*
G04 Created by KiCad (PCBNEW 5.0.2-bee76a0~70~ubuntu18.04.1) date Mon 23 Sep 2019 19:43:07 BST*
%MOMM*%
%LPD*%
G01*
G04 APERTURE LIST*
G04 #@! TA.AperFunction,NonConductor*
%ADD10C,0.048768*%
G04 #@! TD*
G04 #@! TA.AperFunction,ComponentPad*
%ADD11R,1.778000X1.778000*%
G04 #@! TD*
G04 #@! TA.AperFunction,ComponentPad*
%ADD12C,1.778000*%
G04 #@! TD*
G04 #@! TA.AperFunction,SMDPad,CuDef*
%ADD13C,0.800000*%
G04 #@! TD*
G04 #@! TA.AperFunction,Conductor*
%ADD14C,0.100000*%
G04 #@! TD*
G04 #@! TA.AperFunction,SMDPad,CuDef*
%ADD15R,0.800000X0.800000*%
G04 #@! TD*
G04 #@! TA.AperFunction,SMDPad,CuDef*
%ADD16R,0.600000X1.100000*%
G04 #@! TD*
G04 #@! TA.AperFunction,SMDPad,CuDef*
%ADD17R,5.588000X5.588000*%
G04 #@! TD*
G04 #@! TA.AperFunction,SMDPad,CuDef*
%ADD18R,0.304800X0.812800*%
G04 #@! TD*
G04 #@! TA.AperFunction,SMDPad,CuDef*
%ADD19R,0.812800X0.304800*%
G04 #@! TD*
G04 #@! TA.AperFunction,SMDPad,CuDef*
%ADD20R,0.700000X0.900000*%
G04 #@! TD*
G04 #@! TA.AperFunction,SMDPad,CuDef*
%ADD21R,1.100000X1.000000*%
G04 #@! TD*
G04 #@! TA.AperFunction,SMDPad,CuDef*
%ADD22R,1.000000X1.000000*%
G04 #@! TD*
G04 #@! TA.AperFunction,SMDPad,CuDef*
%ADD23C,1.000000*%
G04 #@! TD*
G04 #@! TA.AperFunction,ViaPad*
%ADD24C,0.457200*%
G04 #@! TD*
G04 #@! TA.AperFunction,Conductor*
%ADD25C,0.254000*%
G04 #@! TD*
G04 #@! TA.AperFunction,Conductor*
%ADD26C,0.406400*%
G04 #@! TD*
G04 #@! TA.AperFunction,Conductor*
%ADD27C,0.609600*%
G04 #@! TD*
G04 APERTURE END LIST*
D10*
X154823522Y-109596515D02*
X154244402Y-109596515D01*
X154823522Y-109348320D02*
X154520174Y-109348320D01*
X154465020Y-109375897D01*
X154437442Y-109431052D01*
X154437442Y-109513783D01*
X154465020Y-109568937D01*
X154492597Y-109596515D01*
X154437442Y-109155280D02*
X154437442Y-108934663D01*
X154244402Y-109072549D02*
X154740791Y-109072549D01*
X154795945Y-109044972D01*
X154823522Y-108989817D01*
X154823522Y-108934663D01*
X154437442Y-108824355D02*
X154437442Y-108603737D01*
X154244402Y-108741623D02*
X154740791Y-108741623D01*
X154795945Y-108714046D01*
X154823522Y-108658892D01*
X154823522Y-108603737D01*
X154437442Y-108410697D02*
X155016562Y-108410697D01*
X154465020Y-108410697D02*
X154437442Y-108355543D01*
X154437442Y-108245235D01*
X154465020Y-108190080D01*
X154492597Y-108162503D01*
X154547751Y-108134926D01*
X154713214Y-108134926D01*
X154768368Y-108162503D01*
X154795945Y-108190080D01*
X154823522Y-108245235D01*
X154823522Y-108355543D01*
X154795945Y-108410697D01*
X154795945Y-107914309D02*
X154823522Y-107859155D01*
X154823522Y-107748846D01*
X154795945Y-107693692D01*
X154740791Y-107666115D01*
X154713214Y-107666115D01*
X154658060Y-107693692D01*
X154630482Y-107748846D01*
X154630482Y-107831577D01*
X154602905Y-107886732D01*
X154547751Y-107914309D01*
X154520174Y-107914309D01*
X154465020Y-107886732D01*
X154437442Y-107831577D01*
X154437442Y-107748846D01*
X154465020Y-107693692D01*
X154768368Y-107417920D02*
X154795945Y-107390343D01*
X154823522Y-107417920D01*
X154795945Y-107445497D01*
X154768368Y-107417920D01*
X154823522Y-107417920D01*
X154465020Y-107417920D02*
X154492597Y-107390343D01*
X154520174Y-107417920D01*
X154492597Y-107445497D01*
X154465020Y-107417920D01*
X154520174Y-107417920D01*
X154216825Y-106728492D02*
X154961408Y-107224880D01*
X154216825Y-106121795D02*
X154961408Y-106618183D01*
X154437442Y-106011486D02*
X154437442Y-105790869D01*
X154244402Y-105928755D02*
X154740791Y-105928755D01*
X154795945Y-105901177D01*
X154823522Y-105846023D01*
X154823522Y-105790869D01*
X154823522Y-105597829D02*
X154437442Y-105597829D01*
X154547751Y-105597829D02*
X154492597Y-105570252D01*
X154465020Y-105542675D01*
X154437442Y-105487520D01*
X154437442Y-105432366D01*
X154823522Y-105239326D02*
X154437442Y-105239326D01*
X154492597Y-105239326D02*
X154465020Y-105211749D01*
X154437442Y-105156595D01*
X154437442Y-105073863D01*
X154465020Y-105018709D01*
X154520174Y-104991132D01*
X154823522Y-104991132D01*
X154520174Y-104991132D02*
X154465020Y-104963555D01*
X154437442Y-104908400D01*
X154437442Y-104825669D01*
X154465020Y-104770515D01*
X154520174Y-104742937D01*
X154823522Y-104742937D01*
X154823522Y-104467166D02*
X154437442Y-104467166D01*
X154492597Y-104467166D02*
X154465020Y-104439589D01*
X154437442Y-104384435D01*
X154437442Y-104301703D01*
X154465020Y-104246549D01*
X154520174Y-104218972D01*
X154823522Y-104218972D01*
X154520174Y-104218972D02*
X154465020Y-104191395D01*
X154437442Y-104136240D01*
X154437442Y-104053509D01*
X154465020Y-103998355D01*
X154520174Y-103970777D01*
X154823522Y-103970777D01*
X154768368Y-103695006D02*
X154795945Y-103667429D01*
X154823522Y-103695006D01*
X154795945Y-103722583D01*
X154768368Y-103695006D01*
X154823522Y-103695006D01*
X154437442Y-103419235D02*
X154823522Y-103419235D01*
X154492597Y-103419235D02*
X154465020Y-103391657D01*
X154437442Y-103336503D01*
X154437442Y-103253772D01*
X154465020Y-103198617D01*
X154520174Y-103171040D01*
X154823522Y-103171040D01*
X154795945Y-102674652D02*
X154823522Y-102729806D01*
X154823522Y-102840115D01*
X154795945Y-102895269D01*
X154740791Y-102922846D01*
X154520174Y-102922846D01*
X154465020Y-102895269D01*
X154437442Y-102840115D01*
X154437442Y-102729806D01*
X154465020Y-102674652D01*
X154520174Y-102647075D01*
X154575328Y-102647075D01*
X154630482Y-102922846D01*
X154437442Y-102481612D02*
X154437442Y-102260995D01*
X154244402Y-102398880D02*
X154740791Y-102398880D01*
X154795945Y-102371303D01*
X154823522Y-102316149D01*
X154823522Y-102260995D01*
X154216825Y-101654297D02*
X154961408Y-102150686D01*
D11*
G04 #@! TO.P,JP1,1*
G04 #@! TO.N,GND*
X143103600Y-110909100D03*
D12*
G04 #@! TO.P,JP1,2*
G04 #@! TO.N,BSL_VCC*
X142214600Y-108369100D03*
G04 #@! TO.P,JP1,3*
G04 #@! TO.N,BSL_RX*
X143103600Y-105829100D03*
G04 #@! TO.P,JP1,4*
G04 #@! TO.N,BSL_TX*
X142214600Y-103289100D03*
G04 #@! TO.P,JP1,5*
G04 #@! TO.N,BSL_TEST*
X143103600Y-100749100D03*
G04 #@! TO.P,JP1,6*
G04 #@! TO.N,BSL_RST*
X142214600Y-98209100D03*
G04 #@! TD*
D13*
G04 #@! TO.P,LED0,A*
G04 #@! TO.N,B0*
X147094285Y-91626291D03*
D14*
G04 #@! TD*
G04 #@! TO.N,B0*
G04 #@! TO.C,LED0*
G36*
X147450282Y-91186671D02*
X147533905Y-91982288D01*
X146738288Y-92065911D01*
X146654665Y-91270294D01*
X147450282Y-91186671D01*
X147450282Y-91186671D01*
G37*
D13*
G04 #@! TO.P,LED0,C*
G04 #@! TO.N,B1*
X147251077Y-93118073D03*
D14*
G04 #@! TD*
G04 #@! TO.N,B1*
G04 #@! TO.C,LED0*
G36*
X147607074Y-92678453D02*
X147690697Y-93474070D01*
X146895080Y-93557693D01*
X146811457Y-92762076D01*
X147607074Y-92678453D01*
X147607074Y-92678453D01*
G37*
D15*
G04 #@! TO.P,LED1,A*
G04 #@! TO.N,B0*
X148501100Y-91553600D03*
G04 #@! TO.P,LED1,C*
G04 #@! TO.N,B2*
X148501100Y-93053600D03*
G04 #@! TD*
D13*
G04 #@! TO.P,LED25,A*
G04 #@! TO.N,B3*
X149907914Y-118380910D03*
D14*
G04 #@! TD*
G04 #@! TO.N,B3*
G04 #@! TO.C,LED25*
G36*
X149551917Y-118820530D02*
X149468294Y-118024913D01*
X150263911Y-117941290D01*
X150347534Y-118736907D01*
X149551917Y-118820530D01*
X149551917Y-118820530D01*
G37*
D13*
G04 #@! TO.P,LED25,C*
G04 #@! TO.N,B1*
X149751122Y-116889128D03*
D14*
G04 #@! TD*
G04 #@! TO.N,B1*
G04 #@! TO.C,LED25*
G36*
X149395125Y-117328748D02*
X149311502Y-116533131D01*
X150107119Y-116449508D01*
X150190742Y-117245125D01*
X149395125Y-117328748D01*
X149395125Y-117328748D01*
G37*
D13*
G04 #@! TO.P,LED26,A*
G04 #@! TO.N,B3*
X151298634Y-118160352D03*
D14*
G04 #@! TD*
G04 #@! TO.N,B3*
G04 #@! TO.C,LED26*
G36*
X150990540Y-118634776D02*
X150824210Y-117852258D01*
X151606728Y-117685928D01*
X151773058Y-118468446D01*
X150990540Y-118634776D01*
X150990540Y-118634776D01*
G37*
D13*
G04 #@! TO.P,LED26,C*
G04 #@! TO.N,B2*
X150986766Y-116693130D03*
D14*
G04 #@! TD*
G04 #@! TO.N,B2*
G04 #@! TO.C,LED26*
G36*
X150678672Y-117167554D02*
X150512342Y-116385036D01*
X151294860Y-116218706D01*
X151461190Y-117001224D01*
X150678672Y-117167554D01*
X150678672Y-117167554D01*
G37*
D13*
G04 #@! TO.P,LED3,A*
G04 #@! TO.N,B0*
X151298634Y-91846849D03*
D14*
G04 #@! TD*
G04 #@! TO.N,B0*
G04 #@! TO.C,LED3*
G36*
X151773058Y-91538755D02*
X151606728Y-92321273D01*
X150824210Y-92154943D01*
X150990540Y-91372425D01*
X151773058Y-91538755D01*
X151773058Y-91538755D01*
G37*
D13*
G04 #@! TO.P,LED3,C*
G04 #@! TO.N,B4*
X150986766Y-93314071D03*
D14*
G04 #@! TD*
G04 #@! TO.N,B4*
G04 #@! TO.C,LED3*
G36*
X151461190Y-93005977D02*
X151294860Y-93788495D01*
X150512342Y-93622165D01*
X150678672Y-92839647D01*
X151461190Y-93005977D01*
X151461190Y-93005977D01*
G37*
D13*
G04 #@! TO.P,LED11,A*
G04 #@! TO.N,B1*
X160788977Y-99532189D03*
D14*
G04 #@! TD*
G04 #@! TO.N,B1*
G04 #@! TO.C,LED11*
G36*
X161317090Y-99734913D02*
X160586253Y-100060302D01*
X160260864Y-99329465D01*
X160991701Y-99004076D01*
X161317090Y-99734913D01*
X161317090Y-99734913D01*
G37*
D13*
G04 #@! TO.P,LED11,C*
G04 #@! TO.N,B4*
X159418659Y-100142293D03*
D14*
G04 #@! TD*
G04 #@! TO.N,B4*
G04 #@! TO.C,LED11*
G36*
X159946772Y-100345017D02*
X159215935Y-100670406D01*
X158890546Y-99939569D01*
X159621383Y-99614180D01*
X159946772Y-100345017D01*
X159946772Y-100345017D01*
G37*
D13*
G04 #@! TO.P,LED19,A*
G04 #@! TO.N,B2*
X161292092Y-109159663D03*
D14*
G04 #@! TD*
G04 #@! TO.N,B2*
G04 #@! TO.C,LED19*
G36*
X161548908Y-109663692D02*
X160788063Y-109416479D01*
X161035276Y-108655634D01*
X161796121Y-108902847D01*
X161548908Y-109663692D01*
X161548908Y-109663692D01*
G37*
D13*
G04 #@! TO.P,LED19,C*
G04 #@! TO.N,B4*
X159865508Y-108696137D03*
D14*
G04 #@! TD*
G04 #@! TO.N,B4*
G04 #@! TO.C,LED19*
G36*
X160122324Y-109200166D02*
X159361479Y-108952953D01*
X159608692Y-108192108D01*
X160369537Y-108439321D01*
X160122324Y-109200166D01*
X160122324Y-109200166D01*
G37*
D13*
G04 #@! TO.P,LED27,A*
G04 #@! TO.N,B3*
X152657163Y-117794592D03*
D14*
G04 #@! TD*
G04 #@! TO.N,B3*
G04 #@! TO.C,LED27*
G36*
X152400347Y-118298621D02*
X152153134Y-117537776D01*
X152913979Y-117290563D01*
X153161192Y-118051408D01*
X152400347Y-118298621D01*
X152400347Y-118298621D01*
G37*
D13*
G04 #@! TO.P,LED27,C*
G04 #@! TO.N,B4*
X152193637Y-116368008D03*
D14*
G04 #@! TD*
G04 #@! TO.N,B4*
G04 #@! TO.C,LED27*
G36*
X151936821Y-116872037D02*
X151689608Y-116111192D01*
X152450453Y-115863979D01*
X152697666Y-116624824D01*
X151936821Y-116872037D01*
X151936821Y-116872037D01*
G37*
D13*
G04 #@! TO.P,LED32,A*
G04 #@! TO.N,B4*
X147094285Y-118380910D03*
D14*
G04 #@! TD*
G04 #@! TO.N,B4*
G04 #@! TO.C,LED32*
G36*
X146654665Y-118736907D02*
X146738288Y-117941290D01*
X147533905Y-118024913D01*
X147450282Y-118820530D01*
X146654665Y-118736907D01*
X146654665Y-118736907D01*
G37*
D13*
G04 #@! TO.P,LED32,C*
G04 #@! TO.N,B0*
X147251077Y-116889128D03*
D14*
G04 #@! TD*
G04 #@! TO.N,B0*
G04 #@! TO.C,LED32*
G36*
X146811457Y-117245125D02*
X146895080Y-116449508D01*
X147690697Y-116533131D01*
X147607074Y-117328748D01*
X146811457Y-117245125D01*
X146811457Y-117245125D01*
G37*
D13*
G04 #@! TO.P,LED33,A*
G04 #@! TO.N,B4*
X145703566Y-118160352D03*
D14*
G04 #@! TD*
G04 #@! TO.N,B4*
G04 #@! TO.C,LED33*
G36*
X145229142Y-118468446D02*
X145395472Y-117685928D01*
X146177990Y-117852258D01*
X146011660Y-118634776D01*
X145229142Y-118468446D01*
X145229142Y-118468446D01*
G37*
D13*
G04 #@! TO.P,LED33,C*
G04 #@! TO.N,B1*
X146015434Y-116693130D03*
D14*
G04 #@! TD*
G04 #@! TO.N,B1*
G04 #@! TO.C,LED33*
G36*
X145541010Y-117001224D02*
X145707340Y-116218706D01*
X146489858Y-116385036D01*
X146323528Y-117167554D01*
X145541010Y-117001224D01*
X145541010Y-117001224D01*
G37*
D13*
G04 #@! TO.P,LED34,A*
G04 #@! TO.N,B4*
X144345037Y-117794592D03*
D14*
G04 #@! TD*
G04 #@! TO.N,B4*
G04 #@! TO.C,LED34*
G36*
X143841008Y-118051408D02*
X144088221Y-117290563D01*
X144849066Y-117537776D01*
X144601853Y-118298621D01*
X143841008Y-118051408D01*
X143841008Y-118051408D01*
G37*
D13*
G04 #@! TO.P,LED34,C*
G04 #@! TO.N,B2*
X144808563Y-116368008D03*
D14*
G04 #@! TD*
G04 #@! TO.N,B2*
G04 #@! TO.C,LED34*
G36*
X144304534Y-116624824D02*
X144551747Y-115863979D01*
X145312592Y-116111192D01*
X145065379Y-116872037D01*
X144304534Y-116624824D01*
X144304534Y-116624824D01*
G37*
D13*
G04 #@! TO.P,LED35,A*
G04 #@! TO.N,B4*
X143029688Y-117291478D03*
D14*
G04 #@! TD*
G04 #@! TO.N,B4*
G04 #@! TO.C,LED35*
G36*
X142501575Y-117494202D02*
X142826964Y-116763365D01*
X143557801Y-117088754D01*
X143232412Y-117819591D01*
X142501575Y-117494202D01*
X142501575Y-117494202D01*
G37*
D13*
G04 #@! TO.P,LED35,C*
G04 #@! TO.N,B3*
X143639792Y-115921160D03*
D14*
G04 #@! TD*
G04 #@! TO.N,B3*
G04 #@! TO.C,LED35*
G36*
X143111679Y-116123884D02*
X143437068Y-115393047D01*
X144167905Y-115718436D01*
X143842516Y-116449273D01*
X143111679Y-116123884D01*
X143111679Y-116123884D01*
G37*
D13*
G04 #@! TO.P,LED2,A*
G04 #@! TO.N,B0*
X149907914Y-91626291D03*
D14*
G04 #@! TD*
G04 #@! TO.N,B0*
G04 #@! TO.C,LED2*
G36*
X150347534Y-91270294D02*
X150263911Y-92065911D01*
X149468294Y-91982288D01*
X149551917Y-91186671D01*
X150347534Y-91270294D01*
X150347534Y-91270294D01*
G37*
D13*
G04 #@! TO.P,LED2,C*
G04 #@! TO.N,B3*
X149751122Y-93118073D03*
D14*
G04 #@! TD*
G04 #@! TO.N,B3*
G04 #@! TO.C,LED2*
G36*
X150190742Y-92762076D02*
X150107119Y-93557693D01*
X149311502Y-93474070D01*
X149395125Y-92678453D01*
X150190742Y-92762076D01*
X150190742Y-92762076D01*
G37*
D13*
G04 #@! TO.P,LED48,A*
G04 #@! TO.N,B6*
X135344348Y-102206066D03*
D14*
G04 #@! TD*
G04 #@! TO.N,B6*
G04 #@! TO.C,LED48*
G36*
X135036254Y-101731642D02*
X135818772Y-101897972D01*
X135652442Y-102680490D01*
X134869924Y-102514160D01*
X135036254Y-101731642D01*
X135036254Y-101731642D01*
G37*
D13*
G04 #@! TO.P,LED48,C*
G04 #@! TO.N,B0*
X136811570Y-102517934D03*
D14*
G04 #@! TD*
G04 #@! TO.N,B0*
G04 #@! TO.C,LED48*
G36*
X136503476Y-102043510D02*
X137285994Y-102209840D01*
X137119664Y-102992358D01*
X136337146Y-102826028D01*
X136503476Y-102043510D01*
X136503476Y-102043510D01*
G37*
D15*
G04 #@! TO.P,LED56,A*
G04 #@! TO.N,B7*
X148501100Y-114004660D03*
G04 #@! TO.P,LED56,C*
G04 #@! TO.N,B0*
X148501100Y-115504660D03*
G04 #@! TD*
G04 #@! TO.P,LED64,A*
G04 #@! TO.N,B8*
X157502159Y-105003600D03*
G04 #@! TO.P,LED64,C*
G04 #@! TO.N,B0*
X159002159Y-105003600D03*
G04 #@! TD*
G04 #@! TO.P,LED41,A*
G04 #@! TO.N,B5*
X135051100Y-105003600D03*
G04 #@! TO.P,LED41,C*
G04 #@! TO.N,B1*
X136551100Y-105003600D03*
G04 #@! TD*
G04 #@! TO.P,LED57,A*
G04 #@! TO.N,B7*
X148501100Y-96002541D03*
G04 #@! TO.P,LED57,C*
G04 #@! TO.N,B1*
X148501100Y-94502541D03*
G04 #@! TD*
G04 #@! TO.P,LED65,A*
G04 #@! TO.N,B8*
X139500040Y-105003600D03*
G04 #@! TO.P,LED65,C*
G04 #@! TO.N,B1*
X138000040Y-105003600D03*
G04 #@! TD*
D13*
G04 #@! TO.P,LED42,A*
G04 #@! TO.N,B5*
X135123790Y-106410415D03*
D14*
G04 #@! TD*
G04 #@! TO.N,B5*
G04 #@! TO.C,LED42*
G36*
X134684170Y-106054418D02*
X135479787Y-105970795D01*
X135563410Y-106766412D01*
X134767793Y-106850035D01*
X134684170Y-106054418D01*
X134684170Y-106054418D01*
G37*
D13*
G04 #@! TO.P,LED42,C*
G04 #@! TO.N,B2*
X136615572Y-106253623D03*
D14*
G04 #@! TD*
G04 #@! TO.N,B2*
G04 #@! TO.C,LED42*
G36*
X136175952Y-105897626D02*
X136971569Y-105814003D01*
X137055192Y-106609620D01*
X136259575Y-106693243D01*
X136175952Y-105897626D01*
X136175952Y-105897626D01*
G37*
D13*
G04 #@! TO.P,LED50,A*
G04 #@! TO.N,B6*
X136213222Y-99532189D03*
D14*
G04 #@! TD*
G04 #@! TO.N,B6*
G04 #@! TO.C,LED50*
G36*
X136010498Y-99004076D02*
X136741335Y-99329465D01*
X136415946Y-100060302D01*
X135685109Y-99734913D01*
X136010498Y-99004076D01*
X136010498Y-99004076D01*
G37*
D13*
G04 #@! TO.P,LED50,C*
G04 #@! TO.N,B2*
X137583540Y-100142293D03*
D14*
G04 #@! TD*
G04 #@! TO.N,B2*
G04 #@! TO.C,LED50*
G36*
X137380816Y-99614180D02*
X138111653Y-99939569D01*
X137786264Y-100670406D01*
X137055427Y-100345017D01*
X137380816Y-99614180D01*
X137380816Y-99614180D01*
G37*
D13*
G04 #@! TO.P,LED66,A*
G04 #@! TO.N,B8*
X156294540Y-109502860D03*
D14*
G04 #@! TD*
G04 #@! TO.N,B8*
G04 #@! TO.C,LED66*
G36*
X156148130Y-108956450D02*
X156840950Y-109356450D01*
X156440950Y-110049270D01*
X155748130Y-109649270D01*
X156148130Y-108956450D01*
X156148130Y-108956450D01*
G37*
D13*
G04 #@! TO.P,LED66,C*
G04 #@! TO.N,B2*
X157593578Y-110252860D03*
D14*
G04 #@! TD*
G04 #@! TO.N,B2*
G04 #@! TO.C,LED66*
G36*
X157447168Y-109706450D02*
X158139988Y-110106450D01*
X157739988Y-110799270D01*
X157047168Y-110399270D01*
X157447168Y-109706450D01*
X157447168Y-109706450D01*
G37*
D13*
G04 #@! TO.P,LED43,A*
G04 #@! TO.N,B5*
X135344348Y-107801134D03*
D14*
G04 #@! TD*
G04 #@! TO.N,B5*
G04 #@! TO.C,LED43*
G36*
X134869924Y-107493040D02*
X135652442Y-107326710D01*
X135818772Y-108109228D01*
X135036254Y-108275558D01*
X134869924Y-107493040D01*
X134869924Y-107493040D01*
G37*
D13*
G04 #@! TO.P,LED43,C*
G04 #@! TO.N,B3*
X136811570Y-107489266D03*
D14*
G04 #@! TD*
G04 #@! TO.N,B3*
G04 #@! TO.C,LED43*
G36*
X136337146Y-107181172D02*
X137119664Y-107014842D01*
X137285994Y-107797360D01*
X136503476Y-107963690D01*
X136337146Y-107181172D01*
X136337146Y-107181172D01*
G37*
D13*
G04 #@! TO.P,LED8,A*
G04 #@! TO.N,B1*
X161878409Y-103596786D03*
D14*
G04 #@! TD*
G04 #@! TO.N,B1*
G04 #@! TO.C,LED8*
G36*
X162318029Y-103952783D02*
X161522412Y-104036406D01*
X161438789Y-103240789D01*
X162234406Y-103157166D01*
X162318029Y-103952783D01*
X162318029Y-103952783D01*
G37*
D13*
G04 #@! TO.P,LED8,C*
G04 #@! TO.N,B0*
X160386627Y-103753578D03*
D14*
G04 #@! TD*
G04 #@! TO.N,B0*
G04 #@! TO.C,LED8*
G36*
X160826247Y-104109575D02*
X160030630Y-104193198D01*
X159947007Y-103397581D01*
X160742624Y-103313958D01*
X160826247Y-104109575D01*
X160826247Y-104109575D01*
G37*
D13*
G04 #@! TO.P,LED51,A*
G04 #@! TO.N,B6*
X136853381Y-98278600D03*
D14*
G04 #@! TD*
G04 #@! TO.N,B6*
G04 #@! TO.C,LED51*
G36*
X136706971Y-97732190D02*
X137399791Y-98132190D01*
X136999791Y-98825010D01*
X136306971Y-98425010D01*
X136706971Y-97732190D01*
X136706971Y-97732190D01*
G37*
D13*
G04 #@! TO.P,LED51,C*
G04 #@! TO.N,B3*
X138152419Y-99028600D03*
D14*
G04 #@! TD*
G04 #@! TO.N,B3*
G04 #@! TO.C,LED51*
G36*
X138006009Y-98482190D02*
X138698829Y-98882190D01*
X138298829Y-99575010D01*
X137606009Y-99175010D01*
X138006009Y-98482190D01*
X138006009Y-98482190D01*
G37*
D13*
G04 #@! TO.P,LED59,A*
G04 #@! TO.N,B7*
X153000359Y-97210160D03*
D14*
G04 #@! TD*
G04 #@! TO.N,B7*
G04 #@! TO.C,LED59*
G36*
X152453949Y-97356570D02*
X152853949Y-96663750D01*
X153546769Y-97063750D01*
X153146769Y-97756570D01*
X152453949Y-97356570D01*
X152453949Y-97356570D01*
G37*
D13*
G04 #@! TO.P,LED59,C*
G04 #@! TO.N,B3*
X153750359Y-95911122D03*
D14*
G04 #@! TD*
G04 #@! TO.N,B3*
G04 #@! TO.C,LED59*
G36*
X153203949Y-96057532D02*
X153603949Y-95364712D01*
X154296769Y-95764712D01*
X153896769Y-96457532D01*
X153203949Y-96057532D01*
X153203949Y-96057532D01*
G37*
D13*
G04 #@! TO.P,LED44,A*
G04 #@! TO.N,B5*
X135710108Y-109159663D03*
D14*
G04 #@! TD*
G04 #@! TO.N,B5*
G04 #@! TO.C,LED44*
G36*
X135206079Y-108902847D02*
X135966924Y-108655634D01*
X136214137Y-109416479D01*
X135453292Y-109663692D01*
X135206079Y-108902847D01*
X135206079Y-108902847D01*
G37*
D13*
G04 #@! TO.P,LED44,C*
G04 #@! TO.N,B4*
X137136692Y-108696137D03*
D14*
G04 #@! TD*
G04 #@! TO.N,B4*
G04 #@! TO.C,LED44*
G36*
X136632663Y-108439321D02*
X137393508Y-108192108D01*
X137640721Y-108952953D01*
X136879876Y-109200166D01*
X136632663Y-108439321D01*
X136632663Y-108439321D01*
G37*
D13*
G04 #@! TO.P,LED52,A*
G04 #@! TO.N,B6*
X137620037Y-97097702D03*
D14*
G04 #@! TD*
G04 #@! TO.N,B6*
G04 #@! TO.C,LED52*
G36*
X137531544Y-96538981D02*
X138178758Y-97009209D01*
X137708530Y-97656423D01*
X137061316Y-97186195D01*
X137531544Y-96538981D01*
X137531544Y-96538981D01*
G37*
D13*
G04 #@! TO.P,LED52,C*
G04 #@! TO.N,B4*
X138833563Y-97979380D03*
D14*
G04 #@! TD*
G04 #@! TO.N,B4*
G04 #@! TO.C,LED52*
G36*
X138745070Y-97420659D02*
X139392284Y-97890887D01*
X138922056Y-98538101D01*
X138274842Y-98067873D01*
X138745070Y-97420659D01*
X138745070Y-97420659D01*
G37*
D13*
G04 #@! TO.P,LED60,A*
G04 #@! TO.N,B7*
X145703566Y-91846849D03*
D14*
G04 #@! TD*
G04 #@! TO.N,B7*
G04 #@! TO.C,LED60*
G36*
X146011660Y-91372425D02*
X146177990Y-92154943D01*
X145395472Y-92321273D01*
X145229142Y-91538755D01*
X146011660Y-91372425D01*
X146011660Y-91372425D01*
G37*
D13*
G04 #@! TO.P,LED60,C*
G04 #@! TO.N,B4*
X146015434Y-93314071D03*
D14*
G04 #@! TD*
G04 #@! TO.N,B4*
G04 #@! TO.C,LED60*
G36*
X146323528Y-92839647D02*
X146489858Y-93622165D01*
X145707340Y-93788495D01*
X145541010Y-93005977D01*
X146323528Y-92839647D01*
X146323528Y-92839647D01*
G37*
D13*
G04 #@! TO.P,LED68,A*
G04 #@! TO.N,B8*
X144001840Y-97210160D03*
D14*
G04 #@! TD*
G04 #@! TO.N,B8*
G04 #@! TO.C,LED68*
G36*
X143855430Y-97756570D02*
X143455430Y-97063750D01*
X144148250Y-96663750D01*
X144548250Y-97356570D01*
X143855430Y-97756570D01*
X143855430Y-97756570D01*
G37*
D13*
G04 #@! TO.P,LED68,C*
G04 #@! TO.N,B4*
X143251840Y-95911122D03*
D14*
G04 #@! TD*
G04 #@! TO.N,B4*
G04 #@! TO.C,LED68*
G36*
X143105430Y-96457532D02*
X142705430Y-95764712D01*
X143398250Y-95364712D01*
X143798250Y-96057532D01*
X143105430Y-96457532D01*
X143105430Y-96457532D01*
G37*
D13*
G04 #@! TO.P,LED9,A*
G04 #@! TO.N,B1*
X161657851Y-102206066D03*
D14*
G04 #@! TD*
G04 #@! TO.N,B1*
G04 #@! TO.C,LED9*
G36*
X162132275Y-102514160D02*
X161349757Y-102680490D01*
X161183427Y-101897972D01*
X161965945Y-101731642D01*
X162132275Y-102514160D01*
X162132275Y-102514160D01*
G37*
D13*
G04 #@! TO.P,LED9,C*
G04 #@! TO.N,B2*
X160190629Y-102517934D03*
D14*
G04 #@! TD*
G04 #@! TO.N,B2*
G04 #@! TO.C,LED9*
G36*
X160665053Y-102826028D02*
X159882535Y-102992358D01*
X159716205Y-102209840D01*
X160498723Y-102043510D01*
X160665053Y-102826028D01*
X160665053Y-102826028D01*
G37*
D13*
G04 #@! TO.P,LED12,A*
G04 #@! TO.N,B1*
X160148819Y-98278600D03*
D14*
G04 #@! TD*
G04 #@! TO.N,B1*
G04 #@! TO.C,LED12*
G36*
X160695229Y-98425010D02*
X160002409Y-98825010D01*
X159602409Y-98132190D01*
X160295229Y-97732190D01*
X160695229Y-98425010D01*
X160695229Y-98425010D01*
G37*
D13*
G04 #@! TO.P,LED12,C*
G04 #@! TO.N,B5*
X158849781Y-99028600D03*
D14*
G04 #@! TD*
G04 #@! TO.N,B5*
G04 #@! TO.C,LED12*
G36*
X159396191Y-99175010D02*
X158703371Y-99575010D01*
X158303371Y-98882190D01*
X158996191Y-98482190D01*
X159396191Y-99175010D01*
X159396191Y-99175010D01*
G37*
D13*
G04 #@! TO.P,LED20,A*
G04 #@! TO.N,B2*
X160788977Y-110475012D03*
D14*
G04 #@! TD*
G04 #@! TO.N,B2*
G04 #@! TO.C,LED20*
G36*
X160991701Y-111003125D02*
X160260864Y-110677736D01*
X160586253Y-109946899D01*
X161317090Y-110272288D01*
X160991701Y-111003125D01*
X160991701Y-111003125D01*
G37*
D13*
G04 #@! TO.P,LED20,C*
G04 #@! TO.N,B5*
X159418659Y-109864908D03*
D14*
G04 #@! TD*
G04 #@! TO.N,B5*
G04 #@! TO.C,LED20*
G36*
X159621383Y-110393021D02*
X158890546Y-110067632D01*
X159215935Y-109336795D01*
X159946772Y-109662184D01*
X159621383Y-110393021D01*
X159621383Y-110393021D01*
G37*
D13*
G04 #@! TO.P,LED28,A*
G04 #@! TO.N,B3*
X153972511Y-117291478D03*
D14*
G04 #@! TD*
G04 #@! TO.N,B3*
G04 #@! TO.C,LED28*
G36*
X153769787Y-117819591D02*
X153444398Y-117088754D01*
X154175235Y-116763365D01*
X154500624Y-117494202D01*
X153769787Y-117819591D01*
X153769787Y-117819591D01*
G37*
D13*
G04 #@! TO.P,LED28,C*
G04 #@! TO.N,B5*
X153362407Y-115921160D03*
D14*
G04 #@! TD*
G04 #@! TO.N,B5*
G04 #@! TO.C,LED28*
G36*
X153159683Y-116449273D02*
X152834294Y-115718436D01*
X153565131Y-115393047D01*
X153890520Y-116123884D01*
X153159683Y-116449273D01*
X153159683Y-116449273D01*
G37*
D13*
G04 #@! TO.P,LED5,A*
G04 #@! TO.N,B0*
X153972511Y-92715723D03*
D14*
G04 #@! TD*
G04 #@! TO.N,B0*
G04 #@! TO.C,LED5*
G36*
X154500624Y-92512999D02*
X154175235Y-93243836D01*
X153444398Y-92918447D01*
X153769787Y-92187610D01*
X154500624Y-92512999D01*
X154500624Y-92512999D01*
G37*
D13*
G04 #@! TO.P,LED5,C*
G04 #@! TO.N,B6*
X153362407Y-94086041D03*
D14*
G04 #@! TD*
G04 #@! TO.N,B6*
G04 #@! TO.C,LED5*
G36*
X153890520Y-93883317D02*
X153565131Y-94614154D01*
X152834294Y-94288765D01*
X153159683Y-93557928D01*
X153890520Y-93883317D01*
X153890520Y-93883317D01*
G37*
D13*
G04 #@! TO.P,LED21,A*
G04 #@! TO.N,B2*
X160148819Y-111728600D03*
D14*
G04 #@! TD*
G04 #@! TO.N,B2*
G04 #@! TO.C,LED21*
G36*
X160295229Y-112275010D02*
X159602409Y-111875010D01*
X160002409Y-111182190D01*
X160695229Y-111582190D01*
X160295229Y-112275010D01*
X160295229Y-112275010D01*
G37*
D13*
G04 #@! TO.P,LED21,C*
G04 #@! TO.N,B6*
X158849781Y-110978600D03*
D14*
G04 #@! TD*
G04 #@! TO.N,B6*
G04 #@! TO.C,LED21*
G36*
X158996191Y-111525010D02*
X158303371Y-111125010D01*
X158703371Y-110432190D01*
X159396191Y-110832190D01*
X158996191Y-111525010D01*
X158996191Y-111525010D01*
G37*
D13*
G04 #@! TO.P,LED29,A*
G04 #@! TO.N,B3*
X155226100Y-116651319D03*
D14*
G04 #@! TD*
G04 #@! TO.N,B3*
G04 #@! TO.C,LED29*
G36*
X155079690Y-117197729D02*
X154679690Y-116504909D01*
X155372510Y-116104909D01*
X155772510Y-116797729D01*
X155079690Y-117197729D01*
X155079690Y-117197729D01*
G37*
D13*
G04 #@! TO.P,LED29,C*
G04 #@! TO.N,B6*
X154476100Y-115352281D03*
D14*
G04 #@! TD*
G04 #@! TO.N,B6*
G04 #@! TO.C,LED29*
G36*
X154329690Y-115898691D02*
X153929690Y-115205871D01*
X154622510Y-114805871D01*
X155022510Y-115498691D01*
X154329690Y-115898691D01*
X154329690Y-115898691D01*
G37*
D13*
G04 #@! TO.P,LED6,A*
G04 #@! TO.N,B0*
X155226100Y-93355881D03*
D14*
G04 #@! TD*
G04 #@! TO.N,B0*
G04 #@! TO.C,LED6*
G36*
X155772510Y-93209471D02*
X155372510Y-93902291D01*
X154679690Y-93502291D01*
X155079690Y-92809471D01*
X155772510Y-93209471D01*
X155772510Y-93209471D01*
G37*
D13*
G04 #@! TO.P,LED6,C*
G04 #@! TO.N,B7*
X154476100Y-94654919D03*
D14*
G04 #@! TD*
G04 #@! TO.N,B7*
G04 #@! TO.C,LED6*
G36*
X155022510Y-94508509D02*
X154622510Y-95201329D01*
X153929690Y-94801329D01*
X154329690Y-94108509D01*
X155022510Y-94508509D01*
X155022510Y-94508509D01*
G37*
D13*
G04 #@! TO.P,LED14,A*
G04 #@! TO.N,B1*
X158497099Y-96002912D03*
D14*
G04 #@! TD*
G04 #@! TO.N,B1*
G04 #@! TO.C,LED14*
G36*
X159062009Y-96032518D02*
X158467493Y-96567822D01*
X157932189Y-95973306D01*
X158526705Y-95438002D01*
X159062009Y-96032518D01*
X159062009Y-96032518D01*
G37*
D13*
G04 #@! TO.P,LED14,C*
G04 #@! TO.N,B7*
X157382381Y-97006608D03*
D14*
G04 #@! TD*
G04 #@! TO.N,B7*
G04 #@! TO.C,LED14*
G36*
X157947291Y-97036214D02*
X157352775Y-97571518D01*
X156817471Y-96977002D01*
X157411987Y-96441698D01*
X157947291Y-97036214D01*
X157947291Y-97036214D01*
G37*
D13*
G04 #@! TO.P,LED30,A*
G04 #@! TO.N,B3*
X156406998Y-115884663D03*
D14*
G04 #@! TD*
G04 #@! TO.N,B3*
G04 #@! TO.C,LED30*
G36*
X156318505Y-116443384D02*
X155848277Y-115796170D01*
X156495491Y-115325942D01*
X156965719Y-115973156D01*
X156318505Y-116443384D01*
X156318505Y-116443384D01*
G37*
D13*
G04 #@! TO.P,LED30,C*
G04 #@! TO.N,B7*
X155525320Y-114671137D03*
D14*
G04 #@! TD*
G04 #@! TO.N,B7*
G04 #@! TO.C,LED30*
G36*
X155436827Y-115229858D02*
X154966599Y-114582644D01*
X155613813Y-114112416D01*
X156084041Y-114759630D01*
X155436827Y-115229858D01*
X155436827Y-115229858D01*
G37*
D13*
G04 #@! TO.P,LED7,A*
G04 #@! TO.N,B0*
X156406998Y-94122537D03*
D14*
G04 #@! TD*
G04 #@! TO.N,B0*
G04 #@! TO.C,LED7*
G36*
X156965719Y-94034044D02*
X156495491Y-94681258D01*
X155848277Y-94211030D01*
X156318505Y-93563816D01*
X156965719Y-94034044D01*
X156965719Y-94034044D01*
G37*
D13*
G04 #@! TO.P,LED7,C*
G04 #@! TO.N,B8*
X155525320Y-95336063D03*
D14*
G04 #@! TD*
G04 #@! TO.N,B8*
G04 #@! TO.C,LED7*
G36*
X156084041Y-95247570D02*
X155613813Y-95894784D01*
X154966599Y-95424556D01*
X155436827Y-94777342D01*
X156084041Y-95247570D01*
X156084041Y-95247570D01*
G37*
D13*
G04 #@! TO.P,LED10,A*
G04 #@! TO.N,B1*
X161292092Y-100847537D03*
D14*
G04 #@! TD*
G04 #@! TO.N,B1*
G04 #@! TO.C,LED10*
G36*
X161796121Y-101104353D02*
X161035276Y-101351566D01*
X160788063Y-100590721D01*
X161548908Y-100343508D01*
X161796121Y-101104353D01*
X161796121Y-101104353D01*
G37*
D13*
G04 #@! TO.P,LED10,C*
G04 #@! TO.N,B3*
X159865508Y-101311063D03*
D14*
G04 #@! TD*
G04 #@! TO.N,B3*
G04 #@! TO.C,LED10*
G36*
X160369537Y-101567879D02*
X159608692Y-101815092D01*
X159361479Y-101054247D01*
X160122324Y-100807034D01*
X160369537Y-101567879D01*
X160369537Y-101567879D01*
G37*
D13*
G04 #@! TO.P,LED15,A*
G04 #@! TO.N,B1*
X157501788Y-95007601D03*
D14*
G04 #@! TD*
G04 #@! TO.N,B1*
G04 #@! TO.C,LED15*
G36*
X158066698Y-94977995D02*
X157531394Y-95572511D01*
X156936878Y-95037207D01*
X157472182Y-94442691D01*
X158066698Y-94977995D01*
X158066698Y-94977995D01*
G37*
D13*
G04 #@! TO.P,LED15,C*
G04 #@! TO.N,B8*
X156498092Y-96122319D03*
D14*
G04 #@! TD*
G04 #@! TO.N,B8*
G04 #@! TO.C,LED15*
G36*
X157063002Y-96092713D02*
X156527698Y-96687229D01*
X155933182Y-96151925D01*
X156468486Y-95557409D01*
X157063002Y-96092713D01*
X157063002Y-96092713D01*
G37*
D13*
G04 #@! TO.P,LED23,A*
G04 #@! TO.N,B2*
X158497099Y-114004289D03*
D14*
G04 #@! TD*
G04 #@! TO.N,B2*
G04 #@! TO.C,LED23*
G36*
X158526705Y-114569199D02*
X157932189Y-114033895D01*
X158467493Y-113439379D01*
X159062009Y-113974683D01*
X158526705Y-114569199D01*
X158526705Y-114569199D01*
G37*
D13*
G04 #@! TO.P,LED23,C*
G04 #@! TO.N,B8*
X157382381Y-113000593D03*
D14*
G04 #@! TD*
G04 #@! TO.N,B8*
G04 #@! TO.C,LED23*
G36*
X157411987Y-113565503D02*
X156817471Y-113030199D01*
X157352775Y-112435683D01*
X157947291Y-112970987D01*
X157411987Y-113565503D01*
X157411987Y-113565503D01*
G37*
D13*
G04 #@! TO.P,LED36,A*
G04 #@! TO.N,B4*
X141776100Y-116651319D03*
D14*
G04 #@! TD*
G04 #@! TO.N,B4*
G04 #@! TO.C,LED36*
G36*
X141229690Y-116797729D02*
X141629690Y-116104909D01*
X142322510Y-116504909D01*
X141922510Y-117197729D01*
X141229690Y-116797729D01*
X141229690Y-116797729D01*
G37*
D13*
G04 #@! TO.P,LED36,C*
G04 #@! TO.N,B5*
X142526100Y-115352281D03*
D14*
G04 #@! TD*
G04 #@! TO.N,B5*
G04 #@! TO.C,LED36*
G36*
X141979690Y-115498691D02*
X142379690Y-114805871D01*
X143072510Y-115205871D01*
X142672510Y-115898691D01*
X141979690Y-115498691D01*
X141979690Y-115498691D01*
G37*
D13*
G04 #@! TO.P,LED37,A*
G04 #@! TO.N,B4*
X140595201Y-115884663D03*
D14*
G04 #@! TD*
G04 #@! TO.N,B4*
G04 #@! TO.C,LED37*
G36*
X140036480Y-115973156D02*
X140506708Y-115325942D01*
X141153922Y-115796170D01*
X140683694Y-116443384D01*
X140036480Y-115973156D01*
X140036480Y-115973156D01*
G37*
D13*
G04 #@! TO.P,LED37,C*
G04 #@! TO.N,B6*
X141476879Y-114671137D03*
D14*
G04 #@! TD*
G04 #@! TO.N,B6*
G04 #@! TO.C,LED37*
G36*
X140918158Y-114759630D02*
X141388386Y-114112416D01*
X142035600Y-114582644D01*
X141565372Y-115229858D01*
X140918158Y-114759630D01*
X140918158Y-114759630D01*
G37*
D13*
G04 #@! TO.P,LED38,A*
G04 #@! TO.N,B4*
X139500411Y-114999600D03*
D14*
G04 #@! TD*
G04 #@! TO.N,B4*
G04 #@! TO.C,LED38*
G36*
X138935501Y-115029206D02*
X139470805Y-114434690D01*
X140065321Y-114969994D01*
X139530017Y-115564510D01*
X138935501Y-115029206D01*
X138935501Y-115029206D01*
G37*
D13*
G04 #@! TO.P,LED38,C*
G04 #@! TO.N,B7*
X140504107Y-113884882D03*
D14*
G04 #@! TD*
G04 #@! TO.N,B7*
G04 #@! TO.C,LED38*
G36*
X139939197Y-113914488D02*
X140474501Y-113319972D01*
X141069017Y-113855276D01*
X140533713Y-114449792D01*
X139939197Y-113914488D01*
X139939197Y-113914488D01*
G37*
D13*
G04 #@! TO.P,LED39,A*
G04 #@! TO.N,B4*
X138505100Y-114004289D03*
D14*
G04 #@! TD*
G04 #@! TO.N,B4*
G04 #@! TO.C,LED39*
G36*
X137940190Y-113974683D02*
X138534706Y-113439379D01*
X139070010Y-114033895D01*
X138475494Y-114569199D01*
X137940190Y-113974683D01*
X137940190Y-113974683D01*
G37*
D13*
G04 #@! TO.P,LED39,C*
G04 #@! TO.N,B8*
X139619818Y-113000593D03*
D14*
G04 #@! TD*
G04 #@! TO.N,B8*
G04 #@! TO.C,LED39*
G36*
X139054908Y-112970987D02*
X139649424Y-112435683D01*
X140184728Y-113030199D01*
X139590212Y-113565503D01*
X139054908Y-112970987D01*
X139054908Y-112970987D01*
G37*
D15*
G04 #@! TO.P,LED16,A*
G04 #@! TO.N,B2*
X161951100Y-105003600D03*
G04 #@! TO.P,LED16,C*
G04 #@! TO.N,B0*
X160451100Y-105003600D03*
G04 #@! TD*
D13*
G04 #@! TO.P,LED53,A*
G04 #@! TO.N,B6*
X138505100Y-96002912D03*
D14*
G04 #@! TD*
G04 #@! TO.N,B6*
G04 #@! TO.C,LED53*
G36*
X138475494Y-95438002D02*
X139070010Y-95973306D01*
X138534706Y-96567822D01*
X137940190Y-96032518D01*
X138475494Y-95438002D01*
X138475494Y-95438002D01*
G37*
D13*
G04 #@! TO.P,LED53,C*
G04 #@! TO.N,B5*
X139619818Y-97006608D03*
D14*
G04 #@! TD*
G04 #@! TO.N,B5*
G04 #@! TO.C,LED53*
G36*
X139590212Y-96441698D02*
X140184728Y-96977002D01*
X139649424Y-97571518D01*
X139054908Y-97036214D01*
X139590212Y-96441698D01*
X139590212Y-96441698D01*
G37*
D13*
G04 #@! TO.P,LED61,A*
G04 #@! TO.N,B7*
X144345037Y-92212608D03*
D14*
G04 #@! TD*
G04 #@! TO.N,B7*
G04 #@! TO.C,LED61*
G36*
X144601853Y-91708579D02*
X144849066Y-92469424D01*
X144088221Y-92716637D01*
X143841008Y-91955792D01*
X144601853Y-91708579D01*
X144601853Y-91708579D01*
G37*
D13*
G04 #@! TO.P,LED61,C*
G04 #@! TO.N,B5*
X144808563Y-93639192D03*
D14*
G04 #@! TD*
G04 #@! TO.N,B5*
G04 #@! TO.C,LED61*
G36*
X145065379Y-93135163D02*
X145312592Y-93896008D01*
X144551747Y-94143221D01*
X144304534Y-93382376D01*
X145065379Y-93135163D01*
X145065379Y-93135163D01*
G37*
D13*
G04 #@! TO.P,LED69,A*
G04 #@! TO.N,B8*
X144001840Y-112797041D03*
D14*
G04 #@! TD*
G04 #@! TO.N,B8*
G04 #@! TO.C,LED69*
G36*
X144548250Y-112650631D02*
X144148250Y-113343451D01*
X143455430Y-112943451D01*
X143855430Y-112250631D01*
X144548250Y-112650631D01*
X144548250Y-112650631D01*
G37*
D13*
G04 #@! TO.P,LED69,C*
G04 #@! TO.N,B5*
X143251840Y-114096079D03*
D14*
G04 #@! TD*
G04 #@! TO.N,B5*
G04 #@! TO.C,LED69*
G36*
X143798250Y-113949669D02*
X143398250Y-114642489D01*
X142705430Y-114242489D01*
X143105430Y-113549669D01*
X143798250Y-113949669D01*
X143798250Y-113949669D01*
G37*
D13*
G04 #@! TO.P,LED45,A*
G04 #@! TO.N,B5*
X136213222Y-110475012D03*
D14*
G04 #@! TD*
G04 #@! TO.N,B5*
G04 #@! TO.C,LED45*
G36*
X135685109Y-110272288D02*
X136415946Y-109946899D01*
X136741335Y-110677736D01*
X136010498Y-111003125D01*
X135685109Y-110272288D01*
X135685109Y-110272288D01*
G37*
D13*
G04 #@! TO.P,LED45,C*
G04 #@! TO.N,B6*
X137583540Y-109864908D03*
D14*
G04 #@! TD*
G04 #@! TO.N,B6*
G04 #@! TO.C,LED45*
G36*
X137055427Y-109662184D02*
X137786264Y-109336795D01*
X138111653Y-110067632D01*
X137380816Y-110393021D01*
X137055427Y-109662184D01*
X137055427Y-109662184D01*
G37*
D13*
G04 #@! TO.P,LED62,A*
G04 #@! TO.N,B7*
X143029688Y-92715723D03*
D14*
G04 #@! TD*
G04 #@! TO.N,B7*
G04 #@! TO.C,LED62*
G36*
X143232412Y-92187610D02*
X143557801Y-92918447D01*
X142826964Y-93243836D01*
X142501575Y-92512999D01*
X143232412Y-92187610D01*
X143232412Y-92187610D01*
G37*
D13*
G04 #@! TO.P,LED62,C*
G04 #@! TO.N,B6*
X143639792Y-94086041D03*
D14*
G04 #@! TD*
G04 #@! TO.N,B6*
G04 #@! TO.C,LED62*
G36*
X143842516Y-93557928D02*
X144167905Y-94288765D01*
X143437068Y-94614154D01*
X143111679Y-93883317D01*
X143842516Y-93557928D01*
X143842516Y-93557928D01*
G37*
D13*
G04 #@! TO.P,LED70,A*
G04 #@! TO.N,B8*
X153000359Y-112797041D03*
D14*
G04 #@! TD*
G04 #@! TO.N,B8*
G04 #@! TO.C,LED70*
G36*
X153146769Y-112250631D02*
X153546769Y-112943451D01*
X152853949Y-113343451D01*
X152453949Y-112650631D01*
X153146769Y-112250631D01*
X153146769Y-112250631D01*
G37*
D13*
G04 #@! TO.P,LED70,C*
G04 #@! TO.N,B6*
X153750359Y-114096079D03*
D14*
G04 #@! TD*
G04 #@! TO.N,B6*
G04 #@! TO.C,LED70*
G36*
X153896769Y-113549669D02*
X154296769Y-114242489D01*
X153603949Y-114642489D01*
X153203949Y-113949669D01*
X153896769Y-113549669D01*
X153896769Y-113549669D01*
G37*
D13*
G04 #@! TO.P,LED46,A*
G04 #@! TO.N,B5*
X136853381Y-111728600D03*
D14*
G04 #@! TD*
G04 #@! TO.N,B5*
G04 #@! TO.C,LED46*
G36*
X136306971Y-111582190D02*
X136999791Y-111182190D01*
X137399791Y-111875010D01*
X136706971Y-112275010D01*
X136306971Y-111582190D01*
X136306971Y-111582190D01*
G37*
D13*
G04 #@! TO.P,LED46,C*
G04 #@! TO.N,B7*
X138152419Y-110978600D03*
D14*
G04 #@! TD*
G04 #@! TO.N,B7*
G04 #@! TO.C,LED46*
G36*
X137606009Y-110832190D02*
X138298829Y-110432190D01*
X138698829Y-111125010D01*
X138006009Y-111525010D01*
X137606009Y-110832190D01*
X137606009Y-110832190D01*
G37*
D13*
G04 #@! TO.P,LED54,A*
G04 #@! TO.N,B6*
X139500411Y-95007601D03*
D14*
G04 #@! TD*
G04 #@! TO.N,B6*
G04 #@! TO.C,LED54*
G36*
X139530017Y-94442691D02*
X140065321Y-95037207D01*
X139470805Y-95572511D01*
X138935501Y-94977995D01*
X139530017Y-94442691D01*
X139530017Y-94442691D01*
G37*
D13*
G04 #@! TO.P,LED54,C*
G04 #@! TO.N,B7*
X140504107Y-96122319D03*
D14*
G04 #@! TD*
G04 #@! TO.N,B7*
G04 #@! TO.C,LED54*
G36*
X140533713Y-95557409D02*
X141069017Y-96151925D01*
X140474501Y-96687229D01*
X139939197Y-96092713D01*
X140533713Y-95557409D01*
X140533713Y-95557409D01*
G37*
D13*
G04 #@! TO.P,LED71,A*
G04 #@! TO.N,B8*
X140707659Y-109502860D03*
D14*
G04 #@! TD*
G04 #@! TO.N,B8*
G04 #@! TO.C,LED71*
G36*
X141254069Y-109649270D02*
X140561249Y-110049270D01*
X140161249Y-109356450D01*
X140854069Y-108956450D01*
X141254069Y-109649270D01*
X141254069Y-109649270D01*
G37*
D13*
G04 #@! TO.P,LED71,C*
G04 #@! TO.N,B7*
X139408621Y-110252860D03*
D14*
G04 #@! TD*
G04 #@! TO.N,B7*
G04 #@! TO.C,LED71*
G36*
X139955031Y-110399270D02*
X139262211Y-110799270D01*
X138862211Y-110106450D01*
X139555031Y-109706450D01*
X139955031Y-110399270D01*
X139955031Y-110399270D01*
G37*
D13*
G04 #@! TO.P,LED47,A*
G04 #@! TO.N,B5*
X137620037Y-112909499D03*
D14*
G04 #@! TD*
G04 #@! TO.N,B5*
G04 #@! TO.C,LED47*
G36*
X137061316Y-112821006D02*
X137708530Y-112350778D01*
X138178758Y-112997992D01*
X137531544Y-113468220D01*
X137061316Y-112821006D01*
X137061316Y-112821006D01*
G37*
D13*
G04 #@! TO.P,LED47,C*
G04 #@! TO.N,B8*
X138833563Y-112027821D03*
D14*
G04 #@! TD*
G04 #@! TO.N,B8*
G04 #@! TO.C,LED47*
G36*
X138274842Y-111939328D02*
X138922056Y-111469100D01*
X139392284Y-112116314D01*
X138745070Y-112586542D01*
X138274842Y-111939328D01*
X138274842Y-111939328D01*
G37*
D13*
G04 #@! TO.P,LED17,A*
G04 #@! TO.N,B2*
X161878409Y-106410415D03*
D14*
G04 #@! TD*
G04 #@! TO.N,B2*
G04 #@! TO.C,LED17*
G36*
X162234406Y-106850035D02*
X161438789Y-106766412D01*
X161522412Y-105970795D01*
X162318029Y-106054418D01*
X162234406Y-106850035D01*
X162234406Y-106850035D01*
G37*
D13*
G04 #@! TO.P,LED17,C*
G04 #@! TO.N,B1*
X160386627Y-106253623D03*
D14*
G04 #@! TD*
G04 #@! TO.N,B1*
G04 #@! TO.C,LED17*
G36*
X160742624Y-106693243D02*
X159947007Y-106609620D01*
X160030630Y-105814003D01*
X160826247Y-105897626D01*
X160742624Y-106693243D01*
X160742624Y-106693243D01*
G37*
D13*
G04 #@! TO.P,LED55,A*
G04 #@! TO.N,B6*
X140595201Y-94122537D03*
D14*
G04 #@! TD*
G04 #@! TO.N,B6*
G04 #@! TO.C,LED55*
G36*
X140683694Y-93563816D02*
X141153922Y-94211030D01*
X140506708Y-94681258D01*
X140036480Y-94034044D01*
X140683694Y-93563816D01*
X140683694Y-93563816D01*
G37*
D13*
G04 #@! TO.P,LED55,C*
G04 #@! TO.N,B8*
X141476879Y-95336063D03*
D14*
G04 #@! TD*
G04 #@! TO.N,B8*
G04 #@! TO.C,LED55*
G36*
X141565372Y-94777342D02*
X142035600Y-95424556D01*
X141388386Y-95894784D01*
X140918158Y-95247570D01*
X141565372Y-94777342D01*
X141565372Y-94777342D01*
G37*
D13*
G04 #@! TO.P,LED63,A*
G04 #@! TO.N,B7*
X141776100Y-93355881D03*
D14*
G04 #@! TD*
G04 #@! TO.N,B7*
G04 #@! TO.C,LED63*
G36*
X141922510Y-92809471D02*
X142322510Y-93502291D01*
X141629690Y-93902291D01*
X141229690Y-93209471D01*
X141922510Y-92809471D01*
X141922510Y-92809471D01*
G37*
D13*
G04 #@! TO.P,LED63,C*
G04 #@! TO.N,B8*
X142526100Y-94654919D03*
D14*
G04 #@! TD*
G04 #@! TO.N,B8*
G04 #@! TO.C,LED63*
G36*
X142672510Y-94108509D02*
X143072510Y-94801329D01*
X142379690Y-95201329D01*
X141979690Y-94508509D01*
X142672510Y-94108509D01*
X142672510Y-94108509D01*
G37*
D13*
G04 #@! TO.P,LED18,A*
G04 #@! TO.N,B2*
X161657851Y-107801134D03*
D14*
G04 #@! TD*
G04 #@! TO.N,B2*
G04 #@! TO.C,LED18*
G36*
X161965945Y-108275558D02*
X161183427Y-108109228D01*
X161349757Y-107326710D01*
X162132275Y-107493040D01*
X161965945Y-108275558D01*
X161965945Y-108275558D01*
G37*
D13*
G04 #@! TO.P,LED18,C*
G04 #@! TO.N,B3*
X160190629Y-107489266D03*
D14*
G04 #@! TD*
G04 #@! TO.N,B3*
G04 #@! TO.C,LED18*
G36*
X160498723Y-107963690D02*
X159716205Y-107797360D01*
X159882535Y-107014842D01*
X160665053Y-107181172D01*
X160498723Y-107963690D01*
X160498723Y-107963690D01*
G37*
D13*
G04 #@! TO.P,LED4,A*
G04 #@! TO.N,B0*
X152657163Y-92212608D03*
D14*
G04 #@! TD*
G04 #@! TO.N,B0*
G04 #@! TO.C,LED4*
G36*
X153161192Y-91955792D02*
X152913979Y-92716637D01*
X152153134Y-92469424D01*
X152400347Y-91708579D01*
X153161192Y-91955792D01*
X153161192Y-91955792D01*
G37*
D13*
G04 #@! TO.P,LED4,C*
G04 #@! TO.N,B5*
X152193637Y-93639192D03*
D14*
G04 #@! TD*
G04 #@! TO.N,B5*
G04 #@! TO.C,LED4*
G36*
X152697666Y-93382376D02*
X152450453Y-94143221D01*
X151689608Y-93896008D01*
X151936821Y-93135163D01*
X152697666Y-93382376D01*
X152697666Y-93382376D01*
G37*
D13*
G04 #@! TO.P,LED13,A*
G04 #@! TO.N,B1*
X159382163Y-97097702D03*
D14*
G04 #@! TD*
G04 #@! TO.N,B1*
G04 #@! TO.C,LED13*
G36*
X159940884Y-97186195D02*
X159293670Y-97656423D01*
X158823442Y-97009209D01*
X159470656Y-96538981D01*
X159940884Y-97186195D01*
X159940884Y-97186195D01*
G37*
D13*
G04 #@! TO.P,LED13,C*
G04 #@! TO.N,B6*
X158168637Y-97979380D03*
D14*
G04 #@! TD*
G04 #@! TO.N,B6*
G04 #@! TO.C,LED13*
G36*
X158727358Y-98067873D02*
X158080144Y-98538101D01*
X157609916Y-97890887D01*
X158257130Y-97420659D01*
X158727358Y-98067873D01*
X158727358Y-98067873D01*
G37*
D13*
G04 #@! TO.P,LED22,A*
G04 #@! TO.N,B2*
X159382163Y-112909499D03*
D14*
G04 #@! TD*
G04 #@! TO.N,B2*
G04 #@! TO.C,LED22*
G36*
X159470656Y-113468220D02*
X158823442Y-112997992D01*
X159293670Y-112350778D01*
X159940884Y-112821006D01*
X159470656Y-113468220D01*
X159470656Y-113468220D01*
G37*
D13*
G04 #@! TO.P,LED22,C*
G04 #@! TO.N,B7*
X158168637Y-112027821D03*
D14*
G04 #@! TD*
G04 #@! TO.N,B7*
G04 #@! TO.C,LED22*
G36*
X158257130Y-112586542D02*
X157609916Y-112116314D01*
X158080144Y-111469100D01*
X158727358Y-111939328D01*
X158257130Y-112586542D01*
X158257130Y-112586542D01*
G37*
D13*
G04 #@! TO.P,LED31,A*
G04 #@! TO.N,B3*
X157501788Y-114999600D03*
D14*
G04 #@! TD*
G04 #@! TO.N,B3*
G04 #@! TO.C,LED31*
G36*
X157472182Y-115564510D02*
X156936878Y-114969994D01*
X157531394Y-114434690D01*
X158066698Y-115029206D01*
X157472182Y-115564510D01*
X157472182Y-115564510D01*
G37*
D13*
G04 #@! TO.P,LED31,C*
G04 #@! TO.N,B8*
X156498092Y-113884882D03*
D14*
G04 #@! TD*
G04 #@! TO.N,B8*
G04 #@! TO.C,LED31*
G36*
X156468486Y-114449792D02*
X155933182Y-113855276D01*
X156527698Y-113319972D01*
X157063002Y-113914488D01*
X156468486Y-114449792D01*
X156468486Y-114449792D01*
G37*
D13*
G04 #@! TO.P,LED40,A*
G04 #@! TO.N,B5*
X135123790Y-103596786D03*
D14*
G04 #@! TD*
G04 #@! TO.N,B5*
G04 #@! TO.C,LED40*
G36*
X134767793Y-103157166D02*
X135563410Y-103240789D01*
X135479787Y-104036406D01*
X134684170Y-103952783D01*
X134767793Y-103157166D01*
X134767793Y-103157166D01*
G37*
D13*
G04 #@! TO.P,LED40,C*
G04 #@! TO.N,B0*
X136615572Y-103753578D03*
D14*
G04 #@! TD*
G04 #@! TO.N,B0*
G04 #@! TO.C,LED40*
G36*
X136259575Y-103313958D02*
X137055192Y-103397581D01*
X136971569Y-104193198D01*
X136175952Y-104109575D01*
X136259575Y-103313958D01*
X136259575Y-103313958D01*
G37*
D13*
G04 #@! TO.P,LED49,A*
G04 #@! TO.N,B6*
X135710108Y-100847537D03*
D14*
G04 #@! TD*
G04 #@! TO.N,B6*
G04 #@! TO.C,LED49*
G36*
X135453292Y-100343508D02*
X136214137Y-100590721D01*
X135966924Y-101351566D01*
X135206079Y-101104353D01*
X135453292Y-100343508D01*
X135453292Y-100343508D01*
G37*
D13*
G04 #@! TO.P,LED49,C*
G04 #@! TO.N,B1*
X137136692Y-101311063D03*
D14*
G04 #@! TD*
G04 #@! TO.N,B1*
G04 #@! TO.C,LED49*
G36*
X136879876Y-100807034D02*
X137640721Y-101054247D01*
X137393508Y-101815092D01*
X136632663Y-101567879D01*
X136879876Y-100807034D01*
X136879876Y-100807034D01*
G37*
D13*
G04 #@! TO.P,LED58,A*
G04 #@! TO.N,B7*
X156294540Y-100504341D03*
D14*
G04 #@! TD*
G04 #@! TO.N,B7*
G04 #@! TO.C,LED58*
G36*
X155748130Y-100357931D02*
X156440950Y-99957931D01*
X156840950Y-100650751D01*
X156148130Y-101050751D01*
X155748130Y-100357931D01*
X155748130Y-100357931D01*
G37*
D13*
G04 #@! TO.P,LED58,C*
G04 #@! TO.N,B2*
X157593578Y-99754341D03*
D14*
G04 #@! TD*
G04 #@! TO.N,B2*
G04 #@! TO.C,LED58*
G36*
X157047168Y-99607931D02*
X157739988Y-99207931D01*
X158139988Y-99900751D01*
X157447168Y-100300751D01*
X157047168Y-99607931D01*
X157047168Y-99607931D01*
G37*
D13*
G04 #@! TO.P,LED67,A*
G04 #@! TO.N,B8*
X140707659Y-100504341D03*
D14*
G04 #@! TD*
G04 #@! TO.N,B8*
G04 #@! TO.C,LED67*
G36*
X140854069Y-101050751D02*
X140161249Y-100650751D01*
X140561249Y-99957931D01*
X141254069Y-100357931D01*
X140854069Y-101050751D01*
X140854069Y-101050751D01*
G37*
D13*
G04 #@! TO.P,LED67,C*
G04 #@! TO.N,B3*
X139408621Y-99754341D03*
D14*
G04 #@! TD*
G04 #@! TO.N,B3*
G04 #@! TO.C,LED67*
G36*
X139555031Y-100300751D02*
X138862211Y-99900751D01*
X139262211Y-99207931D01*
X139955031Y-99607931D01*
X139555031Y-100300751D01*
X139555031Y-100300751D01*
G37*
D15*
G04 #@! TO.P,LED24,A*
G04 #@! TO.N,B3*
X148501100Y-118453600D03*
G04 #@! TO.P,LED24,C*
G04 #@! TO.N,B0*
X148501100Y-116953600D03*
G04 #@! TD*
D16*
G04 #@! TO.P,X1,2*
G04 #@! TO.N,XIN*
X146848600Y-99288600D03*
G04 #@! TO.P,X1,1*
G04 #@! TO.N,XOUT*
X148248600Y-99288600D03*
G04 #@! TD*
D17*
G04 #@! TO.P,U2,49*
G04 #@! TO.N,GND*
X148501100Y-105003600D03*
D18*
G04 #@! TO.P,U2,48*
G04 #@! TO.N,B8*
X145757900Y-101523800D03*
G04 #@! TO.P,U2,47*
G04 #@! TO.N,P2.4*
X146240500Y-101523800D03*
G04 #@! TO.P,U2,46*
G04 #@! TO.N,N/C*
X146748500Y-101523800D03*
G04 #@! TO.P,U2,45*
G04 #@! TO.N,VCC*
X147256500Y-101523800D03*
G04 #@! TO.P,U2,44*
G04 #@! TO.N,XIN*
X147739100Y-101523800D03*
G04 #@! TO.P,U2,43*
G04 #@! TO.N,XOUT*
X148247100Y-101523800D03*
G04 #@! TO.P,U2,42*
G04 #@! TO.N,GND*
X148755100Y-101523800D03*
G04 #@! TO.P,U2,41*
G04 #@! TO.N,VCC*
X149263100Y-101523800D03*
G04 #@! TO.P,U2,40*
G04 #@! TO.N,BSL_RST*
X149745700Y-101523800D03*
G04 #@! TO.P,U2,39*
G04 #@! TO.N,BSL_TEST*
X150253700Y-101523800D03*
G04 #@! TO.P,U2,38*
G04 #@! TO.N,N/C*
X150761700Y-101523800D03*
G04 #@! TO.P,U2,37*
X151244300Y-101523800D03*
D19*
G04 #@! TO.P,U2,36*
X151980900Y-102260400D03*
G04 #@! TO.P,U2,35*
X151980900Y-102743000D03*
G04 #@! TO.P,U2,34*
G04 #@! TO.N,AVCC*
X151980900Y-103251000D03*
G04 #@! TO.P,U2,33*
G04 #@! TO.N,R_BIAS*
X151980900Y-103759000D03*
G04 #@! TO.P,U2,32*
G04 #@! TO.N,AVCC*
X151980900Y-104241600D03*
G04 #@! TO.P,U2,31*
X151980900Y-104749600D03*
G04 #@! TO.P,U2,30*
G04 #@! TO.N,RF_N*
X151980900Y-105257600D03*
G04 #@! TO.P,U2,29*
G04 #@! TO.N,RF_P*
X151980900Y-105765600D03*
G04 #@! TO.P,U2,28*
G04 #@! TO.N,AVCC*
X151980900Y-106248200D03*
G04 #@! TO.P,U2,27*
X151980900Y-106756200D03*
G04 #@! TO.P,U2,26*
G04 #@! TO.N,RF_XOUT*
X151980900Y-107264200D03*
G04 #@! TO.P,U2,25*
G04 #@! TO.N,RF_XIN*
X151980900Y-107746800D03*
D18*
G04 #@! TO.P,U2,24*
G04 #@! TO.N,N/C*
X151244300Y-108483400D03*
G04 #@! TO.P,U2,23*
G04 #@! TO.N,P2.7*
X150761700Y-108483400D03*
G04 #@! TO.P,U2,22*
G04 #@! TO.N,DVCC_3*
X150253700Y-108483400D03*
G04 #@! TO.P,U2,21*
G04 #@! TO.N,B0*
X149745700Y-108483400D03*
G04 #@! TO.P,U2,20*
G04 #@! TO.N,B1*
X149263100Y-108483400D03*
G04 #@! TO.P,U2,19*
G04 #@! TO.N,B2*
X148755100Y-108483400D03*
G04 #@! TO.P,U2,18*
G04 #@! TO.N,B3*
X148247100Y-108483400D03*
G04 #@! TO.P,U2,17*
G04 #@! TO.N,B4*
X147739100Y-108483400D03*
G04 #@! TO.P,U2,16*
G04 #@! TO.N,P3.5*
X147256500Y-108483400D03*
G04 #@! TO.P,U2,15*
G04 #@! TO.N,P3.6*
X146748500Y-108483400D03*
G04 #@! TO.P,U2,14*
G04 #@! TO.N,P3.7*
X146240500Y-108483400D03*
G04 #@! TO.P,U2,13*
G04 #@! TO.N,N/C*
X145757900Y-108483400D03*
D19*
G04 #@! TO.P,U2,12*
X145021300Y-107746800D03*
G04 #@! TO.P,U2,11*
X145021300Y-107264200D03*
G04 #@! TO.P,U2,10*
X145021300Y-106756200D03*
G04 #@! TO.P,U2,9*
X145021300Y-106248200D03*
G04 #@! TO.P,U2,8*
G04 #@! TO.N,BSL_VCC*
X145021300Y-105765600D03*
G04 #@! TO.P,U2,7*
G04 #@! TO.N,VCORE*
X145021300Y-105257600D03*
G04 #@! TO.P,U2,6*
G04 #@! TO.N,BSL_RX*
X145021300Y-104749600D03*
G04 #@! TO.P,U2,5*
G04 #@! TO.N,BSL_TX*
X145021300Y-104241600D03*
G04 #@! TO.P,U2,4*
G04 #@! TO.N,BUTTON*
X145021300Y-103759000D03*
G04 #@! TO.P,U2,3*
G04 #@! TO.N,B5*
X145021300Y-103251000D03*
G04 #@! TO.P,U2,2*
G04 #@! TO.N,B6*
X145021300Y-102743000D03*
G04 #@! TO.P,U2,1*
G04 #@! TO.N,B7*
X145021300Y-102260400D03*
G04 #@! TD*
D20*
G04 #@! TO.P,R1,2*
G04 #@! TO.N,VCC*
X151691100Y-99352100D03*
G04 #@! TO.P,R1,1*
G04 #@! TO.N,BSL_RST*
X150391100Y-99352100D03*
G04 #@! TD*
D21*
G04 #@! TO.P,L1,2*
G04 #@! TO.N,VCC*
X154025600Y-98946600D03*
G04 #@! TO.P,L1,1*
G04 #@! TO.N,AVCC*
X154025600Y-100646600D03*
G04 #@! TD*
D22*
G04 #@! TO.P,TP1,TP*
G04 #@! TO.N,GND*
X143040100Y-110909100D03*
G04 #@! TD*
D14*
G04 #@! TO.N,BSL_VCC*
G04 #@! TO.C,TP2*
G36*
X142454110Y-107871507D02*
X142502646Y-107878706D01*
X142550243Y-107890629D01*
X142596443Y-107907159D01*
X142640799Y-107928138D01*
X142682886Y-107953364D01*
X142722298Y-107982594D01*
X142758654Y-108015546D01*
X142791606Y-108051902D01*
X142820836Y-108091314D01*
X142846062Y-108133401D01*
X142867041Y-108177757D01*
X142883571Y-108223957D01*
X142895494Y-108271554D01*
X142902693Y-108320090D01*
X142905101Y-108369099D01*
X142905101Y-108369101D01*
X142902693Y-108418110D01*
X142895494Y-108466646D01*
X142883571Y-108514243D01*
X142867041Y-108560443D01*
X142846062Y-108604799D01*
X142820836Y-108646886D01*
X142791606Y-108686298D01*
X142758654Y-108722654D01*
X142722298Y-108755606D01*
X142682886Y-108784836D01*
X142640799Y-108810062D01*
X142596443Y-108831041D01*
X142550243Y-108847571D01*
X142502646Y-108859494D01*
X142454110Y-108866693D01*
X142405101Y-108869101D01*
X142405099Y-108869101D01*
X142356090Y-108866693D01*
X142307554Y-108859494D01*
X142259957Y-108847571D01*
X142213757Y-108831041D01*
X142169401Y-108810062D01*
X142127314Y-108784836D01*
X142087902Y-108755606D01*
X142051546Y-108722654D01*
X142018594Y-108686298D01*
X141989364Y-108646886D01*
X141964138Y-108604799D01*
X141943159Y-108560443D01*
X141926629Y-108514243D01*
X141914706Y-108466646D01*
X141907507Y-108418110D01*
X141905099Y-108369101D01*
X141905099Y-108369099D01*
X141907507Y-108320090D01*
X141914706Y-108271554D01*
X141926629Y-108223957D01*
X141943159Y-108177757D01*
X141964138Y-108133401D01*
X141989364Y-108091314D01*
X142018594Y-108051902D01*
X142051546Y-108015546D01*
X142087902Y-107982594D01*
X142127314Y-107953364D01*
X142169401Y-107928138D01*
X142213757Y-107907159D01*
X142259957Y-107890629D01*
X142307554Y-107878706D01*
X142356090Y-107871507D01*
X142405099Y-107869099D01*
X142405101Y-107869099D01*
X142454110Y-107871507D01*
X142454110Y-107871507D01*
G37*
D23*
G04 #@! TD*
G04 #@! TO.P,TP2,TP*
G04 #@! TO.N,BSL_VCC*
X142405100Y-108369100D03*
D14*
G04 #@! TO.N,BSL_RX*
G04 #@! TO.C,TP3*
G36*
X143089110Y-105331507D02*
X143137646Y-105338706D01*
X143185243Y-105350629D01*
X143231443Y-105367159D01*
X143275799Y-105388138D01*
X143317886Y-105413364D01*
X143357298Y-105442594D01*
X143393654Y-105475546D01*
X143426606Y-105511902D01*
X143455836Y-105551314D01*
X143481062Y-105593401D01*
X143502041Y-105637757D01*
X143518571Y-105683957D01*
X143530494Y-105731554D01*
X143537693Y-105780090D01*
X143540101Y-105829099D01*
X143540101Y-105829101D01*
X143537693Y-105878110D01*
X143530494Y-105926646D01*
X143518571Y-105974243D01*
X143502041Y-106020443D01*
X143481062Y-106064799D01*
X143455836Y-106106886D01*
X143426606Y-106146298D01*
X143393654Y-106182654D01*
X143357298Y-106215606D01*
X143317886Y-106244836D01*
X143275799Y-106270062D01*
X143231443Y-106291041D01*
X143185243Y-106307571D01*
X143137646Y-106319494D01*
X143089110Y-106326693D01*
X143040101Y-106329101D01*
X143040099Y-106329101D01*
X142991090Y-106326693D01*
X142942554Y-106319494D01*
X142894957Y-106307571D01*
X142848757Y-106291041D01*
X142804401Y-106270062D01*
X142762314Y-106244836D01*
X142722902Y-106215606D01*
X142686546Y-106182654D01*
X142653594Y-106146298D01*
X142624364Y-106106886D01*
X142599138Y-106064799D01*
X142578159Y-106020443D01*
X142561629Y-105974243D01*
X142549706Y-105926646D01*
X142542507Y-105878110D01*
X142540099Y-105829101D01*
X142540099Y-105829099D01*
X142542507Y-105780090D01*
X142549706Y-105731554D01*
X142561629Y-105683957D01*
X142578159Y-105637757D01*
X142599138Y-105593401D01*
X142624364Y-105551314D01*
X142653594Y-105511902D01*
X142686546Y-105475546D01*
X142722902Y-105442594D01*
X142762314Y-105413364D01*
X142804401Y-105388138D01*
X142848757Y-105367159D01*
X142894957Y-105350629D01*
X142942554Y-105338706D01*
X142991090Y-105331507D01*
X143040099Y-105329099D01*
X143040101Y-105329099D01*
X143089110Y-105331507D01*
X143089110Y-105331507D01*
G37*
D23*
G04 #@! TD*
G04 #@! TO.P,TP3,TP*
G04 #@! TO.N,BSL_RX*
X143040100Y-105829100D03*
D14*
G04 #@! TO.N,BSL_TX*
G04 #@! TO.C,TP4*
G36*
X142454110Y-102791507D02*
X142502646Y-102798706D01*
X142550243Y-102810629D01*
X142596443Y-102827159D01*
X142640799Y-102848138D01*
X142682886Y-102873364D01*
X142722298Y-102902594D01*
X142758654Y-102935546D01*
X142791606Y-102971902D01*
X142820836Y-103011314D01*
X142846062Y-103053401D01*
X142867041Y-103097757D01*
X142883571Y-103143957D01*
X142895494Y-103191554D01*
X142902693Y-103240090D01*
X142905101Y-103289099D01*
X142905101Y-103289101D01*
X142902693Y-103338110D01*
X142895494Y-103386646D01*
X142883571Y-103434243D01*
X142867041Y-103480443D01*
X142846062Y-103524799D01*
X142820836Y-103566886D01*
X142791606Y-103606298D01*
X142758654Y-103642654D01*
X142722298Y-103675606D01*
X142682886Y-103704836D01*
X142640799Y-103730062D01*
X142596443Y-103751041D01*
X142550243Y-103767571D01*
X142502646Y-103779494D01*
X142454110Y-103786693D01*
X142405101Y-103789101D01*
X142405099Y-103789101D01*
X142356090Y-103786693D01*
X142307554Y-103779494D01*
X142259957Y-103767571D01*
X142213757Y-103751041D01*
X142169401Y-103730062D01*
X142127314Y-103704836D01*
X142087902Y-103675606D01*
X142051546Y-103642654D01*
X142018594Y-103606298D01*
X141989364Y-103566886D01*
X141964138Y-103524799D01*
X141943159Y-103480443D01*
X141926629Y-103434243D01*
X141914706Y-103386646D01*
X141907507Y-103338110D01*
X141905099Y-103289101D01*
X141905099Y-103289099D01*
X141907507Y-103240090D01*
X141914706Y-103191554D01*
X141926629Y-103143957D01*
X141943159Y-103097757D01*
X141964138Y-103053401D01*
X141989364Y-103011314D01*
X142018594Y-102971902D01*
X142051546Y-102935546D01*
X142087902Y-102902594D01*
X142127314Y-102873364D01*
X142169401Y-102848138D01*
X142213757Y-102827159D01*
X142259957Y-102810629D01*
X142307554Y-102798706D01*
X142356090Y-102791507D01*
X142405099Y-102789099D01*
X142405101Y-102789099D01*
X142454110Y-102791507D01*
X142454110Y-102791507D01*
G37*
D23*
G04 #@! TD*
G04 #@! TO.P,TP4,TP*
G04 #@! TO.N,BSL_TX*
X142405100Y-103289100D03*
D14*
G04 #@! TO.N,BSL_TEST*
G04 #@! TO.C,TP5*
G36*
X143089110Y-100251507D02*
X143137646Y-100258706D01*
X143185243Y-100270629D01*
X143231443Y-100287159D01*
X143275799Y-100308138D01*
X143317886Y-100333364D01*
X143357298Y-100362594D01*
X143393654Y-100395546D01*
X143426606Y-100431902D01*
X143455836Y-100471314D01*
X143481062Y-100513401D01*
X143502041Y-100557757D01*
X143518571Y-100603957D01*
X143530494Y-100651554D01*
X143537693Y-100700090D01*
X143540101Y-100749099D01*
X143540101Y-100749101D01*
X143537693Y-100798110D01*
X143530494Y-100846646D01*
X143518571Y-100894243D01*
X143502041Y-100940443D01*
X143481062Y-100984799D01*
X143455836Y-101026886D01*
X143426606Y-101066298D01*
X143393654Y-101102654D01*
X143357298Y-101135606D01*
X143317886Y-101164836D01*
X143275799Y-101190062D01*
X143231443Y-101211041D01*
X143185243Y-101227571D01*
X143137646Y-101239494D01*
X143089110Y-101246693D01*
X143040101Y-101249101D01*
X143040099Y-101249101D01*
X142991090Y-101246693D01*
X142942554Y-101239494D01*
X142894957Y-101227571D01*
X142848757Y-101211041D01*
X142804401Y-101190062D01*
X142762314Y-101164836D01*
X142722902Y-101135606D01*
X142686546Y-101102654D01*
X142653594Y-101066298D01*
X142624364Y-101026886D01*
X142599138Y-100984799D01*
X142578159Y-100940443D01*
X142561629Y-100894243D01*
X142549706Y-100846646D01*
X142542507Y-100798110D01*
X142540099Y-100749101D01*
X142540099Y-100749099D01*
X142542507Y-100700090D01*
X142549706Y-100651554D01*
X142561629Y-100603957D01*
X142578159Y-100557757D01*
X142599138Y-100513401D01*
X142624364Y-100471314D01*
X142653594Y-100431902D01*
X142686546Y-100395546D01*
X142722902Y-100362594D01*
X142762314Y-100333364D01*
X142804401Y-100308138D01*
X142848757Y-100287159D01*
X142894957Y-100270629D01*
X142942554Y-100258706D01*
X142991090Y-100251507D01*
X143040099Y-100249099D01*
X143040101Y-100249099D01*
X143089110Y-100251507D01*
X143089110Y-100251507D01*
G37*
D23*
G04 #@! TD*
G04 #@! TO.P,TP5,TP*
G04 #@! TO.N,BSL_TEST*
X143040100Y-100749100D03*
D14*
G04 #@! TO.N,BSL_RST*
G04 #@! TO.C,TP6*
G36*
X142454110Y-97711507D02*
X142502646Y-97718706D01*
X142550243Y-97730629D01*
X142596443Y-97747159D01*
X142640799Y-97768138D01*
X142682886Y-97793364D01*
X142722298Y-97822594D01*
X142758654Y-97855546D01*
X142791606Y-97891902D01*
X142820836Y-97931314D01*
X142846062Y-97973401D01*
X142867041Y-98017757D01*
X142883571Y-98063957D01*
X142895494Y-98111554D01*
X142902693Y-98160090D01*
X142905101Y-98209099D01*
X142905101Y-98209101D01*
X142902693Y-98258110D01*
X142895494Y-98306646D01*
X142883571Y-98354243D01*
X142867041Y-98400443D01*
X142846062Y-98444799D01*
X142820836Y-98486886D01*
X142791606Y-98526298D01*
X142758654Y-98562654D01*
X142722298Y-98595606D01*
X142682886Y-98624836D01*
X142640799Y-98650062D01*
X142596443Y-98671041D01*
X142550243Y-98687571D01*
X142502646Y-98699494D01*
X142454110Y-98706693D01*
X142405101Y-98709101D01*
X142405099Y-98709101D01*
X142356090Y-98706693D01*
X142307554Y-98699494D01*
X142259957Y-98687571D01*
X142213757Y-98671041D01*
X142169401Y-98650062D01*
X142127314Y-98624836D01*
X142087902Y-98595606D01*
X142051546Y-98562654D01*
X142018594Y-98526298D01*
X141989364Y-98486886D01*
X141964138Y-98444799D01*
X141943159Y-98400443D01*
X141926629Y-98354243D01*
X141914706Y-98306646D01*
X141907507Y-98258110D01*
X141905099Y-98209101D01*
X141905099Y-98209099D01*
X141907507Y-98160090D01*
X141914706Y-98111554D01*
X141926629Y-98063957D01*
X141943159Y-98017757D01*
X141964138Y-97973401D01*
X141989364Y-97931314D01*
X142018594Y-97891902D01*
X142051546Y-97855546D01*
X142087902Y-97822594D01*
X142127314Y-97793364D01*
X142169401Y-97768138D01*
X142213757Y-97747159D01*
X142259957Y-97730629D01*
X142307554Y-97718706D01*
X142356090Y-97711507D01*
X142405099Y-97709099D01*
X142405101Y-97709099D01*
X142454110Y-97711507D01*
X142454110Y-97711507D01*
G37*
D23*
G04 #@! TD*
G04 #@! TO.P,TP6,TP*
G04 #@! TO.N,BSL_RST*
X142405100Y-98209100D03*
D24*
G04 #@! TO.N,B3*
X154851100Y-117068600D03*
X152768300Y-94945200D03*
X150482300Y-92532200D03*
X140754100Y-97002600D03*
X160743900Y-108381800D03*
X159245300Y-101930200D03*
X148247100Y-109804200D03*
X144157700Y-115316000D03*
X139128500Y-107670600D03*
X143979900Y-109575600D03*
X146265900Y-111861600D03*
G04 #@! TO.N,B2*
X160566100Y-111036100D03*
X158508700Y-110083600D03*
X156806900Y-112344200D03*
X151853900Y-117322600D03*
X151523700Y-96164400D03*
X157492700Y-100736400D03*
X138188700Y-100660200D03*
X139611100Y-100660200D03*
X141820900Y-99568000D03*
X157670500Y-106705400D03*
G04 #@! TO.N,B1*
X160566100Y-98971100D03*
X146748500Y-116103400D03*
X149618700Y-116103400D03*
X150710900Y-110769400D03*
X149567900Y-95529400D03*
X138341100Y-102209600D03*
X140093700Y-102209600D03*
X143497300Y-98577400D03*
X156806900Y-105892600D03*
G04 #@! TO.N,B0*
X151993600Y-91986100D03*
X137274300Y-104419400D03*
X141795500Y-110058200D03*
X147256500Y-109626400D03*
X149745700Y-109245400D03*
X149263100Y-115544600D03*
X155689300Y-98399600D03*
G04 #@! TO.N,B4*
X142468600Y-117068600D03*
X150329900Y-93954600D03*
X146646900Y-93954600D03*
X138137900Y-107365800D03*
X139077700Y-98882200D03*
X140271500Y-98171000D03*
X158762700Y-107594400D03*
X158762700Y-100787200D03*
X151244300Y-115595400D03*
X144818100Y-108483400D03*
G04 #@! TO.N,B8*
X152717500Y-98602800D03*
X156705300Y-104775000D03*
X145478500Y-99085400D03*
X151345900Y-98044000D03*
X146291300Y-112725200D03*
X149364700Y-110921800D03*
G04 #@! TO.N,B7*
X150228300Y-96012000D03*
X151980900Y-97180400D03*
X156222700Y-101422200D03*
X152793700Y-97993200D03*
X157162500Y-106375200D03*
X144894300Y-98983800D03*
X146773900Y-110109000D03*
G04 #@! TO.N,B6*
X138976100Y-95478600D03*
X157899100Y-111125000D03*
X154546300Y-113919000D03*
X142735300Y-93751400D03*
X143421100Y-115011200D03*
X138493500Y-110083600D03*
X144259300Y-102743000D03*
X139890500Y-107061000D03*
X137121900Y-99288600D03*
X150609300Y-94513400D03*
X144614900Y-94513400D03*
G04 #@! TO.N,B5*
X134848600Y-105638600D03*
X138696700Y-97028000D03*
X143954500Y-93218000D03*
X151726900Y-92760800D03*
X143243300Y-102514400D03*
X142760700Y-116255800D03*
X144741900Y-114935000D03*
X153174700Y-114630200D03*
X158153100Y-109601000D03*
X158178500Y-100863400D03*
X158178500Y-107950000D03*
X149847300Y-114198400D03*
X155943300Y-102514400D03*
X158178500Y-102514400D03*
G04 #@! TO.N,GND*
X148501100Y-105003600D03*
X147866100Y-106908600D03*
X150088600Y-105956100D03*
X149136100Y-103098600D03*
X146596100Y-104368600D03*
X152844500Y-96113600D03*
X150863300Y-97510600D03*
X147586700Y-98577400D03*
G04 #@! TO.N,VCC*
X156184600Y-97066100D03*
G04 #@! TO.N,BSL_RST*
X149745700Y-100050600D03*
X144538700Y-100050600D03*
X143827500Y-99085400D03*
G04 #@! TO.N,BSL_TEST*
X150253700Y-100761800D03*
G04 #@! TO.N,BUTTON*
X144259300Y-103759000D03*
X156222700Y-103479600D03*
X159727900Y-104419400D03*
G04 #@! TD*
D25*
G04 #@! TO.N,B3*
X152657162Y-117794594D02*
X151298631Y-118160354D01*
X151298631Y-118160354D02*
X149907912Y-118380913D01*
X149907912Y-118380913D02*
X148501100Y-118453600D01*
X153972509Y-117291479D02*
X152657162Y-117794594D01*
X157501787Y-114999600D02*
X156406996Y-115884666D01*
X156406996Y-115884666D02*
X155226100Y-116651322D01*
X155226100Y-116651322D02*
X153972509Y-117291479D01*
X154851100Y-117068600D02*
X153972509Y-117291479D01*
X152768300Y-94945200D02*
X153733500Y-95910400D01*
X150355300Y-92532200D02*
X150482300Y-92532200D01*
X149771100Y-93116400D02*
X150355300Y-92532200D01*
X153733500Y-95910400D02*
X153750359Y-95911122D01*
X149771100Y-93116400D02*
X149751121Y-93118075D01*
X136817100Y-107365800D02*
X136817100Y-107467400D01*
X138823700Y-105359200D02*
X137820400Y-106362500D01*
X137820400Y-106362500D02*
X136817100Y-107365800D01*
X138823700Y-100355400D02*
X138823700Y-105359200D01*
X139407900Y-99771200D02*
X138823700Y-100355400D01*
X136817100Y-107467400D02*
X136811568Y-107489269D01*
X139407900Y-99771200D02*
X139408618Y-99754341D01*
X139077700Y-99949000D02*
X138163300Y-99034600D01*
X138163300Y-99034600D02*
X138152418Y-99028600D01*
X139077700Y-99949000D02*
X139408618Y-99754341D01*
X140754100Y-98374200D02*
X140754100Y-97002600D01*
X139484100Y-99644200D02*
X140754100Y-98374200D01*
X139484100Y-99644200D02*
X139408618Y-99754341D01*
X143649700Y-116382800D02*
X143649700Y-115925600D01*
X144386300Y-117119400D02*
X143649700Y-116382800D01*
X144995900Y-117119400D02*
X144386300Y-117119400D01*
X145275300Y-117398800D02*
X144995900Y-117119400D01*
X146189700Y-117398800D02*
X145275300Y-117398800D01*
X146443700Y-117652800D02*
X146189700Y-117398800D01*
X147612100Y-117652800D02*
X146443700Y-117652800D01*
X148374100Y-118414800D02*
X147612100Y-117652800D01*
X143649700Y-115925600D02*
X143639790Y-115921163D01*
X148374100Y-118414800D02*
X148501100Y-118453600D01*
X160210500Y-107848400D02*
X160210500Y-107492800D01*
X160743900Y-108381800D02*
X160210500Y-107848400D01*
X160210500Y-107492800D02*
X160190628Y-107489269D01*
X159245300Y-101930200D02*
X159854900Y-101320600D01*
X159854900Y-101320600D02*
X159865506Y-101311066D01*
X148247100Y-109804200D02*
X148247100Y-108483400D01*
X143675100Y-115798600D02*
X144157700Y-115316000D01*
X143675100Y-115798600D02*
X143639790Y-115921163D01*
X139128500Y-107670600D02*
X137820400Y-106362500D01*
X146265900Y-111861600D02*
X143979900Y-109575600D01*
G04 #@! TO.N,B2*
X158497096Y-114004291D02*
X159382162Y-112909500D01*
X159382162Y-112909500D02*
X160148818Y-111728600D01*
X160148818Y-111728600D02*
X160788975Y-110475013D01*
X160788975Y-110475013D02*
X161292090Y-109159666D01*
X161292090Y-109159666D02*
X161657850Y-107801135D01*
X161878409Y-106410416D02*
X161951100Y-105003600D01*
X160566100Y-111036100D02*
X160788975Y-110475013D01*
D26*
X161878409Y-106410416D02*
X161657850Y-107801135D01*
D25*
X145173700Y-116357400D02*
X144818100Y-116357400D01*
X146697700Y-114833400D02*
X145173700Y-116357400D01*
X149237700Y-114833400D02*
X146697700Y-114833400D01*
X150964900Y-116560600D02*
X149237700Y-114833400D01*
X150964900Y-116687600D02*
X150964900Y-116560600D01*
X144818100Y-116357400D02*
X144808562Y-116368010D01*
X150964900Y-116687600D02*
X150986765Y-116693132D01*
X158356300Y-110236000D02*
X157594300Y-110236000D01*
X158508700Y-110083600D02*
X158356300Y-110236000D01*
X157594300Y-110236000D02*
X157593578Y-110252860D01*
X148755100Y-109499400D02*
X148755100Y-108483400D01*
X151218900Y-111963200D02*
X148755100Y-109499400D01*
X156425900Y-111963200D02*
X151218900Y-111963200D01*
X156806900Y-112344200D02*
X156425900Y-111963200D01*
X151295100Y-116763800D02*
X151091900Y-116763800D01*
X151853900Y-117322600D02*
X151295100Y-116763800D01*
X151091900Y-116763800D02*
X150986765Y-116693132D01*
X135877300Y-105511600D02*
X136613900Y-106248200D01*
X135877300Y-102844600D02*
X135877300Y-105511600D01*
X136105900Y-102616000D02*
X135877300Y-102844600D01*
X136105900Y-101625400D02*
X136105900Y-102616000D01*
X136461500Y-101269800D02*
X136105900Y-101625400D01*
X136461500Y-100812600D02*
X136461500Y-101269800D01*
X137121900Y-100152200D02*
X136461500Y-100812600D01*
X137579100Y-100152200D02*
X137121900Y-100152200D01*
X136613900Y-106248200D02*
X136615571Y-106253625D01*
X137579100Y-100152200D02*
X137583537Y-100142294D01*
X157594300Y-100965000D02*
X157594300Y-100736400D01*
X157594300Y-100736400D02*
X157594300Y-99771200D01*
X159143700Y-102514400D02*
X157594300Y-100965000D01*
X160185100Y-102514400D02*
X159143700Y-102514400D01*
X157594300Y-99771200D02*
X157593578Y-99754341D01*
X160185100Y-102514400D02*
X160190628Y-102517935D01*
X148501100Y-93141800D02*
X148501100Y-93053600D01*
X151523700Y-96164400D02*
X148501100Y-93141800D01*
X157492700Y-100736400D02*
X157594300Y-100736400D01*
X138188700Y-100660200D02*
X137706100Y-100177600D01*
X140195300Y-100076000D02*
X139611100Y-100660200D01*
X140195300Y-99923600D02*
X140195300Y-100076000D01*
X140550900Y-99568000D02*
X140195300Y-99923600D01*
X141820900Y-99568000D02*
X140550900Y-99568000D01*
X137706100Y-100177600D02*
X137583537Y-100142294D01*
X157670500Y-106705400D02*
X157670500Y-110134400D01*
X157670500Y-110134400D02*
X157593578Y-110252860D01*
G04 #@! TO.N,B1*
X160788975Y-99532191D02*
X161292090Y-100847538D01*
X161292090Y-100847538D02*
X161657850Y-102206069D01*
X161657850Y-102206069D02*
X161878409Y-103596788D01*
X160788975Y-99532191D02*
X160594343Y-98798572D01*
X160594343Y-98798572D02*
X160148818Y-98278600D01*
X160148818Y-98278600D02*
X159382162Y-97097704D01*
X159382162Y-97097704D02*
X158497096Y-96002913D01*
X158497096Y-96002913D02*
X157501787Y-95007604D01*
D26*
X160566100Y-98971100D02*
X160594343Y-98798572D01*
D25*
X146164300Y-116687600D02*
X146037300Y-116687600D01*
X146748500Y-116103400D02*
X146164300Y-116687600D01*
X149618700Y-116738400D02*
X149618700Y-116103400D01*
X149745700Y-116865400D02*
X149618700Y-116738400D01*
X146037300Y-116687600D02*
X146015431Y-116693132D01*
X149745700Y-116865400D02*
X149751121Y-116889129D01*
X149263100Y-109448600D02*
X149263100Y-108483400D01*
X150583900Y-110769400D02*
X149263100Y-109448600D01*
X150710900Y-110769400D02*
X150583900Y-110769400D01*
X138000040Y-105003600D02*
X136551100Y-105003600D01*
X137147300Y-101676200D02*
X137147300Y-101320600D01*
X137756900Y-102285800D02*
X137147300Y-101676200D01*
X137756900Y-104902000D02*
X137756900Y-102285800D01*
X137147300Y-101320600D02*
X137136690Y-101311066D01*
X137756900Y-104902000D02*
X138000040Y-105003600D01*
X147256500Y-93243400D02*
X147256500Y-93141800D01*
X148501100Y-94488000D02*
X147256500Y-93243400D01*
X147256500Y-93141800D02*
X147251075Y-93118075D01*
X148501100Y-94488000D02*
X148501100Y-94502541D01*
X161277300Y-105359200D02*
X160388300Y-106248200D01*
X161277300Y-104190800D02*
X161277300Y-105359200D01*
X161785300Y-103682800D02*
X161277300Y-104190800D01*
X160388300Y-106248200D02*
X160386625Y-106253625D01*
X161785300Y-103682800D02*
X161878409Y-103596788D01*
X149567900Y-95529400D02*
X148602700Y-94564200D01*
X148602700Y-94564200D02*
X148501100Y-94502541D01*
X138341100Y-102209600D02*
X137858500Y-102209600D01*
X141643100Y-100660200D02*
X140093700Y-102209600D01*
X141643100Y-100431600D02*
X141643100Y-100660200D01*
X143497300Y-98577400D02*
X141643100Y-100431600D01*
X137858500Y-102209600D02*
X137756900Y-102285800D01*
X160566100Y-105892600D02*
X156806900Y-105892600D01*
X160566100Y-105892600D02*
X160386625Y-106253625D01*
G04 #@! TO.N,B0*
X156406996Y-94122538D02*
X155226100Y-93355882D01*
X155226100Y-93355882D02*
X153972509Y-92715725D01*
X153972509Y-92715725D02*
X152657162Y-92212610D01*
X152657162Y-92212610D02*
X151298631Y-91846850D01*
X151298631Y-91846850D02*
X149907912Y-91626291D01*
X149907912Y-91626291D02*
X148501100Y-91553600D01*
X148501100Y-91553600D02*
X147094284Y-91626291D01*
D26*
X151993600Y-91986100D02*
X152657162Y-92212610D01*
D25*
X148501100Y-115504660D02*
X148501100Y-116953600D01*
X148399500Y-116890800D02*
X147256500Y-116890800D01*
X147256500Y-116890800D02*
X147251075Y-116889129D01*
X148399500Y-116890800D02*
X148501100Y-116953600D01*
X136639300Y-102692200D02*
X136639300Y-103733600D01*
X136791700Y-102539800D02*
X136639300Y-102692200D01*
X136639300Y-103733600D02*
X136615571Y-103753579D01*
X136791700Y-102539800D02*
X136811568Y-102517935D01*
X160451100Y-105003600D02*
X159002159Y-105003600D01*
X160388300Y-104902000D02*
X160388300Y-103759000D01*
X160388300Y-103759000D02*
X160386625Y-103753579D01*
X160388300Y-104902000D02*
X160451100Y-105003600D01*
X156502100Y-104292400D02*
X156413200Y-104381300D01*
X158229300Y-104292400D02*
X156502100Y-104292400D01*
X158889700Y-104952800D02*
X158229300Y-104292400D01*
X158889700Y-104952800D02*
X159002159Y-105003600D01*
X137274300Y-104394000D02*
X136715500Y-103835200D01*
X137274300Y-104419400D02*
X137274300Y-104394000D01*
X142328900Y-109524800D02*
X141795500Y-110058200D01*
X143344900Y-109524800D02*
X142328900Y-109524800D01*
X143776700Y-109093000D02*
X143344900Y-109524800D01*
X144868900Y-109093000D02*
X143776700Y-109093000D01*
X145402300Y-109626400D02*
X144868900Y-109093000D01*
X147256500Y-109626400D02*
X145402300Y-109626400D01*
X136715500Y-103835200D02*
X136615571Y-103753579D01*
X149263100Y-115544600D02*
X148602700Y-115544600D01*
X148602700Y-115544600D02*
X148501100Y-115504660D01*
X155689300Y-100025200D02*
X155689300Y-98399600D01*
X155460700Y-100253800D02*
X155689300Y-100025200D01*
X155460700Y-103428800D02*
X155460700Y-100253800D01*
X156413200Y-104381300D02*
X155460700Y-103428800D01*
X149745700Y-108483400D02*
X149745700Y-109245400D01*
X155460700Y-103428800D02*
X155486100Y-103428800D01*
X155486100Y-103428800D02*
X155486100Y-110845600D01*
X155486100Y-110845600D02*
X154851100Y-111480600D01*
X154851100Y-111480600D02*
X152184100Y-111480600D01*
X152184100Y-111480600D02*
X149758400Y-109245400D01*
X149758400Y-109245400D02*
X149745700Y-109245400D01*
G04 #@! TO.N,B4*
X139500409Y-114999600D02*
X140595200Y-115884666D01*
X140595200Y-115884666D02*
X141776100Y-116651322D01*
X141776100Y-116651322D02*
X143029687Y-117291479D01*
X143029687Y-117291479D02*
X144345034Y-117794594D01*
X144345034Y-117794594D02*
X145703565Y-118160354D01*
X145703565Y-118160354D02*
X147094284Y-118380913D01*
X139500409Y-114999600D02*
X138505100Y-114004291D01*
X141776100Y-116651322D02*
X142468600Y-117068600D01*
X143903700Y-95910400D02*
X143268700Y-95910400D01*
X146011900Y-93802200D02*
X145948400Y-93865700D01*
X145948400Y-93865700D02*
X143903700Y-95910400D01*
X146011900Y-93319600D02*
X146011900Y-93802200D01*
X143268700Y-95910400D02*
X143251840Y-95911122D01*
X146011900Y-93319600D02*
X146015431Y-93314072D01*
X150329900Y-93954600D02*
X150964900Y-93319600D01*
X146037300Y-93954600D02*
X146646900Y-93954600D01*
X150964900Y-93319600D02*
X150986765Y-93314072D01*
X146037300Y-93954600D02*
X145948400Y-93865700D01*
X137147300Y-108356400D02*
X137147300Y-108686600D01*
X138137900Y-107365800D02*
X137147300Y-108356400D01*
X139077700Y-98221800D02*
X139077700Y-98882200D01*
X138849100Y-97993200D02*
X139077700Y-98221800D01*
X137147300Y-108686600D02*
X137136690Y-108696138D01*
X138849100Y-97993200D02*
X138833562Y-97979382D01*
X139179300Y-98171000D02*
X140271500Y-98171000D01*
X139179300Y-98171000D02*
X138833562Y-97979382D01*
X158762700Y-107594400D02*
X159854900Y-108686600D01*
X159397700Y-100152200D02*
X158762700Y-100787200D01*
X159854900Y-108686600D02*
X159865506Y-108696138D01*
X159397700Y-100152200D02*
X159418659Y-100142294D01*
X151828500Y-116357400D02*
X152184100Y-116357400D01*
X150152100Y-114681000D02*
X151155400Y-115684300D01*
X151155400Y-115684300D02*
X151828500Y-116357400D01*
X149644100Y-114681000D02*
X150152100Y-114681000D01*
X149161500Y-114198400D02*
X149644100Y-114681000D01*
X149161500Y-111404400D02*
X149161500Y-114198400D01*
X147739100Y-109982000D02*
X149161500Y-111404400D01*
X147739100Y-108483400D02*
X147739100Y-109143800D01*
X147739100Y-109143800D02*
X147739100Y-109982000D01*
X152184100Y-116357400D02*
X152193634Y-116368010D01*
X151244300Y-115595400D02*
X151155400Y-115684300D01*
X145478500Y-109143800D02*
X144818100Y-108483400D01*
X147739100Y-109143800D02*
X145478500Y-109143800D01*
G04 #@! TO.N,B8*
X139509500Y-101701600D02*
X139509500Y-105003600D01*
X140703300Y-100507800D02*
X139509500Y-101701600D01*
X139509500Y-105003600D02*
X139500040Y-105003600D01*
X140703300Y-100507800D02*
X140707659Y-100504341D01*
X139611100Y-112801400D02*
X139611100Y-112979200D01*
X138849100Y-112039400D02*
X139611100Y-112801400D01*
X139611100Y-112979200D02*
X139619815Y-113000594D01*
X138849100Y-112039400D02*
X138833562Y-112027822D01*
X140703300Y-110159800D02*
X140703300Y-109524800D01*
X138925300Y-111937800D02*
X140703300Y-110159800D01*
X140703300Y-109524800D02*
X140707659Y-109502860D01*
X138925300Y-111937800D02*
X138833562Y-112027822D01*
X139712700Y-112801400D02*
X143979900Y-112801400D01*
X143979900Y-112801400D02*
X144001840Y-112797041D01*
X139712700Y-112801400D02*
X139619815Y-113000594D01*
X139585700Y-106070400D02*
X139585700Y-105105200D01*
X140677900Y-107162600D02*
X139585700Y-106070400D01*
X140677900Y-109372400D02*
X140677900Y-107162600D01*
X139585700Y-105105200D02*
X139500040Y-105003600D01*
X140677900Y-109372400D02*
X140707659Y-109502860D01*
X141846300Y-95326200D02*
X141490700Y-95326200D01*
X142506700Y-94665800D02*
X141846300Y-95326200D01*
X141490700Y-95326200D02*
X141476878Y-95336066D01*
X142506700Y-94665800D02*
X142526100Y-94654922D01*
X143446500Y-97205800D02*
X143979900Y-97205800D01*
X141668500Y-95427800D02*
X143446500Y-97205800D01*
X143979900Y-97205800D02*
X144001840Y-97210163D01*
X141668500Y-95427800D02*
X141476878Y-95336066D01*
X145757900Y-100584000D02*
X145757900Y-101523800D01*
X145402300Y-100228400D02*
X145757900Y-100584000D01*
X145402300Y-98628200D02*
X145402300Y-99085400D01*
X145402300Y-99085400D02*
X145402300Y-100228400D01*
X144081500Y-97307400D02*
X145402300Y-98628200D01*
X144081500Y-97307400D02*
X144001840Y-97210163D01*
X156298900Y-96113600D02*
X156476700Y-96113600D01*
X155536900Y-95351600D02*
X155829000Y-95643700D01*
X155829000Y-95643700D02*
X156298900Y-96113600D01*
X156476700Y-96113600D02*
X156498090Y-96122319D01*
X155536900Y-95351600D02*
X155525318Y-95336066D01*
X157365700Y-113004600D02*
X156502100Y-113868200D01*
X156502100Y-113868200D02*
X156498090Y-113884885D01*
X157365700Y-113004600D02*
X157382381Y-113000594D01*
X155409900Y-112801400D02*
X153022300Y-112801400D01*
X156400500Y-113792000D02*
X155409900Y-112801400D01*
X153022300Y-112801400D02*
X153000359Y-112797041D01*
X156400500Y-113792000D02*
X156498090Y-113884885D01*
X156298900Y-111150400D02*
X156298900Y-109524800D01*
X157289500Y-112141000D02*
X156298900Y-111150400D01*
X157289500Y-112903000D02*
X157289500Y-112141000D01*
X156298900Y-109524800D02*
X156294537Y-109502860D01*
X157289500Y-112903000D02*
X157382381Y-113000594D01*
X157010100Y-105003600D02*
X157502159Y-105003600D01*
X156324300Y-105689400D02*
X156972000Y-105041700D01*
X156972000Y-105041700D02*
X157010100Y-105003600D01*
X156324300Y-109372400D02*
X156324300Y-105689400D01*
X156324300Y-109372400D02*
X156294537Y-109502860D01*
X152869900Y-98602800D02*
X155829000Y-95643700D01*
X152717500Y-98602800D02*
X152869900Y-98602800D01*
X156972000Y-105041700D02*
X156705300Y-104775000D01*
X152133300Y-98044000D02*
X151345900Y-98044000D01*
X152615900Y-98526600D02*
X152133300Y-98044000D01*
X145478500Y-99085400D02*
X145402300Y-99085400D01*
X152615900Y-98526600D02*
X152717500Y-98602800D01*
X146291300Y-112725200D02*
X144106900Y-112725200D01*
X149618700Y-110921800D02*
X149364700Y-110921800D01*
X151422100Y-112725200D02*
X149618700Y-110921800D01*
X152895300Y-112725200D02*
X151422100Y-112725200D01*
X144106900Y-112725200D02*
X144001840Y-112797041D01*
X152895300Y-112725200D02*
X153000359Y-112797041D01*
G04 #@! TO.N,B7*
X144345034Y-92212610D02*
X145703565Y-91846850D01*
X144345034Y-92212610D02*
X143029687Y-92715725D01*
X143029687Y-92715725D02*
X141776100Y-93355882D01*
X138696700Y-110972600D02*
X138163300Y-110972600D01*
X139407900Y-110261400D02*
X138696700Y-110972600D01*
X138163300Y-110972600D02*
X138152418Y-110978600D01*
X139407900Y-110261400D02*
X139408618Y-110252860D01*
X139509500Y-113868200D02*
X140500100Y-113868200D01*
X138112500Y-112471200D02*
X139509500Y-113868200D01*
X138112500Y-112166400D02*
X138112500Y-112471200D01*
X137985500Y-112039400D02*
X138112500Y-112166400D01*
X137985500Y-111150400D02*
X137985500Y-112039400D01*
X138061700Y-111074200D02*
X137985500Y-111150400D01*
X140500100Y-113868200D02*
X140504106Y-113884885D01*
X138061700Y-111074200D02*
X138152418Y-110978600D01*
X144233900Y-113995200D02*
X146773900Y-113995200D01*
X146773900Y-113995200D02*
X148501100Y-113995200D01*
X143522700Y-113284000D02*
X144233900Y-113995200D01*
X143167100Y-113284000D02*
X143522700Y-113284000D01*
X143141700Y-113258600D02*
X143167100Y-113284000D01*
X141135100Y-113258600D02*
X143141700Y-113258600D01*
X140601700Y-113792000D02*
X141135100Y-113258600D01*
X148501100Y-113995200D02*
X148501100Y-114004660D01*
X140601700Y-113792000D02*
X140504106Y-113884885D01*
X140525500Y-95224600D02*
X140525500Y-96113600D01*
X141744700Y-94005400D02*
X140525500Y-95224600D01*
X141744700Y-93472000D02*
X141744700Y-94005400D01*
X140525500Y-96113600D02*
X140504106Y-96122319D01*
X141744700Y-93472000D02*
X141776100Y-93355882D01*
X145021300Y-99390200D02*
X145021300Y-102260400D01*
X141820900Y-96189800D02*
X144754600Y-99123500D01*
X144754600Y-99123500D02*
X145021300Y-99390200D01*
X140627100Y-96189800D02*
X141820900Y-96189800D01*
X140627100Y-96189800D02*
X140504106Y-96122319D01*
X156324300Y-114681000D02*
X155536900Y-114681000D01*
X156375100Y-114731800D02*
X156324300Y-114681000D01*
X156629100Y-114731800D02*
X156375100Y-114731800D01*
X158229300Y-113131600D02*
X156629100Y-114731800D01*
X158229300Y-112090200D02*
X158229300Y-113131600D01*
X158178500Y-112039400D02*
X158229300Y-112090200D01*
X155536900Y-114681000D02*
X155525318Y-114671138D01*
X158178500Y-112039400D02*
X158168634Y-112027822D01*
X156298900Y-98094800D02*
X156298900Y-100482400D01*
X157365700Y-97028000D02*
X156298900Y-98094800D01*
X156298900Y-100482400D02*
X156294537Y-100504341D01*
X157365700Y-97028000D02*
X157382381Y-97006610D01*
X153555700Y-97205800D02*
X153022300Y-97205800D01*
X154571700Y-96189800D02*
X153555700Y-97205800D01*
X154571700Y-94742000D02*
X154571700Y-96189800D01*
X154495500Y-94665800D02*
X154571700Y-94742000D01*
X153022300Y-97205800D02*
X153000359Y-97210163D01*
X154495500Y-94665800D02*
X154476100Y-94654922D01*
X150228300Y-96012000D02*
X148501100Y-96012000D01*
X152869900Y-97180400D02*
X151980900Y-97180400D01*
X148501100Y-96012000D02*
X148501100Y-96002541D01*
X152869900Y-97180400D02*
X153000359Y-97210163D01*
X156222700Y-101422200D02*
X156222700Y-100609400D01*
X152793700Y-97282000D02*
X152793700Y-97993200D01*
X156222700Y-100609400D02*
X156294537Y-100504341D01*
X152793700Y-97282000D02*
X153000359Y-97210163D01*
X156756100Y-110667800D02*
X158051500Y-111963200D01*
X156756100Y-110032800D02*
X156756100Y-110667800D01*
X157162500Y-109626400D02*
X156756100Y-110032800D01*
X157162500Y-106375200D02*
X157162500Y-109626400D01*
X158051500Y-111963200D02*
X158168634Y-112027822D01*
X144894300Y-98983800D02*
X144754600Y-99123500D01*
X146773900Y-110109000D02*
X146773900Y-113995200D01*
G04 #@! TO.N,B6*
X140595200Y-94122538D02*
X139500409Y-95007604D01*
X139500409Y-95007604D02*
X138505100Y-96002913D01*
X138505100Y-96002913D02*
X137620034Y-97097704D01*
X137620034Y-97097704D02*
X136853378Y-98278600D01*
X136853378Y-98278600D02*
X136585415Y-98803341D01*
X136585415Y-98803341D02*
X136213221Y-99532191D01*
X136213221Y-99532191D02*
X135710106Y-100847538D01*
X135710106Y-100847538D02*
X135344346Y-102206069D01*
X139500409Y-95007604D02*
X138976100Y-95478600D01*
X153758900Y-114630200D02*
X153758900Y-114096800D01*
X154470100Y-115341400D02*
X153797000Y-114668300D01*
X153797000Y-114668300D02*
X153758900Y-114630200D01*
X153758900Y-114096800D02*
X153750359Y-114096082D01*
X154470100Y-115341400D02*
X154476100Y-115352282D01*
X158026100Y-110998000D02*
X158838900Y-110998000D01*
X157899100Y-111125000D02*
X158026100Y-110998000D01*
X153797000Y-114668300D02*
X154546300Y-113919000D01*
X158838900Y-110998000D02*
X158849778Y-110978600D01*
X153962100Y-94081600D02*
X153377900Y-94081600D01*
X154216100Y-93827600D02*
X153962100Y-94081600D01*
X154724100Y-93827600D02*
X154216100Y-93827600D01*
X155232100Y-94335600D02*
X154724100Y-93827600D01*
X155587700Y-94335600D02*
X155232100Y-94335600D01*
X156527500Y-95275400D02*
X155587700Y-94335600D01*
X156629100Y-95275400D02*
X156527500Y-95275400D01*
X158229300Y-96875600D02*
X156629100Y-95275400D01*
X158229300Y-97917000D02*
X158229300Y-96875600D01*
X158178500Y-97967800D02*
X158229300Y-97917000D01*
X153377900Y-94081600D02*
X153362406Y-94086041D01*
X158178500Y-97967800D02*
X158168634Y-97979382D01*
X143065500Y-94081600D02*
X143624300Y-94081600D01*
X142735300Y-93751400D02*
X143065500Y-94081600D01*
X143624300Y-94081600D02*
X143639790Y-94086041D01*
X142125700Y-114655600D02*
X141490700Y-114655600D01*
X142252700Y-114528600D02*
X142125700Y-114655600D01*
X142684500Y-114528600D02*
X142252700Y-114528600D01*
X143040100Y-114884200D02*
X142684500Y-114528600D01*
X143294100Y-114884200D02*
X143040100Y-114884200D01*
X143421100Y-115011200D02*
X143294100Y-114884200D01*
X137807700Y-110083600D02*
X138493500Y-110083600D01*
X137604500Y-109880400D02*
X137807700Y-110083600D01*
X141490700Y-114655600D02*
X141476878Y-114671138D01*
X137604500Y-109880400D02*
X137583537Y-109864910D01*
X144259300Y-102743000D02*
X145021300Y-102743000D01*
X139890500Y-107619800D02*
X139890500Y-107061000D01*
X137706100Y-109804200D02*
X139890500Y-107619800D01*
X137706100Y-109804200D02*
X137583537Y-109864910D01*
X137121900Y-99288600D02*
X136690100Y-98856800D01*
X136690100Y-98856800D02*
X136585415Y-98803341D01*
X152844500Y-94157800D02*
X153250900Y-94157800D01*
X152488900Y-94513400D02*
X152844500Y-94157800D01*
X150609300Y-94513400D02*
X152488900Y-94513400D01*
X144106900Y-94513400D02*
X144614900Y-94513400D01*
X143751300Y-94157800D02*
X144106900Y-94513400D01*
X153250900Y-94157800D02*
X153362406Y-94086041D01*
X143751300Y-94157800D02*
X143639790Y-94086041D01*
G04 #@! TO.N,B5*
X135344346Y-107801135D02*
X135123787Y-106410416D01*
X135123787Y-106410416D02*
X135051100Y-105003600D01*
X135051100Y-105003600D02*
X135123787Y-103596788D01*
X135344346Y-107801135D02*
X135710106Y-109159666D01*
X135710106Y-109159666D02*
X136213221Y-110475013D01*
X136213221Y-110475013D02*
X136853378Y-111728600D01*
X136853378Y-111728600D02*
X137620034Y-112909500D01*
X135051100Y-105003600D02*
X134848600Y-105638600D01*
X138696700Y-97028000D02*
X139611100Y-97028000D01*
X139611100Y-97028000D02*
X139619815Y-97006610D01*
X144360900Y-93624400D02*
X144792700Y-93624400D01*
X143954500Y-93218000D02*
X144360900Y-93624400D01*
X144792700Y-93624400D02*
X144808562Y-93639194D01*
X152184100Y-93218000D02*
X152184100Y-93624400D01*
X151726900Y-92760800D02*
X152184100Y-93218000D01*
X152184100Y-93624400D02*
X152193634Y-93639194D01*
X143979900Y-103251000D02*
X145021300Y-103251000D01*
X143243300Y-102514400D02*
X143979900Y-103251000D01*
X142532100Y-116027200D02*
X142532100Y-115366800D01*
X142760700Y-116255800D02*
X142532100Y-116027200D01*
X144589500Y-114935000D02*
X144741900Y-114935000D01*
X143751300Y-114096800D02*
X144589500Y-114935000D01*
X143268700Y-114096800D02*
X143751300Y-114096800D01*
X142532100Y-115366800D02*
X142526100Y-115352282D01*
X143268700Y-114096800D02*
X143251840Y-114096082D01*
X153352500Y-114808000D02*
X153352500Y-115900200D01*
X153174700Y-114630200D02*
X153352500Y-114808000D01*
X159143700Y-109601000D02*
X158153100Y-109601000D01*
X159397700Y-109855000D02*
X159143700Y-109601000D01*
X153352500Y-115900200D02*
X153362406Y-115921163D01*
X159397700Y-109855000D02*
X159418659Y-109864910D01*
X158838900Y-99593400D02*
X158838900Y-99034600D01*
X158178500Y-100253800D02*
X158838900Y-99593400D01*
X158178500Y-100863400D02*
X158178500Y-100253800D01*
X158178500Y-109499400D02*
X158178500Y-107950000D01*
X158838900Y-99034600D02*
X158849778Y-99028600D01*
X158178500Y-109499400D02*
X158153100Y-109601000D01*
X152717500Y-114198400D02*
X149847300Y-114198400D01*
X153073100Y-114554000D02*
X152717500Y-114198400D01*
X153073100Y-114554000D02*
X153174700Y-114630200D01*
X158178500Y-102514400D02*
X155943300Y-102514400D01*
G04 #@! TO.N,GND*
X148755100Y-103035100D02*
X148501100Y-105003600D01*
D27*
X148501100Y-105003600D02*
X146596100Y-106908600D01*
X146596100Y-106908600D02*
X146596100Y-107226100D01*
D25*
X146596100Y-104368600D02*
X148501100Y-105003600D01*
X147866100Y-106908600D02*
X148501100Y-105003600D01*
X149136100Y-103098600D02*
X148501100Y-105003600D01*
X150088600Y-105956100D02*
X148501100Y-105003600D01*
X148755100Y-102920800D02*
X148755100Y-101523800D01*
X148755100Y-102920800D02*
X148501100Y-105003600D01*
X152260300Y-96113600D02*
X152844500Y-96113600D01*
X150863300Y-97510600D02*
X152260300Y-96113600D01*
X147739100Y-98577400D02*
X147586700Y-98577400D01*
X147840700Y-98475800D02*
X147739100Y-98577400D01*
X148653500Y-98475800D02*
X147840700Y-98475800D01*
X148805900Y-98628200D02*
X148653500Y-98475800D01*
X148805900Y-101422200D02*
X148805900Y-98628200D01*
X148805900Y-101422200D02*
X148755100Y-101523800D01*
G04 #@! TO.N,VCC*
X147256500Y-101523800D02*
X147256500Y-100901500D01*
X147256500Y-100901500D02*
X146913600Y-100558600D01*
X146913600Y-100558600D02*
X146278600Y-100558600D01*
X146278600Y-100558600D02*
X145961100Y-100241100D01*
X145961100Y-100241100D02*
X145961100Y-98336100D01*
X145961100Y-98336100D02*
X146278600Y-98018600D01*
D26*
X154025600Y-98946600D02*
X154001100Y-98971100D01*
X152565100Y-99352100D02*
X151691100Y-99352100D01*
X151691100Y-99352100D02*
X150557600Y-98018600D01*
X150557600Y-98018600D02*
X149263100Y-98018600D01*
X149263100Y-98018600D02*
X146278600Y-98018600D01*
D27*
X152565100Y-99352100D02*
X154025600Y-98946600D01*
X156184600Y-97066100D02*
X154025600Y-98946600D01*
D25*
X149263100Y-98018600D02*
X149263100Y-101523800D01*
G04 #@! TO.N,BSL_RST*
X149745700Y-99999800D02*
X149745700Y-100050600D01*
X149745700Y-100050600D02*
X149745700Y-101523800D01*
X150380700Y-99364800D02*
X149745700Y-99999800D01*
X150380700Y-99364800D02*
X150391100Y-99352100D01*
X142227300Y-98196400D02*
X142405100Y-98196400D01*
X142405100Y-98196400D02*
X142405100Y-98209100D01*
X142227300Y-98196400D02*
X142214600Y-98209100D01*
X144538700Y-99796600D02*
X144538700Y-100050600D01*
X143827500Y-99085400D02*
X144538700Y-99796600D01*
G04 #@! TO.N,BSL_TEST*
X150253700Y-100761800D02*
X150253700Y-101523800D01*
X143090900Y-100736400D02*
X142405100Y-100736400D01*
X142405100Y-100736400D02*
X143040100Y-100749100D01*
X143090900Y-100736400D02*
X143103600Y-100749100D01*
G04 #@! TO.N,BSL_RX*
X144183100Y-104749600D02*
X145021300Y-104749600D01*
X143103600Y-105829100D02*
X144183100Y-104749600D01*
X142989300Y-105816400D02*
X142405100Y-105816400D01*
X142405100Y-105816400D02*
X143040100Y-105829100D01*
X142989300Y-105816400D02*
X143103600Y-105829100D01*
G04 #@! TO.N,BSL_TX*
X143344900Y-104241600D02*
X145021300Y-104241600D01*
X142405100Y-103301800D02*
X143344900Y-104241600D01*
X142405100Y-103301800D02*
X142405100Y-103289100D01*
X142227300Y-103301800D02*
X142303500Y-103301800D01*
X142303500Y-103301800D02*
X142405100Y-103289100D01*
X142227300Y-103301800D02*
X142214600Y-103289100D01*
G04 #@! TO.N,XOUT*
X148247100Y-101523800D02*
X148247100Y-99290100D01*
X148247100Y-99290100D02*
X148248600Y-99288600D01*
G04 #@! TO.N,XIN*
X147739100Y-101523800D02*
X147739100Y-100179100D01*
X147739100Y-100179100D02*
X146848600Y-99288600D01*
G04 #@! TO.N,AVCC*
X151980900Y-106756200D02*
X152006300Y-106781600D01*
X152006300Y-106781600D02*
X153263600Y-106781600D01*
X151980900Y-106248200D02*
X153263600Y-106248200D01*
X153263600Y-106248200D02*
X153263600Y-106781600D01*
X151980900Y-103251000D02*
X153454100Y-103251000D01*
X153454100Y-103251000D02*
X153454100Y-104241600D01*
X153454100Y-104241600D02*
X151980900Y-104241600D01*
X151980900Y-104749600D02*
X153454100Y-104749600D01*
X153454100Y-104749600D02*
X153454100Y-104241600D01*
X154025600Y-100646600D02*
X154025600Y-102679500D01*
X154025600Y-102679500D02*
X153454100Y-103251000D01*
X151980900Y-104749600D02*
X153263600Y-104749600D01*
X153263600Y-104749600D02*
X153263600Y-106248200D01*
G04 #@! TO.N,BSL_VCC*
X144564100Y-105765600D02*
X145021300Y-105765600D01*
X144259300Y-106070400D02*
X144564100Y-105765600D01*
X144259300Y-106502200D02*
X144259300Y-106070400D01*
X142405100Y-108356400D02*
X144259300Y-106502200D01*
X142405100Y-108356400D02*
X142405100Y-108369100D01*
X142227300Y-108356400D02*
X142303500Y-108356400D01*
X142303500Y-108356400D02*
X142405100Y-108369100D01*
X142227300Y-108356400D02*
X142214600Y-108369100D01*
G04 #@! TO.N,BUTTON*
X144259300Y-103759000D02*
X145021300Y-103759000D01*
X158788100Y-103479600D02*
X156222700Y-103479600D01*
X159727900Y-104419400D02*
X158788100Y-103479600D01*
G04 #@! TD*
M02*
